{"glyphs":{"0":{"ha":836,"x_min":93,"x_max":744,"o":"m 708 208 q 661 112 689 156 q 597 32 633 68 q 517 -19 561 -1 q 422 -36 474 -36 q 400 -35 411 -36 q 378 -32 389 -35 q 356 -28 368 -31 q 333 -22 344 -25 q 230 34 274 -4 q 158 132 186 72 q 116 253 132 190 q 96 385 100 317 q 94 402 94 393 q 93 421 93 411 q 93 438 93 429 q 93 457 93 447 q 94 512 93 485 q 99 565 96 539 q 105 615 101 592 q 114 661 108 639 q 115 667 114 664 q 117 672 115 669 q 117 678 117 675 q 119 683 118 681 q 149 765 131 725 q 193 844 167 806 q 255 908 219 882 q 333 949 290 935 q 344 951 339 950 q 354 954 349 953 q 365 956 360 956 q 376 958 371 957 q 381 958 379 958 q 386 960 383 958 q 392 960 389 960 q 397 960 394 960 q 403 960 400 960 q 408 961 406 960 q 413 961 410 961 q 418 961 415 961 q 472 956 446 961 q 525 939 499 950 q 574 913 551 929 q 617 876 597 897 q 668 805 646 846 q 706 715 690 764 q 730 616 721 667 q 743 513 739 565 q 743 504 743 508 q 743 497 743 500 q 743 489 743 493 q 743 481 743 485 q 743 472 743 476 q 744 465 743 468 q 744 458 744 461 q 744 450 744 454 q 742 385 744 417 q 735 321 739 353 q 724 262 731 290 q 708 208 717 233 l 708 208 l 708 208 m 589 236 q 599 281 594 256 q 606 335 603 306 q 610 395 608 364 q 611 460 611 426 q 611 465 611 463 q 611 472 611 468 q 610 478 610 475 q 610 483 610 481 q 610 489 610 486 q 610 496 610 492 q 610 501 610 499 q 610 507 610 504 q 603 593 608 551 q 590 674 597 635 q 571 746 582 714 q 544 800 560 778 q 519 828 533 815 q 488 850 504 840 q 453 863 471 858 q 417 868 436 868 q 403 867 410 868 q 389 865 396 867 q 383 863 386 864 q 376 861 379 863 q 369 859 372 860 q 363 857 365 858 q 315 826 336 844 q 282 783 294 808 q 259 732 268 758 q 244 678 250 706 q 242 674 243 676 q 242 669 242 671 q 240 665 240 667 q 240 660 240 663 q 240 656 240 658 q 239 651 239 653 q 238 647 238 649 q 238 642 238 644 q 235 619 236 631 q 232 597 233 608 q 230 574 231 585 q 228 551 229 563 q 226 506 226 529 q 225 460 225 483 q 226 415 225 438 q 228 371 226 393 q 233 326 231 349 q 238 282 235 304 q 238 271 238 276 q 240 260 239 265 q 243 249 242 254 q 246 238 244 243 q 260 185 251 211 q 283 136 269 160 q 316 94 296 113 q 363 65 336 76 q 376 60 369 63 q 390 57 383 58 q 404 55 397 56 q 418 54 411 54 q 420 54 419 54 q 422 54 421 54 q 423 54 422 54 q 425 54 424 54 q 427 54 426 54 q 429 54 428 54 q 430 55 429 54 q 432 56 431 56 q 435 56 433 56 q 438 56 436 56 q 440 56 439 56 q 442 57 440 56 q 444 57 443 57 q 446 57 444 57 q 499 78 476 64 q 538 117 522 93 q 564 166 553 140 q 583 218 575 192 q 584 223 583 221 q 586 226 585 225 q 586 229 586 228 q 588 232 586 231 q 588 233 588 232 q 589 236 589 235 l 589 236 l 589 236 z "},"1":{"ha":836,"x_min":215,"x_max":685,"o":"m 639 88 q 659 84 650 88 q 674 74 668 81 q 682 60 679 68 q 685 46 685 53 q 685 44 685 44 q 685 43 685 43 q 685 43 685 43 q 685 43 685 43 q 685 42 685 42 q 685 42 685 42 q 680 26 683 33 q 669 13 676 19 q 654 3 664 7 q 632 0 644 0 l 268 0 q 247 3 257 0 q 231 11 238 6 q 219 24 222 17 q 215 40 215 31 q 215 46 215 43 q 217 51 215 49 q 218 58 217 54 q 221 64 219 61 q 226 74 224 69 q 235 79 229 78 q 244 83 239 82 q 256 86 250 85 q 263 86 260 86 q 271 88 267 86 q 277 88 274 88 q 285 88 281 88 q 299 88 292 88 q 315 88 307 88 q 322 88 318 88 q 329 88 325 88 q 333 88 332 88 q 338 88 335 88 q 341 88 339 88 q 344 88 343 88 q 351 88 347 88 q 358 88 354 88 q 363 88 361 88 q 367 88 364 88 q 370 88 368 88 q 374 88 372 88 l 374 844 q 372 844 372 844 q 368 844 371 844 q 365 844 367 844 q 363 844 364 844 q 360 844 361 844 q 357 844 358 844 q 355 844 356 844 q 353 844 354 844 q 342 844 347 844 q 333 844 338 844 q 323 844 328 844 q 313 844 318 844 q 292 847 303 844 q 272 850 282 849 q 256 857 263 853 q 246 867 249 861 q 244 869 244 868 q 243 871 243 869 q 242 874 242 872 q 242 876 242 875 q 240 878 240 878 q 240 881 240 879 q 240 883 240 882 q 240 886 240 885 q 243 900 240 893 q 251 913 246 907 q 265 924 258 919 q 279 931 271 928 q 285 932 279 931 q 306 935 292 933 q 334 940 319 938 q 365 946 349 943 q 379 949 372 947 q 393 951 386 950 q 407 953 400 951 q 419 956 414 954 q 440 960 432 958 q 450 961 449 961 q 450 961 450 961 q 451 961 450 961 q 451 961 451 961 q 451 961 451 961 q 452 961 451 961 q 454 961 453 961 q 454 961 454 961 q 454 961 454 961 q 455 961 454 961 q 457 961 456 961 q 478 958 469 961 q 490 947 486 954 q 497 931 494 942 q 500 908 500 921 l 500 88 l 639 88 l 639 88 l 639 88 z "},"2":{"ha":836,"x_min":115,"x_max":718,"o":"m 261 807 q 261 804 261 806 q 261 801 261 803 q 261 799 261 800 q 261 799 261 799 q 261 794 261 797 q 261 790 261 792 q 261 785 261 788 q 261 781 261 783 q 261 776 261 779 q 261 772 261 774 q 261 767 261 769 q 261 763 261 765 q 258 743 260 753 q 254 725 257 733 q 247 708 251 715 q 235 694 242 701 q 226 688 231 690 q 218 682 222 685 q 208 680 213 681 q 197 679 203 679 q 191 679 194 679 q 185 681 188 679 q 178 682 182 681 q 172 685 175 683 q 158 693 164 688 q 150 706 153 699 q 144 720 146 713 q 143 736 143 728 q 144 749 143 743 q 146 761 144 756 q 149 775 147 768 q 154 789 151 782 q 161 806 157 797 q 171 825 165 815 q 180 842 175 833 q 190 858 185 850 q 195 865 193 861 q 200 871 197 868 q 204 876 201 874 q 208 882 207 879 q 213 887 211 885 q 217 892 214 889 q 220 895 218 893 q 224 899 222 897 q 262 926 242 914 q 304 947 282 939 q 349 961 326 956 q 394 968 372 967 q 399 968 397 968 q 403 968 401 968 q 408 968 406 968 q 411 968 410 968 q 505 951 460 968 q 590 903 550 935 q 651 822 631 869 q 672 714 672 775 q 666 651 672 682 q 647 593 660 621 q 619 538 635 564 q 582 488 603 511 q 565 468 574 478 q 550 449 557 458 q 533 429 542 439 q 517 410 525 419 q 500 391 508 400 q 483 372 492 382 q 465 353 474 363 q 449 335 457 344 q 448 333 449 333 q 447 332 447 332 q 445 330 446 331 q 444 328 444 329 q 442 325 443 326 q 439 322 440 324 q 414 294 426 308 q 389 267 401 281 q 365 240 376 253 q 342 213 353 226 l 243 100 l 625 100 q 635 122 629 113 q 647 139 642 132 q 661 151 654 146 q 676 157 668 156 q 676 157 676 157 q 678 158 676 157 q 678 158 678 158 q 681 158 679 158 q 683 158 682 158 q 685 158 683 158 q 685 158 685 158 q 685 158 685 158 q 685 158 685 158 q 688 158 686 158 q 699 156 694 158 q 708 147 704 153 q 715 133 713 142 q 718 114 718 125 q 718 112 718 113 q 718 111 718 111 q 718 110 718 110 q 718 110 718 110 q 718 108 718 108 q 718 107 718 107 q 718 105 718 106 q 718 104 718 104 q 709 48 715 69 q 694 18 703 26 q 665 6 685 10 q 614 1 646 1 l 164 0 q 147 2 154 0 q 132 8 139 4 q 122 21 126 13 q 117 39 118 29 q 117 40 117 39 q 117 42 117 40 q 117 42 117 42 q 117 44 117 43 q 115 45 115 44 q 115 47 115 46 q 115 48 115 47 q 115 50 115 49 q 119 73 115 61 q 129 94 124 85 q 135 105 132 100 q 143 115 139 110 q 150 124 146 119 q 158 135 154 129 q 164 141 161 138 q 169 149 167 144 q 176 155 172 151 q 182 163 179 158 l 386 406 q 394 415 390 410 q 403 425 399 419 q 407 430 406 428 q 411 435 408 432 q 415 439 413 436 q 418 444 417 442 q 458 494 439 468 q 496 546 478 519 q 526 603 514 574 q 544 663 539 632 q 547 676 546 669 q 549 688 547 682 q 549 694 549 690 q 550 701 549 697 q 550 708 550 704 q 550 715 550 711 q 547 752 550 735 q 538 788 544 769 q 521 819 532 804 q 494 846 510 833 q 473 860 485 854 q 450 869 461 865 q 426 876 438 874 q 403 878 414 878 q 365 873 383 878 q 326 858 346 868 q 292 835 308 849 q 261 807 275 822 l 261 807 l 261 807 z "},"3":{"ha":836,"x_min":103,"x_max":708,"o":"m 544 528 q 597 492 572 511 q 644 450 622 474 q 680 399 665 428 q 701 338 694 371 q 702 329 701 333 q 704 322 703 325 q 705 314 704 318 q 706 306 706 310 q 708 289 707 297 q 708 272 708 281 q 703 219 707 246 q 690 167 699 192 q 669 117 682 140 q 639 74 656 94 q 583 23 614 44 q 514 -10 551 1 q 438 -31 476 -24 q 358 -37 399 -37 q 306 -35 332 -37 q 256 -26 281 -32 q 207 -13 231 -21 q 161 4 183 -6 q 143 15 151 10 q 128 26 135 21 q 117 40 122 33 q 108 51 111 46 q 106 57 107 54 q 104 63 104 60 q 103 69 103 65 q 103 75 103 72 q 106 90 103 83 q 115 103 110 97 q 131 113 122 110 q 150 115 140 115 q 153 115 151 115 q 157 115 156 115 q 162 114 160 114 q 165 114 164 114 q 174 112 169 113 q 183 108 178 111 q 203 100 194 104 q 219 92 211 96 q 228 88 224 90 q 236 83 232 86 q 243 80 239 82 q 251 76 247 78 q 273 67 263 71 q 296 60 283 63 q 322 55 307 57 q 356 53 338 53 q 358 53 357 53 q 360 53 358 53 q 362 53 361 53 q 364 53 363 53 q 365 53 364 53 q 367 53 365 53 q 369 53 368 53 q 372 53 371 53 q 426 60 400 53 q 478 81 453 67 q 523 114 503 94 q 557 158 543 133 q 569 184 564 171 q 578 211 574 197 q 583 241 581 226 q 585 271 585 256 q 585 274 585 272 q 585 276 585 275 q 585 279 585 278 q 585 282 585 281 q 571 355 583 319 q 536 421 558 390 q 482 468 514 453 q 410 483 450 483 q 408 483 408 483 q 407 483 407 483 q 406 483 406 483 q 406 483 406 483 q 403 483 404 483 q 403 483 403 483 q 401 483 401 483 q 400 483 400 483 q 397 483 399 483 q 396 483 396 483 q 393 482 394 482 q 390 482 392 482 q 387 482 389 482 q 382 482 385 482 q 380 482 381 482 q 378 482 379 482 q 376 482 376 482 q 375 482 375 482 q 373 481 374 482 q 372 481 372 481 q 370 481 371 481 q 368 481 369 481 q 365 481 367 481 q 363 481 364 481 q 351 482 357 481 q 340 485 346 483 q 331 490 335 488 q 324 499 326 493 q 322 501 322 500 q 321 504 321 503 q 319 506 319 504 q 319 508 319 507 q 318 514 318 511 q 318 519 318 517 q 322 535 318 528 q 332 547 325 542 q 347 557 339 554 q 365 561 356 560 q 372 561 368 561 q 378 561 375 561 q 384 562 381 561 q 390 564 388 563 q 431 572 411 567 q 469 585 451 576 q 503 606 489 592 q 528 643 518 621 q 534 658 531 650 q 539 675 538 667 q 541 683 540 679 q 542 693 542 688 q 544 701 543 697 q 544 710 544 706 q 544 713 544 711 q 544 715 544 714 q 544 717 544 715 q 544 719 544 718 q 544 724 544 722 q 544 728 544 726 q 544 747 544 738 q 540 765 543 756 q 536 784 539 775 q 531 801 533 793 q 510 835 522 821 q 481 860 497 850 q 445 876 464 871 q 407 882 426 882 q 405 882 406 882 q 404 882 404 882 q 404 882 404 882 q 404 882 404 882 q 403 882 403 882 q 403 882 403 882 q 369 876 385 881 q 340 865 354 872 q 314 847 326 857 q 290 826 301 838 q 292 818 292 822 q 293 810 293 814 q 293 806 293 808 q 294 803 293 804 q 294 799 294 800 q 294 796 294 797 q 290 767 294 779 q 274 743 285 754 q 249 728 264 733 q 214 722 233 722 q 194 726 204 722 q 178 738 185 729 q 167 753 171 744 q 160 772 163 763 q 160 773 160 772 q 160 775 160 774 q 158 776 158 775 q 158 776 158 776 q 158 778 158 776 q 158 781 158 779 q 158 781 158 781 q 158 783 158 782 q 158 785 158 785 q 158 788 158 786 q 162 813 158 800 q 174 838 165 825 q 189 859 181 849 q 207 879 197 869 q 208 880 207 879 q 210 882 208 881 q 212 884 211 883 q 214 886 213 885 q 253 914 232 901 q 299 936 274 926 q 349 951 324 946 q 400 958 374 957 q 403 958 401 958 q 406 960 404 958 q 408 960 407 960 q 411 960 410 960 q 417 960 414 960 q 422 960 419 960 q 485 953 454 960 q 547 932 517 946 q 599 897 576 918 q 639 846 622 875 q 649 825 644 836 q 656 803 653 814 q 660 780 658 792 q 664 757 663 768 q 664 754 664 756 q 665 751 664 753 q 665 749 665 750 q 665 746 665 747 q 665 742 665 744 q 665 738 665 740 q 663 710 665 724 q 658 682 661 696 q 651 656 656 668 q 642 632 647 643 q 623 601 633 615 q 600 574 613 586 q 574 550 588 561 q 544 528 560 539 l 544 528 l 544 528 z "},"4":{"ha":836,"x_min":108,"x_max":732,"o":"m 624 25 q 621 2 624 11 q 611 -12 618 -7 q 594 -22 606 -19 q 568 -25 583 -25 q 542 -22 553 -25 q 524 -12 531 -19 q 513 2 517 -7 q 510 25 510 11 l 510 206 l 156 206 q 132 208 142 206 q 118 215 122 210 q 112 229 114 221 q 110 249 110 238 q 110 253 110 251 q 110 257 110 256 q 110 262 110 260 q 110 265 110 264 q 110 272 110 268 q 110 278 110 275 q 110 284 110 281 q 110 290 110 288 q 108 297 108 293 q 108 303 108 300 q 108 309 108 306 q 108 315 108 313 q 108 330 108 322 q 110 346 108 338 q 112 360 110 353 q 117 375 114 368 q 120 383 118 379 q 124 392 122 388 q 128 399 126 394 q 132 407 131 403 q 137 415 135 411 q 140 424 139 419 q 145 431 143 426 q 150 439 147 435 q 150 439 150 439 q 150 440 150 439 q 150 440 150 440 q 150 440 150 440 q 150 440 150 440 q 151 442 150 440 q 157 451 154 446 q 163 461 160 456 q 168 472 165 467 q 174 482 171 476 q 188 512 181 497 q 203 542 196 526 q 217 572 210 557 q 232 603 225 588 q 237 612 235 607 q 240 622 239 617 q 243 628 242 625 q 246 633 244 631 q 247 638 246 635 q 250 643 249 640 q 255 654 253 649 q 260 665 257 660 q 264 675 261 669 q 268 686 267 681 q 273 697 271 692 q 278 708 275 703 q 282 718 279 713 q 288 729 285 724 q 306 773 297 751 q 325 817 315 794 q 344 860 335 839 q 363 904 353 882 q 363 909 363 907 q 365 913 364 911 q 366 915 365 914 q 368 917 367 915 q 369 917 368 917 q 369 919 369 918 q 369 920 369 919 q 371 922 369 921 q 371 923 371 922 q 371 925 371 924 q 372 928 371 926 q 374 931 372 929 q 376 937 375 933 q 379 944 378 940 q 382 951 381 947 q 385 957 383 954 q 388 963 386 960 q 392 971 389 967 q 395 977 393 974 q 399 983 397 981 q 406 993 401 989 q 417 999 411 997 q 428 1002 422 1001 q 440 1003 435 1003 q 441 1003 440 1003 q 443 1003 442 1003 q 445 1003 444 1003 q 447 1003 446 1003 q 467 997 458 1001 q 485 986 476 993 q 497 971 493 981 q 501 950 501 961 q 501 950 501 950 q 501 950 501 950 q 501 949 501 949 q 501 949 501 949 q 501 949 501 949 q 501 949 501 949 q 501 949 501 949 q 501 949 501 949 q 501 947 501 947 q 501 947 501 947 q 501 947 501 947 q 501 947 501 947 q 501 947 501 947 q 501 947 501 947 q 501 946 501 946 q 501 946 501 946 q 501 946 501 946 q 501 946 501 946 q 501 944 501 944 q 501 944 501 944 q 501 942 501 943 q 501 942 501 942 q 501 942 501 942 q 501 942 501 942 q 489 899 500 928 q 458 828 478 871 q 417 738 439 785 q 369 643 394 692 q 366 635 368 639 q 361 626 364 631 q 358 619 360 622 q 353 613 356 615 q 310 531 331 569 q 271 456 290 492 q 238 394 253 421 q 215 353 224 368 l 215 304 l 510 304 l 510 553 q 514 578 510 568 q 526 596 518 589 q 545 606 535 603 q 568 610 556 610 q 572 610 569 610 q 575 610 574 610 q 580 608 578 608 q 583 608 582 608 q 592 606 588 607 q 600 604 596 606 q 611 599 607 603 q 617 589 615 594 q 619 583 618 586 q 621 578 619 581 q 623 571 622 574 q 624 565 624 568 q 624 563 624 564 q 624 561 624 563 q 624 559 624 560 q 624 557 624 558 l 624 304 q 632 304 628 304 q 640 304 636 304 q 649 304 644 304 q 657 304 653 304 q 683 302 671 304 q 707 296 696 300 q 724 281 718 292 q 732 254 731 271 q 732 254 732 254 q 732 254 732 254 q 732 253 732 253 q 732 253 732 253 q 732 253 732 253 q 732 253 732 253 q 732 253 732 253 q 732 253 732 253 q 732 251 732 251 q 732 251 732 251 q 732 251 732 251 q 732 251 732 251 q 727 228 732 238 q 713 214 722 218 q 692 207 703 210 q 669 204 681 204 q 667 204 668 204 q 665 204 667 204 q 663 204 664 204 q 663 204 663 204 q 657 204 660 204 q 651 204 654 204 q 649 204 650 204 q 647 204 647 204 q 644 205 646 204 q 642 206 643 206 q 639 206 640 206 q 638 206 638 206 q 635 206 636 206 q 632 206 633 206 q 628 206 631 206 q 624 206 626 206 l 624 25 l 624 25 l 624 25 z "},"5":{"ha":836,"x_min":78,"x_max":701,"o":"m 196 860 q 203 890 197 875 q 218 918 208 904 q 243 939 229 932 q 275 946 257 946 l 522 946 q 529 946 525 946 q 538 947 533 946 q 542 947 540 947 q 547 949 544 947 q 551 949 549 949 q 556 950 554 950 q 558 950 557 950 q 560 950 558 950 q 560 950 560 950 q 563 950 561 950 q 565 950 564 950 q 568 951 567 950 q 574 951 571 951 q 581 951 578 951 q 583 951 582 951 q 588 953 585 951 q 590 953 589 953 q 593 953 592 953 q 610 951 601 953 q 625 946 618 949 q 638 935 632 942 q 646 919 643 929 q 646 917 646 918 q 646 915 646 917 q 646 915 646 915 q 647 914 646 914 q 647 913 647 913 q 647 913 647 913 q 647 910 647 911 q 647 908 647 910 q 647 906 647 907 q 647 906 647 906 q 647 894 647 900 q 643 883 646 889 q 638 873 642 878 q 632 865 635 868 q 619 856 626 860 q 606 851 613 853 q 591 850 599 850 q 575 850 583 850 q 575 850 575 850 q 575 850 575 850 q 574 850 574 850 q 574 850 574 850 q 572 850 572 850 q 571 850 571 850 l 299 849 l 278 617 q 313 625 296 621 q 349 632 331 629 q 383 636 365 635 q 418 638 400 638 q 475 633 447 638 q 529 617 503 628 q 579 590 556 607 q 625 547 603 572 q 659 499 644 525 q 683 446 674 474 q 697 390 692 418 q 701 332 701 361 q 701 329 701 331 q 701 326 701 328 q 701 324 701 325 q 701 322 701 324 q 690 241 700 281 q 661 164 681 201 q 617 94 643 125 q 560 39 592 63 q 506 7 533 21 q 446 -17 478 -7 q 384 -34 415 -28 q 321 -42 353 -40 q 317 -42 319 -42 q 313 -43 315 -42 q 309 -43 311 -43 q 304 -43 307 -43 q 296 -43 300 -43 q 288 -43 292 -43 q 285 -43 286 -43 q 282 -43 283 -43 q 280 -43 281 -43 q 278 -43 279 -43 q 272 -43 275 -43 q 265 -43 268 -43 q 258 -43 261 -43 q 251 -43 254 -43 q 245 -43 249 -43 q 239 -43 242 -43 q 233 -42 236 -42 q 226 -42 229 -42 q 201 -41 214 -42 q 176 -37 189 -40 q 153 -32 164 -36 q 131 -24 142 -28 q 114 -15 121 -19 q 100 -3 107 -10 q 90 8 94 1 q 82 22 85 15 q 80 28 81 25 q 79 33 79 31 q 78 39 78 36 q 78 44 78 42 q 81 58 78 51 q 89 71 83 65 q 103 81 94 78 q 124 83 111 83 q 124 83 124 83 q 125 83 124 83 q 125 83 125 83 q 125 83 125 83 q 126 83 125 83 q 128 83 126 83 q 128 83 128 83 q 131 83 129 83 q 131 83 131 83 q 133 83 132 83 q 133 83 133 83 q 135 83 133 83 q 135 83 135 83 q 138 83 136 83 q 152 81 144 82 q 167 79 160 81 q 174 77 171 78 q 182 76 178 76 q 189 74 185 75 q 197 72 193 74 q 198 72 197 72 q 200 72 199 72 q 201 71 200 71 q 201 71 201 71 q 202 71 201 71 q 204 71 203 71 q 205 69 204 69 q 207 69 206 69 q 226 66 217 68 q 246 61 236 64 q 266 58 256 60 q 286 56 276 56 q 288 56 288 56 q 290 56 289 56 q 293 56 292 56 q 296 56 294 56 q 297 56 296 56 q 300 56 299 56 q 302 56 301 56 q 304 56 303 56 q 352 59 328 56 q 400 71 376 63 q 445 90 424 78 q 485 119 467 103 q 519 158 504 136 q 547 204 535 179 q 566 256 558 229 q 575 308 574 282 q 575 311 575 310 q 575 314 575 313 q 575 315 575 314 q 575 318 575 317 q 575 324 575 321 q 575 329 575 326 q 571 374 575 353 q 558 418 567 396 q 538 458 550 439 q 507 494 525 478 q 490 508 499 501 q 474 518 482 514 q 465 523 469 521 q 458 526 461 525 q 450 531 454 529 q 442 535 446 533 q 425 539 433 538 q 408 542 417 540 q 392 544 400 543 q 375 544 383 544 q 353 544 364 544 q 332 540 343 543 q 322 538 326 539 q 311 538 317 538 q 301 535 306 536 q 292 533 296 535 q 274 530 282 532 q 257 525 265 528 q 241 523 249 524 q 226 522 233 522 q 226 522 226 522 q 226 522 226 522 q 225 522 225 522 q 225 522 225 522 q 225 522 225 522 q 225 522 225 522 q 224 522 224 522 q 224 522 224 522 q 207 524 214 522 q 194 532 200 526 q 186 548 189 538 q 183 574 183 558 q 183 576 183 575 q 183 579 183 578 q 183 582 183 581 q 183 585 183 583 l 196 860 l 196 860 l 196 860 z "},"6":{"ha":836,"x_min":114,"x_max":703,"o":"m 243 522 q 256 531 250 526 q 268 539 263 535 q 274 543 271 542 q 281 547 276 544 q 286 551 283 549 q 292 554 289 553 q 310 564 301 560 q 329 572 319 568 q 347 579 338 576 q 365 585 356 582 q 402 593 385 590 q 438 596 419 596 q 438 596 438 596 q 438 596 438 596 q 438 596 438 596 q 440 596 439 596 q 440 596 440 596 q 442 596 440 596 q 442 596 442 596 q 442 596 442 596 q 442 596 442 596 q 443 596 442 596 q 443 596 443 596 q 443 596 443 596 q 542 576 496 596 q 626 515 588 556 q 684 422 665 476 q 703 300 703 368 q 703 290 703 294 q 703 279 703 285 q 703 274 703 276 q 703 269 703 271 q 701 264 701 267 q 701 258 701 261 q 673 144 696 196 q 608 49 650 92 q 517 -15 567 6 q 408 -35 467 -35 q 390 -34 399 -35 q 369 -32 381 -33 q 350 -29 360 -31 q 331 -25 340 -28 q 235 19 275 -11 q 171 96 194 49 q 135 197 149 144 q 117 304 121 249 q 115 321 115 313 q 114 338 114 329 q 114 354 114 346 q 114 371 114 363 q 114 404 114 388 q 115 438 114 421 q 119 469 117 453 q 122 499 121 485 q 163 662 133 585 q 244 807 193 739 q 363 922 296 875 q 515 996 431 969 q 526 998 519 997 q 538 1000 532 999 q 551 1002 544 1001 q 564 1003 557 1003 q 588 1000 576 1003 q 610 992 600 997 q 626 978 621 986 q 631 958 631 969 q 631 958 631 958 q 631 958 631 958 q 631 957 631 957 q 631 957 631 957 q 631 957 631 957 q 631 957 631 957 q 631 957 631 957 q 631 957 631 957 q 631 956 631 956 q 631 956 631 956 q 631 956 631 956 q 631 956 631 956 q 631 953 631 954 q 631 951 631 953 q 631 949 631 950 q 631 949 631 949 q 631 947 631 947 q 631 946 631 946 q 629 944 629 944 q 629 944 629 944 q 629 942 629 943 q 629 940 629 942 q 626 932 628 936 q 619 925 624 928 q 610 919 615 922 q 599 914 606 917 q 565 899 585 907 q 522 882 546 890 q 474 859 499 872 q 424 826 449 846 q 371 778 397 806 q 319 715 344 751 q 276 632 294 681 q 243 522 257 583 l 243 522 l 243 522 m 249 276 q 263 180 250 221 q 300 111 275 139 q 352 71 325 85 q 410 57 379 57 q 468 71 440 57 q 521 114 496 85 q 558 186 546 143 q 571 286 571 229 q 559 378 571 339 q 524 444 547 418 q 473 483 500 469 q 417 496 446 496 q 414 496 415 496 q 411 496 413 496 q 408 496 410 496 q 406 496 407 496 q 349 478 376 493 q 297 436 322 464 q 260 371 272 410 q 249 283 249 332 q 249 281 249 282 q 249 281 249 281 q 249 278 249 279 q 249 276 249 278 l 249 276 l 249 276 z "},"7":{"ha":836,"x_min":132,"x_max":708,"o":"m 374 6 q 363 -13 368 -4 q 350 -29 357 -22 q 336 -40 344 -36 q 317 -43 328 -43 q 308 -42 313 -43 q 300 -40 304 -42 q 291 -37 296 -39 q 281 -33 286 -36 q 265 -23 271 -28 q 254 -12 258 -18 q 251 -9 253 -11 q 250 -4 250 -7 q 248 3 249 0 q 247 11 247 7 q 247 20 247 15 q 249 31 247 25 q 252 40 250 35 q 256 50 254 44 l 574 829 l 175 829 q 156 833 164 829 q 142 846 147 838 q 134 865 136 854 q 132 885 132 875 q 135 905 132 896 q 143 922 138 914 q 157 935 149 931 q 175 940 165 940 l 642 940 q 674 935 661 939 q 693 922 686 931 q 704 904 700 914 q 708 882 708 894 q 708 872 708 876 q 706 861 707 867 q 703 851 704 856 q 700 840 703 846 q 698 835 699 838 q 697 829 697 832 q 697 826 697 828 q 696 825 696 825 q 694 822 694 824 q 693 819 693 821 l 374 6 l 374 6 l 374 6 z "},"8":{"ha":836,"x_min":97,"x_max":731,"o":"m 310 486 q 237 524 269 503 q 181 572 204 546 q 145 634 157 600 q 133 711 133 668 q 133 714 133 713 q 133 717 133 715 q 133 718 133 717 q 133 721 133 719 q 133 726 133 724 q 135 732 133 729 q 135 737 135 735 q 135 740 135 739 q 135 743 135 742 q 136 746 135 744 q 136 749 136 747 q 136 751 136 750 q 167 843 143 804 q 233 908 192 882 q 321 949 275 935 q 415 964 367 963 q 417 964 417 964 q 419 964 418 964 q 422 964 421 964 q 425 964 424 964 q 528 949 481 964 q 615 901 576 933 q 676 826 656 871 q 696 722 696 781 q 684 647 696 679 q 649 590 672 614 q 596 548 625 568 q 532 511 567 528 q 613 466 576 490 q 675 414 649 442 q 717 345 703 386 q 731 250 731 304 q 707 129 731 182 q 636 39 683 76 q 534 -17 589 3 q 415 -37 479 -36 q 308 -23 360 -37 q 211 19 257 -8 q 138 92 165 49 q 100 196 110 136 q 98 206 99 201 q 97 217 97 211 q 97 226 97 221 q 97 236 97 231 q 113 323 97 285 q 160 392 129 361 q 229 444 192 421 q 310 486 267 468 l 310 486 l 310 486 m 404 447 q 402 447 403 447 q 401 446 401 446 q 399 444 400 444 q 397 444 399 444 q 394 442 396 443 q 392 442 393 442 q 326 410 356 428 q 272 372 296 392 q 237 318 249 351 q 225 239 225 285 q 239 162 225 196 q 279 101 253 128 q 341 62 307 75 q 415 49 375 49 q 418 49 417 49 q 421 49 419 49 q 424 49 422 49 q 428 49 426 49 q 431 49 429 49 q 433 49 432 49 q 434 49 433 49 q 436 50 435 49 q 437 50 436 50 q 439 50 438 50 q 510 70 479 54 q 564 113 542 86 q 597 172 586 139 q 608 243 608 204 q 608 245 608 244 q 608 247 608 246 q 608 250 608 249 q 608 253 608 251 q 608 254 608 253 q 608 257 608 256 q 608 259 608 258 q 608 261 608 260 q 589 331 604 301 q 546 378 574 360 q 490 411 519 396 q 428 439 460 426 q 426 439 426 439 q 424 439 425 439 q 423 439 424 439 q 422 440 422 439 q 421 440 421 440 q 421 440 421 440 q 417 442 419 442 q 413 444 415 443 q 409 445 411 444 q 404 447 407 446 l 404 447 l 404 447 m 433 544 q 439 547 436 546 q 444 550 442 549 q 447 551 446 550 q 450 553 449 551 q 451 553 450 553 q 454 556 453 554 q 497 581 478 567 q 535 608 517 594 q 563 646 553 624 q 576 699 574 668 q 576 701 576 700 q 576 703 576 701 q 576 705 576 704 q 578 707 576 706 q 578 709 578 708 q 578 711 578 710 q 578 714 578 713 q 578 717 578 715 q 570 769 578 744 q 547 817 563 794 q 511 853 533 840 q 460 872 489 867 q 449 874 454 874 q 439 875 444 875 q 433 875 436 875 q 429 876 431 875 q 424 876 426 876 q 418 876 421 876 q 357 866 386 875 q 301 838 328 857 q 262 792 275 819 q 249 728 249 764 q 263 659 249 689 q 303 610 276 629 q 360 575 331 590 q 422 549 389 560 q 425 547 424 547 q 428 546 426 546 q 428 546 428 546 q 431 546 429 546 q 431 544 431 544 q 433 544 432 544 l 433 544 l 433 544 z "},"9":{"ha":836,"x_min":107,"x_max":704,"o":"m 572 401 q 568 398 571 400 q 564 394 565 396 q 559 392 561 393 q 554 389 557 390 q 546 383 550 386 q 538 378 542 381 q 494 354 515 364 q 451 338 472 344 q 408 328 429 332 q 368 325 388 325 q 267 345 314 325 q 183 407 221 365 q 126 501 144 447 q 108 622 107 556 q 108 631 108 626 q 108 642 108 636 q 108 652 108 647 q 110 663 108 657 q 143 790 117 735 q 214 885 169 846 q 307 944 258 925 q 407 964 356 964 q 515 938 464 964 q 613 863 565 913 q 681 733 658 813 q 704 542 704 653 q 703 515 704 528 q 701 486 703 501 q 699 457 700 472 q 697 426 699 442 q 652 249 686 331 q 561 99 618 168 q 427 -8 506 31 q 250 -58 349 -47 q 247 -58 249 -58 q 244 -60 246 -58 q 242 -60 243 -60 q 240 -60 242 -60 q 237 -60 239 -60 q 232 -60 235 -60 q 202 -56 215 -60 q 178 -43 189 -51 q 163 -26 168 -35 q 157 -7 157 -17 q 157 -4 157 -6 q 157 -1 157 -3 q 157 0 157 0 q 158 1 157 0 q 159 2 158 1 q 160 4 160 3 q 162 7 161 6 q 164 10 163 8 q 165 12 164 11 q 167 14 165 13 q 169 15 168 14 q 171 17 169 15 q 174 19 172 18 q 176 21 175 19 q 181 22 179 21 q 185 24 183 22 q 194 28 189 26 q 204 32 199 31 q 230 39 215 35 q 261 47 244 43 q 294 57 278 51 q 329 69 311 63 q 344 76 336 72 q 358 83 351 79 q 373 90 365 86 q 388 99 381 94 q 458 156 428 124 q 510 231 489 189 q 547 314 531 271 q 572 401 563 357 l 572 401 l 572 401 m 567 646 q 553 744 565 703 q 515 813 540 786 q 463 853 490 840 q 407 867 436 867 q 405 867 406 867 q 403 867 404 867 q 401 867 401 867 q 399 867 400 867 q 342 849 369 865 q 292 806 315 833 q 255 736 267 776 q 244 643 243 696 q 244 626 244 635 q 246 610 244 618 q 246 601 246 606 q 247 593 246 597 q 248 583 247 588 q 250 575 249 579 q 269 508 256 536 q 303 463 282 481 q 347 435 324 444 q 394 426 369 426 q 395 426 394 426 q 397 426 396 426 q 400 426 399 426 q 403 426 401 426 q 461 444 433 429 q 515 485 489 458 q 553 550 540 513 q 567 636 567 588 q 567 637 567 636 q 567 639 567 638 q 567 640 567 639 q 567 642 567 640 q 567 642 567 642 q 567 643 567 642 q 567 644 567 643 q 567 646 567 644 l 567 646 l 567 646 z "}," ":{"ha":836,"x_min":0,"x_max":0,"o":""},"!":{"ha":836,"x_min":306,"x_max":529,"o":"m 306 75 q 306 75 306 75 q 306 75 306 75 q 306 75 306 75 q 306 76 306 75 q 306 76 306 76 q 306 76 306 76 q 306 76 306 76 q 306 76 306 76 q 314 124 306 104 q 339 158 322 144 q 374 179 356 172 q 414 186 393 186 q 414 186 414 186 q 415 186 414 186 q 415 186 415 186 q 415 186 415 186 q 416 186 415 186 q 418 186 417 186 q 458 179 439 186 q 494 158 476 172 q 520 124 511 144 q 529 75 529 103 q 519 28 528 49 q 494 -3 511 8 q 459 -24 478 -17 q 421 -31 440 -31 q 419 -31 419 -31 q 418 -31 418 -31 q 418 -31 418 -31 q 418 -31 418 -31 q 417 -31 417 -31 q 417 -31 417 -31 q 376 -24 396 -31 q 340 -4 357 -17 q 314 28 322 7 q 306 75 306 49 l 306 75 l 306 75 m 357 599 q 355 610 356 604 q 354 621 354 615 q 352 631 353 625 q 350 642 351 636 q 347 663 349 653 q 342 685 344 674 q 340 690 340 688 q 339 693 339 692 q 339 696 339 694 q 339 699 339 697 q 338 701 338 700 q 338 704 338 703 q 329 742 333 724 q 322 779 325 761 q 317 818 318 799 q 315 857 315 838 q 315 860 315 858 q 315 863 315 861 q 315 864 315 863 q 315 867 315 865 q 315 872 315 869 q 315 878 315 875 q 324 919 317 900 q 346 957 332 939 q 377 983 360 974 q 417 992 394 992 q 419 992 418 992 q 422 992 421 992 q 424 992 422 992 q 426 992 425 992 q 428 992 428 992 q 431 992 429 992 q 433 990 432 990 q 435 990 433 990 q 471 978 456 988 q 496 951 486 968 q 512 917 506 935 q 519 879 518 899 q 519 876 519 878 q 521 874 519 875 q 521 869 521 871 q 521 867 521 868 q 521 860 521 864 q 521 854 521 857 q 521 852 521 853 q 521 851 521 851 q 521 849 521 850 q 521 847 521 849 q 521 844 521 846 q 521 842 521 843 q 517 806 519 824 q 513 772 515 789 q 509 756 511 764 q 506 739 507 747 q 501 721 503 729 q 499 704 500 713 q 499 704 499 704 q 499 704 499 704 q 499 703 499 703 q 499 703 499 703 q 499 703 499 703 q 499 703 499 703 q 499 701 499 701 q 499 701 499 701 q 490 666 494 683 q 483 632 486 649 q 478 597 481 614 q 476 561 476 579 q 474 525 475 543 q 472 490 472 507 q 472 457 472 474 q 474 424 472 440 q 474 413 474 418 q 474 401 474 407 q 474 390 474 396 q 474 379 474 385 q 474 363 474 371 q 474 349 474 356 q 474 333 474 340 q 474 318 474 325 q 474 318 474 318 q 474 318 474 318 q 474 317 474 317 q 474 317 474 317 q 474 317 474 317 q 474 317 474 317 q 474 317 474 317 q 474 317 474 317 q 474 315 474 315 q 474 315 474 315 q 474 315 474 315 q 474 315 474 315 q 474 313 474 314 q 474 311 474 313 q 474 309 474 310 q 474 307 474 308 q 469 289 472 297 q 460 272 465 281 q 447 259 454 264 q 429 253 440 254 q 427 253 428 253 q 425 253 426 253 q 422 253 424 253 q 419 253 421 253 q 399 256 408 253 q 381 267 389 260 q 368 284 372 274 q 363 307 364 294 q 363 310 363 308 q 363 313 363 311 q 363 315 363 314 q 363 317 363 315 q 363 317 363 317 q 363 319 363 318 q 361 322 361 321 q 361 325 361 324 q 361 327 361 326 q 361 329 361 328 q 361 330 361 329 q 361 332 361 331 q 361 345 361 339 q 361 357 361 351 q 362 370 361 364 q 364 383 363 376 q 364 397 364 390 q 364 408 364 403 q 364 415 364 411 q 365 421 364 418 q 365 427 365 424 q 365 433 365 431 q 365 440 365 436 q 365 447 365 443 q 365 453 365 450 q 365 461 365 457 q 364 475 364 468 q 364 489 364 482 q 364 503 364 496 q 364 517 364 510 q 363 527 364 522 q 363 538 363 532 q 361 547 361 542 q 361 557 361 551 q 359 578 360 568 q 357 599 358 589 l 357 599 l 357 599 z "},"\"":{"ha":836,"x_min":163,"x_max":675,"o":"m 328 928 q 346 914 339 922 q 358 897 353 906 q 365 878 363 888 q 368 858 368 869 q 368 856 368 857 q 368 854 368 856 q 368 852 368 853 q 368 851 368 851 q 367 849 367 850 q 367 847 367 849 q 367 845 367 846 q 367 844 367 844 q 365 833 365 839 q 363 819 364 826 q 360 808 361 814 q 358 797 360 803 q 358 793 358 796 q 357 789 357 790 q 355 784 356 786 q 354 779 354 782 q 352 771 353 775 q 351 763 351 767 q 348 743 350 753 q 344 724 346 733 q 342 704 343 714 q 339 685 340 694 q 336 665 338 675 q 333 646 335 656 q 331 626 332 636 q 331 607 331 617 q 331 605 331 606 q 331 604 331 604 q 331 602 331 603 q 331 600 331 601 q 331 598 331 599 q 331 597 331 597 q 331 595 331 596 q 331 593 331 594 q 331 591 331 592 q 331 590 331 590 q 331 590 331 590 q 331 590 331 590 q 331 585 331 588 q 331 579 331 582 q 331 572 331 575 q 331 567 331 569 q 331 560 331 564 q 331 554 331 557 q 329 548 329 551 q 329 542 329 544 q 324 510 328 525 q 314 482 321 496 q 297 462 308 468 q 269 457 286 456 q 267 457 268 457 q 265 457 267 457 q 263 457 264 457 q 263 457 263 457 q 260 457 261 457 q 258 457 258 457 q 258 457 258 457 q 257 458 257 457 q 255 458 256 458 q 254 458 254 458 q 228 468 239 461 q 213 488 218 475 q 203 512 207 499 q 200 539 200 525 q 199 548 199 543 q 199 558 199 553 q 199 567 199 563 q 199 578 199 572 q 199 578 199 578 q 199 578 199 578 q 199 578 199 578 q 199 581 199 579 q 197 628 199 604 q 190 676 194 653 q 187 701 189 689 q 183 725 185 713 q 179 748 181 736 q 175 772 178 760 q 173 781 174 776 q 172 789 172 785 q 170 796 171 792 q 169 804 169 800 q 167 813 168 808 q 167 821 167 817 q 165 828 165 824 q 164 836 164 832 q 163 839 164 838 q 163 842 163 840 q 163 843 163 842 q 163 846 163 844 q 163 849 163 847 q 163 851 163 850 q 163 853 163 851 q 163 856 163 854 q 170 894 163 878 q 193 921 178 911 q 225 937 208 932 q 260 943 242 942 q 260 943 260 943 q 261 943 260 943 q 261 943 261 943 q 261 943 261 943 q 262 943 261 943 q 264 943 263 943 q 281 942 272 943 q 297 939 289 942 q 313 934 306 938 q 328 928 321 931 l 328 928 l 328 928 m 633 928 q 651 915 644 922 q 664 897 658 907 q 672 878 669 888 q 675 857 675 868 q 675 855 675 856 q 675 854 675 854 q 675 852 675 853 q 675 851 675 851 q 674 849 674 850 q 674 847 674 847 q 674 845 674 846 q 674 844 674 844 q 672 833 672 839 q 671 822 671 828 q 669 811 669 817 q 667 800 668 806 q 665 789 665 794 q 663 779 664 783 q 660 768 661 774 q 658 757 660 763 q 658 754 658 756 q 658 753 658 753 q 657 750 657 751 q 657 747 657 749 q 656 744 656 746 q 656 739 656 742 q 652 722 654 731 q 649 707 650 714 q 646 690 647 699 q 643 674 644 682 q 640 640 642 657 q 638 607 638 624 q 638 603 638 606 q 638 599 638 601 q 638 594 638 597 q 638 588 638 590 q 638 585 638 586 q 638 585 638 585 q 638 583 638 583 q 638 582 638 582 q 638 576 638 579 q 638 571 638 574 q 636 565 636 568 q 636 560 636 563 q 636 554 636 557 q 636 549 636 551 q 635 543 635 546 q 635 538 635 540 q 630 508 633 522 q 619 481 626 493 q 603 462 614 468 q 575 457 592 456 q 573 457 574 457 q 572 457 572 457 q 570 457 571 457 q 568 457 569 457 q 566 457 567 457 q 565 457 565 457 q 563 458 564 457 q 561 458 563 458 q 535 468 546 461 q 519 488 525 475 q 510 512 514 499 q 507 539 507 525 q 506 548 506 543 q 506 558 506 553 q 506 567 506 563 q 506 578 506 572 q 506 578 506 578 q 506 578 506 578 q 506 578 506 578 q 506 581 506 579 q 504 628 506 604 q 499 676 503 653 q 490 724 494 700 q 482 772 486 749 q 482 772 482 772 q 482 774 482 772 q 481 774 481 774 q 481 775 481 775 q 481 776 481 775 q 481 779 481 778 q 478 793 479 786 q 475 807 476 800 q 472 822 474 814 q 469 836 471 829 q 469 837 469 836 q 469 839 469 838 q 468 840 468 839 q 468 840 468 840 q 468 843 468 842 q 468 846 468 844 q 468 848 468 847 q 468 850 468 849 q 468 853 468 851 q 468 856 468 854 q 476 893 468 876 q 499 919 483 910 q 532 936 514 931 q 568 943 550 942 q 568 943 568 943 q 569 943 568 943 q 569 943 569 943 q 569 943 569 943 q 570 943 569 943 q 572 943 571 943 q 581 943 576 943 q 589 942 585 943 q 596 941 592 942 q 604 939 600 940 q 619 934 611 938 q 633 928 626 931 l 633 928 l 633 928 z "},"#":{"ha":836,"x_min":101,"x_max":735,"o":"m 578 951 q 578 951 578 951 q 578 953 578 951 q 578 953 578 953 q 578 953 578 953 q 578 953 578 953 q 579 956 578 954 q 585 974 582 965 q 594 992 589 983 q 608 1004 600 1000 q 628 1008 617 1008 q 631 1008 629 1008 q 633 1008 632 1008 q 634 1008 633 1008 q 636 1008 635 1008 q 637 1007 636 1007 q 639 1007 638 1007 q 655 1002 649 1006 q 665 993 661 999 q 670 981 668 988 q 672 967 672 974 q 672 964 672 965 q 672 961 672 963 q 672 959 672 960 q 672 958 672 958 q 671 956 671 957 q 671 956 671 956 q 671 953 671 954 q 671 951 671 953 q 669 949 669 950 q 669 949 669 949 q 669 946 669 947 q 669 943 669 944 l 599 622 q 604 622 601 622 q 611 622 607 622 q 615 622 613 622 q 618 624 617 622 q 623 624 621 624 q 626 624 625 624 q 633 624 629 624 q 642 624 638 624 q 647 624 644 624 q 651 625 649 624 q 656 625 653 625 q 661 625 658 625 q 661 625 661 625 q 663 625 661 625 q 663 625 663 625 q 663 625 663 625 q 663 625 663 625 q 665 625 664 625 q 690 623 678 625 q 713 618 703 621 q 729 607 724 614 q 735 589 735 600 q 735 586 735 588 q 735 583 735 585 q 733 581 733 582 q 733 578 733 579 q 731 573 732 576 q 729 567 731 569 q 717 551 725 557 q 699 542 710 544 q 675 537 688 539 q 650 535 663 535 q 640 535 644 535 q 629 535 635 535 q 619 535 624 535 q 611 538 615 536 q 601 538 606 538 q 593 538 597 538 q 590 538 592 538 q 586 539 588 538 q 583 539 585 539 q 581 539 582 539 l 542 358 q 547 358 544 358 q 554 358 550 358 q 558 358 556 358 q 561 360 560 358 q 566 360 564 360 q 569 360 568 360 q 578 360 574 360 q 586 360 582 360 q 591 360 589 360 q 596 361 593 360 q 600 361 597 361 q 606 361 603 361 q 632 359 619 361 q 656 354 644 357 q 672 342 667 350 q 676 324 676 335 q 676 321 676 322 q 676 319 676 319 q 675 317 675 318 q 675 314 675 315 q 674 309 675 313 q 672 303 674 306 q 661 288 668 294 q 643 279 654 282 q 622 274 633 276 q 597 272 610 272 q 594 272 596 272 q 592 272 593 272 q 590 272 590 272 q 588 272 589 272 q 577 272 582 272 q 568 272 572 272 q 563 272 565 272 q 558 274 561 272 q 555 274 557 274 q 550 274 553 274 q 542 274 546 274 q 535 274 538 274 q 531 274 533 274 q 528 275 529 274 q 526 275 526 275 q 524 275 525 275 l 450 -51 q 443 -70 447 -61 q 432 -85 439 -79 q 420 -96 426 -92 q 407 -101 414 -100 q 405 -101 406 -101 q 404 -103 404 -101 q 402 -103 403 -103 q 401 -103 401 -103 q 399 -103 400 -103 q 397 -103 399 -103 q 383 -100 389 -103 q 369 -90 376 -97 q 361 -76 364 -85 q 358 -56 358 -67 q 358 -52 358 -54 q 358 -47 358 -50 q 358 -44 358 -46 q 360 -39 358 -42 l 578 951 l 578 951 l 578 951 m 263 -36 q 256 -55 260 -46 q 247 -72 251 -64 q 233 -85 242 -81 q 213 -90 225 -90 q 210 -90 211 -90 q 210 -90 210 -90 q 208 -90 208 -90 q 207 -90 207 -90 q 188 -85 196 -89 q 176 -75 181 -82 q 170 -62 172 -69 q 168 -46 168 -54 q 168 -40 168 -43 q 168 -35 168 -37 q 168 -32 168 -33 q 169 -31 168 -31 q 170 -28 169 -29 q 171 -25 171 -26 l 238 275 q 235 275 236 275 q 232 275 233 275 q 228 274 229 274 q 225 274 226 274 q 217 274 221 274 q 208 274 213 274 q 204 273 207 274 q 200 272 201 272 q 195 271 197 271 q 190 271 193 271 q 180 271 185 271 q 171 271 175 271 q 145 272 157 271 q 122 278 133 274 q 107 290 113 282 q 103 311 101 299 q 103 313 103 313 q 103 314 103 314 q 103 315 103 314 q 103 317 103 315 q 112 340 106 331 q 131 353 118 349 q 155 360 142 357 q 182 363 168 363 q 188 363 185 363 q 193 363 190 363 q 197 361 194 361 q 203 361 200 361 q 212 361 207 361 q 222 361 217 361 q 227 360 225 361 q 232 360 229 360 q 236 358 233 358 q 240 358 239 358 q 244 358 243 358 q 249 358 246 358 q 252 358 250 358 q 256 358 254 358 l 294 539 q 292 539 293 539 q 289 539 290 539 q 285 538 286 538 q 282 538 283 538 q 278 538 281 538 q 275 538 276 538 q 271 538 272 538 q 267 538 269 538 q 263 537 265 538 q 260 536 261 536 q 256 535 257 535 q 251 535 254 535 q 248 535 250 535 q 244 535 246 535 q 240 535 242 535 q 236 535 239 535 q 234 535 235 535 q 232 535 233 535 q 230 535 231 535 q 229 535 229 535 q 203 536 215 535 q 181 542 192 538 q 165 554 171 546 q 161 575 160 563 q 161 577 161 576 q 161 578 161 578 q 161 578 161 578 q 161 581 161 579 q 169 603 163 594 q 188 617 175 613 q 214 623 200 621 q 242 625 228 625 q 247 625 244 625 q 251 625 249 625 q 256 624 253 624 q 261 624 258 624 q 270 624 265 624 q 281 624 275 624 q 285 624 283 624 q 289 624 288 624 q 294 622 292 622 q 297 622 296 622 q 301 622 300 622 q 306 622 303 622 q 309 622 307 622 q 313 622 311 622 l 389 965 q 396 986 392 976 q 406 1001 400 996 q 419 1012 413 1008 q 432 1017 425 1015 q 433 1017 432 1017 q 435 1018 433 1017 q 435 1018 435 1018 q 436 1018 436 1018 q 439 1018 438 1018 q 442 1018 440 1018 q 456 1015 449 1018 q 468 1007 463 1013 q 478 992 475 1001 q 481 972 481 983 q 481 970 481 971 q 481 967 481 969 q 481 964 481 965 q 481 961 481 963 q 481 960 481 961 q 481 960 481 960 q 479 958 479 958 q 479 958 479 958 q 479 956 479 957 q 479 956 479 956 l 263 -36 l 263 -36 l 263 -36 z "},"$":{"ha":836,"x_min":149,"x_max":724,"o":"m 386 13 q 377 13 382 13 q 368 14 372 13 q 358 14 363 14 q 350 14 354 14 q 331 15 340 14 q 313 17 322 15 q 279 22 296 19 q 246 28 263 24 q 215 36 229 31 q 185 49 200 42 q 167 63 175 53 q 156 86 160 72 q 150 115 151 100 q 149 144 149 129 q 149 145 149 144 q 149 147 149 146 q 149 148 149 147 q 149 150 149 149 q 149 156 149 153 q 149 164 149 160 q 149 170 149 167 q 149 176 149 174 q 149 190 149 183 q 151 201 150 196 q 151 212 151 207 q 151 222 151 217 q 151 227 151 225 q 153 231 151 229 q 153 235 153 233 q 153 239 153 238 q 153 239 153 239 q 153 240 153 239 q 153 240 153 240 q 153 240 153 240 q 153 241 153 240 q 153 243 153 242 q 153 259 153 251 q 156 272 154 267 q 163 284 157 279 q 178 293 168 289 q 180 293 179 293 q 182 294 181 293 q 184 294 183 294 q 186 294 185 294 q 188 294 188 294 q 190 296 189 294 q 192 296 192 296 q 194 296 193 296 q 199 296 197 296 q 204 294 201 296 q 208 294 206 294 q 213 292 211 293 q 221 288 217 290 q 228 281 225 285 q 233 272 231 276 q 236 261 235 268 q 238 249 238 256 q 240 235 239 242 q 241 224 240 229 q 243 213 242 219 q 244 207 243 210 q 244 201 244 204 q 247 194 246 197 q 249 189 247 192 q 257 161 251 175 q 272 135 263 147 q 297 113 282 122 q 335 97 313 104 q 349 94 342 96 q 363 90 356 92 q 377 88 369 89 q 393 88 385 88 q 398 88 396 88 q 401 88 400 88 q 407 88 404 88 q 413 88 410 88 q 413 88 413 88 q 415 88 414 88 q 416 88 415 88 q 418 88 417 88 q 476 94 447 88 q 531 115 504 101 q 574 150 557 128 q 600 203 592 172 q 603 217 603 210 q 606 231 604 225 q 606 237 606 233 q 607 243 606 240 q 607 249 607 246 q 607 256 607 253 q 598 303 607 283 q 569 338 589 324 q 528 363 551 350 q 479 385 506 375 q 474 387 476 386 q 468 389 471 388 q 461 391 464 390 q 456 393 458 392 q 450 396 453 394 q 444 399 447 397 q 438 401 440 400 q 432 404 435 403 q 430 404 431 404 q 429 404 429 404 q 429 404 429 404 q 429 406 429 404 q 428 406 428 406 q 428 406 428 406 q 419 408 424 407 q 411 413 415 410 q 401 416 406 414 q 393 419 397 418 q 376 426 385 422 q 361 432 368 429 q 288 467 322 447 q 225 508 253 486 q 181 570 196 531 q 167 665 167 610 q 183 759 167 718 q 229 826 199 800 q 300 874 261 854 q 386 906 339 893 q 386 908 386 907 q 386 913 386 910 q 385 916 385 914 q 385 919 385 918 q 385 926 385 922 q 385 935 385 931 q 385 938 385 936 q 385 940 385 939 q 383 943 383 942 q 383 946 383 944 q 383 951 383 949 q 383 957 383 954 q 383 960 383 958 q 383 963 383 961 q 383 965 383 964 q 383 968 383 967 q 385 994 383 982 q 392 1017 388 1007 q 406 1033 396 1028 q 432 1040 417 1039 q 432 1040 432 1040 q 432 1040 432 1040 q 432 1040 432 1040 q 433 1040 432 1040 q 456 1036 447 1040 q 469 1021 465 1032 q 476 999 474 1011 q 478 972 478 986 q 478 969 478 971 q 478 964 478 967 q 478 960 478 963 q 478 956 478 958 q 478 953 478 954 q 478 951 478 953 q 476 949 476 950 q 476 947 476 949 q 476 944 476 946 q 476 939 476 942 q 476 935 476 938 q 476 931 476 933 q 475 927 475 929 q 475 922 475 925 q 475 915 475 918 q 475 908 475 911 q 483 908 479 908 q 493 908 488 908 q 502 907 497 907 q 513 907 507 907 q 534 905 524 906 q 556 901 544 904 q 598 891 578 897 q 636 874 618 885 q 666 848 656 864 q 678 810 676 832 q 678 803 678 807 q 679 797 678 800 q 679 791 679 794 q 679 785 679 788 q 679 773 679 779 q 679 760 679 767 q 679 756 679 758 q 679 751 679 754 q 679 748 679 750 q 679 743 679 746 q 679 740 679 742 q 679 735 679 738 q 679 732 679 733 q 679 731 679 731 q 680 728 679 729 q 681 725 681 726 q 681 722 681 724 q 681 721 681 721 q 681 718 681 719 q 681 715 681 717 q 681 712 681 714 q 681 707 681 710 q 680 693 681 700 q 676 679 679 686 q 672 666 675 672 q 661 656 668 660 q 658 653 660 654 q 654 651 656 653 q 650 649 651 650 q 646 649 649 649 q 638 647 642 647 q 629 647 633 647 q 621 647 625 647 q 614 649 617 647 q 606 652 610 650 q 600 656 603 654 q 590 665 594 660 q 583 678 586 671 q 581 693 582 685 q 581 710 581 701 q 581 710 581 710 q 581 713 581 711 q 581 715 581 714 q 581 717 581 715 q 581 723 581 719 q 581 731 581 726 q 581 738 581 735 q 581 744 581 742 q 569 788 579 771 q 542 815 560 806 q 504 830 524 825 q 461 835 485 835 q 456 835 458 835 q 450 835 453 835 q 447 835 449 835 q 446 835 446 835 q 443 833 444 833 q 440 833 442 833 q 384 820 411 831 q 332 792 357 810 q 295 748 307 774 q 283 690 283 722 q 296 633 283 658 q 333 590 308 608 q 386 557 358 572 q 444 531 414 542 q 467 522 456 526 q 490 514 479 518 q 513 506 501 510 q 535 499 525 501 q 615 462 579 483 q 675 413 650 440 q 712 350 700 385 q 724 275 724 315 q 723 256 724 265 q 721 236 722 247 q 717 216 719 226 q 713 194 715 206 q 678 123 701 154 q 622 68 656 92 q 551 33 588 46 q 475 17 515 19 l 475 -129 q 475 -131 475 -129 q 475 -133 475 -132 q 475 -138 475 -136 q 475 -142 475 -140 q 471 -160 474 -151 q 464 -178 468 -169 q 451 -190 460 -186 q 431 -194 443 -194 q 409 -190 418 -194 q 396 -176 400 -185 q 388 -157 390 -167 q 386 -136 386 -147 q 386 -136 386 -136 q 386 -136 386 -136 q 386 -135 386 -135 q 386 -135 386 -135 q 386 -135 386 -135 q 386 -135 386 -135 q 386 -133 386 -133 q 386 -133 386 -133 q 386 -131 386 -132 q 386 -131 386 -131 q 386 -131 386 -131 q 386 -131 386 -131 l 386 13 l 386 13 l 386 13 z "},"%":{"ha":836,"x_min":113,"x_max":717,"o":"m 219 0 q 213 -7 217 -3 q 206 -15 210 -11 q 198 -23 201 -19 q 192 -29 194 -26 q 184 -33 188 -32 q 178 -36 181 -35 q 170 -38 174 -37 q 164 -39 167 -39 q 151 -36 157 -39 q 140 -29 144 -33 q 134 -17 136 -24 q 132 -1 132 -10 q 133 6 132 1 q 135 15 133 10 q 140 26 138 21 q 144 38 142 32 l 615 903 q 622 915 618 910 q 631 924 626 919 q 635 928 633 926 q 640 932 638 929 q 644 935 642 933 q 649 938 647 936 q 654 941 651 940 q 660 943 657 942 q 663 943 661 943 q 665 944 664 943 q 668 944 667 944 q 671 944 669 944 q 683 942 678 944 q 693 935 689 939 q 700 922 697 929 q 703 907 703 915 q 702 898 703 903 q 700 888 701 893 q 696 877 699 882 q 690 865 693 872 l 219 0 l 219 0 l 219 0 m 393 125 q 405 189 393 160 q 442 240 417 218 q 495 276 467 264 q 557 288 524 288 q 560 288 558 288 q 564 288 561 288 q 567 286 565 286 q 571 286 569 286 q 575 286 574 286 q 579 286 576 286 q 583 285 581 285 q 586 285 585 285 q 638 265 614 279 q 681 228 663 251 q 708 179 700 206 q 717 125 717 153 q 717 122 717 124 q 717 117 717 119 q 717 113 717 115 q 717 110 717 111 q 717 108 717 108 q 717 106 717 107 q 715 103 715 104 q 715 101 715 103 q 715 99 715 100 q 715 97 715 99 q 714 95 714 96 q 714 93 714 94 q 694 38 708 61 q 656 0 679 14 q 610 -23 633 -15 q 561 -32 586 -31 q 559 -32 560 -32 q 558 -32 558 -32 q 556 -32 557 -32 q 556 -32 556 -32 q 497 -22 525 -32 q 443 7 468 -11 q 404 56 417 26 q 393 125 392 86 l 393 125 l 393 125 m 478 125 q 483 91 478 106 q 501 67 489 76 q 528 53 514 57 q 556 49 542 49 q 583 53 571 49 q 608 68 596 58 q 626 92 619 78 q 632 125 632 107 q 626 158 632 144 q 607 182 619 172 q 581 197 594 192 q 553 201 568 201 q 526 195 539 200 q 501 181 513 190 q 483 158 489 171 q 478 125 478 144 l 478 125 l 478 125 m 417 863 q 419 857 418 860 q 422 853 421 854 q 424 847 422 850 q 426 842 425 844 q 428 836 428 839 q 431 832 429 833 q 431 827 431 829 q 433 822 432 825 q 435 811 435 817 q 438 800 436 806 q 438 794 438 797 q 439 790 438 792 q 439 785 439 788 q 439 781 439 783 q 426 723 438 750 q 393 672 415 696 q 341 638 371 650 q 275 626 311 626 q 204 638 235 626 q 154 675 174 650 q 123 727 133 700 q 113 785 113 754 q 113 785 113 785 q 113 786 113 785 q 113 786 113 786 q 113 786 113 786 q 113 787 113 786 q 113 789 113 788 q 113 789 113 789 q 113 790 113 789 q 113 790 113 790 q 113 790 113 790 q 113 791 113 790 q 113 793 113 792 q 123 850 113 822 q 154 903 133 878 q 204 940 174 928 q 274 953 235 953 q 279 953 276 953 q 285 953 282 953 q 289 951 286 951 q 294 951 292 951 q 306 951 300 951 q 317 949 311 950 l 463 949 q 483 946 474 949 q 499 939 493 943 q 509 927 506 935 q 513 908 513 919 q 513 906 513 907 q 513 906 513 906 q 513 903 513 904 q 513 901 513 903 q 513 899 513 900 q 513 899 513 899 q 511 897 511 897 q 511 896 511 896 q 504 877 510 885 q 490 867 499 869 q 473 863 482 864 q 454 861 464 861 q 449 861 451 861 q 443 861 446 861 q 440 861 442 861 q 439 861 439 861 q 436 862 438 861 q 433 863 435 863 q 430 863 432 863 q 425 863 428 863 q 422 863 424 863 q 417 863 419 863 l 417 863 l 417 863 m 197 790 q 203 756 197 771 q 222 732 210 742 q 247 717 233 722 q 275 713 261 713 q 303 717 290 713 q 328 732 315 722 q 347 756 340 742 q 353 790 353 771 q 347 823 353 810 q 329 846 340 836 q 304 860 317 856 q 278 867 292 865 q 276 867 276 867 q 275 867 275 867 q 275 867 275 867 q 275 867 275 867 q 274 867 274 867 q 274 867 274 867 q 246 860 260 865 q 221 846 232 856 q 203 823 208 836 q 197 790 197 810 l 197 790 l 197 790 z "},"&":{"ha":836,"x_min":104,"x_max":733,"o":"m 518 81 q 488 41 504 58 q 454 10 472 24 q 413 -10 436 -3 q 363 -19 390 -18 q 360 -19 361 -19 q 358 -19 360 -19 q 356 -19 357 -19 q 356 -19 356 -19 q 353 -19 354 -19 q 351 -19 351 -19 q 349 -19 350 -19 q 347 -19 349 -19 q 297 -15 321 -19 q 251 0 274 -10 q 210 23 229 8 q 175 58 190 38 q 149 95 161 76 q 129 132 138 114 q 122 151 125 142 q 115 171 118 161 q 110 189 113 179 q 107 208 108 199 q 105 217 106 213 q 104 228 104 222 q 104 237 104 232 q 104 247 104 242 q 115 319 104 283 q 146 388 125 354 q 196 449 167 421 q 264 499 225 476 l 192 625 q 188 633 190 629 q 183 642 186 638 q 180 649 182 644 q 175 657 178 653 q 172 665 174 661 q 168 674 169 669 q 165 681 167 676 q 163 689 164 685 q 158 703 160 696 q 154 719 156 711 q 152 736 153 728 q 151 753 151 744 q 153 773 151 763 q 156 793 154 783 q 163 815 158 804 q 172 836 167 825 q 206 883 186 864 q 250 914 225 901 q 302 931 275 925 q 358 938 329 938 q 417 931 390 938 q 467 913 444 925 q 506 888 490 900 q 529 860 521 875 q 533 851 532 856 q 535 844 533 847 q 537 837 536 840 q 538 831 538 833 q 535 817 538 824 q 528 806 532 811 q 515 796 522 800 q 496 789 507 792 q 494 788 494 788 q 490 788 493 788 q 488 788 489 788 q 485 788 486 788 q 472 790 479 788 q 457 796 464 792 q 442 805 450 800 q 428 815 435 810 q 419 821 424 818 q 411 825 415 824 q 401 831 406 828 q 393 835 397 833 q 374 841 383 839 q 353 843 364 843 q 350 843 351 843 q 347 843 349 843 q 343 842 344 842 q 340 842 342 842 q 333 841 336 842 q 326 839 329 840 q 299 825 311 833 q 279 804 288 817 q 267 777 271 792 q 264 747 264 763 q 267 719 264 733 q 276 690 271 704 q 290 663 283 676 q 306 638 297 650 q 308 634 307 636 q 311 629 310 632 q 313 626 311 628 q 315 621 314 624 q 318 617 317 619 q 321 614 319 615 q 322 610 321 611 q 325 607 324 608 l 515 283 q 518 294 517 289 q 521 306 519 300 q 523 311 522 308 q 525 318 524 314 q 526 324 525 321 q 528 329 526 326 q 531 346 529 338 q 533 363 532 354 q 537 380 536 371 q 539 399 538 389 q 539 404 539 401 q 539 410 539 407 q 540 415 539 413 q 542 421 540 418 q 542 425 542 424 q 543 429 542 426 q 544 433 543 431 q 546 436 544 435 q 549 444 547 440 q 553 450 551 447 q 561 456 557 454 q 569 460 565 458 q 578 462 574 461 q 589 463 583 463 q 592 463 590 463 q 594 463 593 463 q 596 463 594 463 q 599 463 597 463 q 604 463 601 463 q 610 463 607 463 q 612 463 611 463 q 614 463 613 463 q 615 463 614 463 q 617 463 615 463 q 622 463 619 463 q 625 463 624 463 q 627 463 626 463 q 629 463 628 463 q 630 463 629 463 q 632 463 631 463 q 637 463 635 463 q 640 463 639 463 q 647 463 643 463 q 654 463 650 463 q 660 461 657 461 q 667 461 664 461 q 673 460 669 461 q 681 458 676 460 q 687 458 683 458 q 693 456 690 457 q 703 449 699 453 q 708 439 707 444 q 710 433 710 436 q 711 428 711 431 q 713 421 713 424 q 713 415 713 418 q 711 402 713 408 q 707 390 710 396 q 700 381 704 385 q 690 374 696 376 q 684 372 688 372 q 678 371 681 371 q 670 371 674 371 q 664 371 667 371 q 661 371 663 371 q 660 371 660 371 q 657 371 658 371 q 654 371 656 371 q 651 371 653 371 q 646 372 649 371 q 641 372 643 372 q 636 372 639 372 q 633 372 635 372 q 628 372 631 372 q 619 328 624 350 q 608 286 614 307 q 602 266 606 276 q 596 246 599 256 q 588 225 592 235 q 581 204 585 215 q 578 201 579 203 q 578 197 578 199 q 576 193 576 194 q 575 189 575 192 q 573 185 574 188 q 572 181 572 183 q 570 177 571 179 q 568 172 569 175 q 573 165 571 169 q 578 156 575 161 q 583 144 581 150 q 590 133 586 139 q 602 117 596 125 q 614 103 608 110 q 628 92 621 96 q 642 89 635 89 q 648 90 644 89 q 654 93 651 92 q 660 99 657 96 q 667 106 664 101 q 667 108 667 107 q 669 110 668 108 q 670 110 669 110 q 672 113 671 111 q 677 115 675 114 q 681 118 679 117 q 681 118 681 118 q 683 119 682 118 q 684 119 683 119 q 686 119 685 119 q 688 119 688 119 q 690 121 689 119 q 691 121 690 121 q 693 121 692 121 q 707 115 700 119 q 719 104 714 111 q 729 89 726 97 q 733 72 732 81 q 733 72 733 72 q 733 72 733 72 q 733 72 733 72 q 733 72 733 72 q 733 71 733 71 q 733 71 733 71 q 733 71 733 71 q 733 71 733 71 q 733 69 733 69 q 733 67 733 68 q 733 65 733 65 q 733 64 733 64 q 723 31 732 46 q 699 0 714 15 q 667 -19 683 -12 q 632 -26 650 -26 q 632 -26 632 -26 q 632 -26 632 -26 q 631 -26 631 -26 q 631 -26 631 -26 q 631 -26 631 -26 q 631 -26 631 -26 q 629 -26 629 -26 q 629 -26 629 -26 q 627 -26 628 -26 q 626 -26 626 -26 q 626 -26 626 -26 q 626 -26 626 -26 q 603 -19 614 -25 q 581 -4 592 -14 q 562 15 571 4 q 544 38 553 25 q 537 49 540 43 q 531 60 533 54 q 524 70 526 65 q 518 81 521 75 l 518 81 l 518 81 m 322 410 q 283 389 300 400 q 254 363 265 378 q 235 328 242 349 q 226 283 229 308 q 226 281 226 282 q 226 278 226 279 q 226 275 226 276 q 226 274 226 274 q 225 271 225 272 q 225 268 225 269 q 225 265 225 267 q 225 263 225 264 q 225 255 225 258 q 225 249 225 251 q 226 242 225 246 q 228 236 226 239 q 235 204 231 219 q 244 174 239 189 q 260 145 251 158 q 279 121 268 132 q 295 108 286 114 q 314 96 304 101 q 335 88 325 90 q 356 86 346 86 q 356 86 356 86 q 357 86 356 86 q 357 86 357 86 q 357 86 357 86 q 358 86 357 86 q 360 86 358 86 q 365 86 363 86 q 368 86 367 86 q 373 86 371 86 q 378 88 375 86 q 383 88 381 88 q 386 90 385 89 q 391 91 389 90 q 394 93 393 92 q 417 107 407 99 q 432 126 426 115 q 444 149 439 138 q 454 174 450 161 q 454 174 454 174 q 456 175 454 174 q 456 176 456 175 q 456 176 456 176 q 456 177 456 176 q 457 179 456 178 q 457 180 457 179 q 457 181 457 181 l 322 410 l 322 410 l 322 410 z "},"'":{"ha":836,"x_min":303,"x_max":529,"o":"m 486 928 q 505 915 497 922 q 518 899 513 907 q 526 878 524 889 q 529 857 529 868 q 529 855 529 856 q 529 853 529 854 q 529 851 529 851 q 529 849 529 850 q 527 835 528 842 q 525 821 526 828 q 523 813 524 817 q 522 807 522 810 q 520 799 521 803 q 518 793 519 796 q 518 791 518 792 q 518 789 518 790 q 517 787 517 788 q 517 785 517 786 q 517 783 517 783 q 517 782 517 782 q 515 780 515 781 q 515 779 515 779 q 508 740 511 760 q 501 701 504 721 q 495 663 497 683 q 492 624 493 643 q 491 618 492 621 q 490 613 490 615 q 490 606 490 608 q 490 600 490 603 q 490 588 490 594 q 490 575 490 582 q 490 572 490 574 q 490 567 490 569 q 490 563 490 565 q 490 558 490 561 q 490 551 490 554 q 490 544 490 547 q 489 537 489 540 q 489 531 489 533 q 488 517 489 524 q 485 504 488 511 q 476 481 482 492 q 460 463 469 471 q 439 451 450 454 q 417 447 428 447 q 414 447 415 447 q 411 447 413 447 q 408 447 410 447 q 406 449 407 447 q 403 449 404 449 q 400 449 401 449 q 397 449 399 449 q 394 451 396 450 q 371 464 381 456 q 357 485 361 472 q 350 510 353 497 q 346 536 347 522 q 346 544 346 540 q 346 553 346 549 q 346 557 346 556 q 346 561 346 558 q 346 565 346 563 q 346 568 346 567 q 346 568 346 568 q 346 569 346 568 q 346 569 346 569 q 346 569 346 569 q 346 570 346 569 q 346 572 346 571 q 343 635 346 604 q 335 697 340 667 q 328 728 332 713 q 322 760 325 743 q 316 790 319 775 q 310 821 313 806 q 308 826 308 824 q 307 829 307 828 q 307 831 307 831 q 307 833 307 832 q 306 835 306 835 q 306 838 306 836 q 305 840 306 839 q 304 843 304 842 q 303 844 303 843 q 303 847 303 846 q 303 853 303 850 q 303 858 303 856 q 312 893 303 878 q 338 918 321 908 q 372 935 354 929 q 411 943 390 942 q 414 943 413 943 q 417 943 415 943 q 419 943 418 943 q 422 943 421 943 q 439 941 431 942 q 456 938 447 940 q 472 933 464 936 q 486 928 479 931 l 486 928 l 486 928 z "},"(":{"ha":836,"x_min":278,"x_max":619,"o":"m 590 835 q 517 725 549 781 q 464 613 486 669 q 431 496 442 554 q 421 378 421 438 q 426 297 421 338 q 440 217 431 257 q 467 137 451 178 q 503 56 482 96 q 524 16 514 35 q 547 -21 535 -3 q 574 -56 560 -39 q 603 -92 588 -74 q 609 -99 606 -94 q 614 -108 613 -103 q 618 -117 617 -112 q 619 -128 619 -122 q 619 -128 619 -128 q 619 -128 619 -128 q 619 -128 619 -128 q 619 -131 619 -129 q 619 -131 619 -131 q 619 -132 619 -131 q 619 -132 619 -132 q 619 -132 619 -132 q 619 -132 619 -132 q 619 -133 619 -132 q 619 -133 619 -133 q 619 -133 619 -133 q 613 -149 618 -142 q 601 -162 608 -157 q 586 -171 594 -168 q 569 -174 578 -174 q 567 -174 568 -174 q 564 -174 565 -174 q 562 -174 563 -174 q 561 -174 561 -174 q 559 -172 560 -172 q 558 -172 558 -172 q 556 -172 557 -172 q 556 -172 556 -172 q 553 -171 554 -171 q 553 -171 553 -171 q 550 -169 551 -169 q 547 -168 549 -168 q 517 -149 532 -160 q 490 -124 503 -137 q 467 -97 478 -110 q 444 -69 456 -83 q 439 -61 442 -65 q 433 -53 436 -57 q 428 -45 431 -49 q 422 -39 425 -42 q 378 26 399 -8 q 340 94 357 60 q 310 169 322 131 q 290 247 297 207 q 288 264 289 256 q 285 281 286 272 q 283 296 283 288 q 281 313 282 304 q 278 329 279 321 q 278 346 278 338 q 278 361 278 353 q 278 378 278 369 q 289 499 278 439 q 322 614 300 558 q 376 724 344 671 q 447 829 407 778 q 453 839 450 833 q 463 850 457 844 q 473 863 467 857 q 485 875 479 869 q 499 890 492 882 q 514 904 506 897 q 531 916 522 911 q 547 925 539 921 q 553 927 550 926 q 560 929 557 928 q 563 929 561 929 q 567 931 564 929 q 569 931 568 931 q 572 931 571 931 q 573 931 572 931 q 575 931 574 931 q 576 929 575 929 q 578 929 576 929 q 583 929 581 929 q 586 929 585 929 q 589 927 588 928 q 592 926 590 926 q 594 926 593 926 q 596 925 594 925 q 597 923 596 924 q 599 922 597 922 q 608 914 604 918 q 614 906 613 910 q 618 897 617 901 q 619 889 619 893 q 619 886 619 888 q 619 885 619 885 q 618 882 618 883 q 618 879 618 881 q 616 876 617 878 q 615 871 615 874 q 613 867 614 869 q 611 863 611 865 q 608 859 610 861 q 606 854 607 857 q 600 846 603 850 q 594 839 597 842 q 592 837 593 838 q 592 836 592 836 q 592 836 592 836 q 592 836 592 836 q 590 835 590 835 q 590 835 590 835 l 590 835 l 590 835 z "},")":{"ha":836,"x_min":217,"x_max":557,"o":"m 244 835 q 242 835 243 835 q 242 838 242 836 q 240 840 240 839 q 239 843 239 842 q 235 849 238 846 q 231 854 233 851 q 227 860 229 857 q 222 868 225 864 q 219 874 221 871 q 218 879 218 876 q 217 885 217 882 q 217 890 217 888 q 218 899 217 894 q 222 907 219 903 q 225 911 224 910 q 228 915 226 913 q 233 919 231 917 q 238 922 235 921 q 240 923 239 922 q 242 925 240 924 q 242 926 242 925 q 244 926 243 926 q 247 927 246 926 q 249 928 247 928 q 249 929 249 929 q 251 929 250 929 q 252 929 251 929 q 254 931 253 929 q 255 931 254 931 q 257 931 256 931 q 259 931 258 931 q 261 932 260 931 q 263 932 263 932 q 265 932 264 932 q 284 928 275 932 q 303 918 293 925 q 321 905 313 913 q 338 889 329 897 q 344 881 340 885 q 351 872 347 876 q 358 865 354 868 q 364 860 361 863 q 445 751 410 808 q 507 633 481 694 q 544 509 532 574 q 557 375 557 444 q 557 367 557 371 q 557 360 557 363 q 556 351 556 356 q 556 343 556 347 q 556 335 556 339 q 556 328 556 331 q 554 319 554 324 q 554 311 554 315 q 554 309 554 310 q 554 308 554 308 q 553 306 553 307 q 553 306 553 306 q 553 303 553 304 q 553 303 553 303 q 553 301 553 301 q 553 299 553 300 q 527 174 546 235 q 476 54 508 113 q 406 -53 446 -3 q 318 -147 367 -104 q 308 -155 313 -151 q 297 -161 303 -158 q 287 -167 292 -164 q 276 -171 282 -169 q 274 -171 275 -171 q 272 -172 274 -171 q 270 -172 271 -172 q 268 -172 269 -172 q 266 -172 267 -172 q 265 -174 265 -172 q 263 -174 264 -174 q 261 -174 263 -174 q 251 -172 256 -174 q 240 -168 246 -171 q 231 -160 235 -165 q 222 -149 226 -156 q 219 -143 221 -146 q 218 -137 218 -140 q 217 -135 218 -136 q 217 -133 217 -133 q 217 -131 217 -132 q 217 -128 217 -129 q 219 -112 217 -119 q 226 -97 221 -104 q 238 -84 232 -90 q 249 -71 243 -78 q 253 -67 251 -69 q 257 -62 254 -65 q 260 -59 258 -61 q 264 -54 263 -57 q 270 -47 267 -50 q 275 -40 274 -43 q 329 44 306 0 q 369 133 353 88 q 385 179 378 157 q 397 225 392 201 q 407 270 403 247 q 413 315 411 293 q 413 323 413 319 q 414 331 413 326 q 414 338 414 333 q 414 346 414 342 q 414 353 414 350 q 415 361 414 357 q 415 368 415 364 q 415 376 415 372 q 404 493 415 435 q 372 610 393 551 q 318 724 350 668 q 244 835 286 781 l 244 835 l 244 835 z "},"*":{"ha":836,"x_min":85,"x_max":753,"o":"m 304 317 q 294 308 299 311 q 285 301 289 304 q 274 297 279 299 q 264 296 269 296 q 258 296 261 296 q 253 297 256 296 q 246 299 249 297 q 240 301 243 300 q 228 308 235 304 q 215 317 222 311 q 200 328 207 322 q 189 342 193 335 q 181 356 183 349 q 179 372 179 364 q 179 378 179 375 q 181 386 179 382 q 181 390 181 389 q 183 394 182 392 q 185 398 185 396 q 188 401 186 400 q 196 408 192 404 q 204 415 200 411 q 212 422 208 418 q 219 428 215 425 q 226 434 222 431 q 233 440 229 438 q 240 447 236 443 q 246 453 243 450 q 252 459 249 456 q 258 465 256 463 q 265 472 261 468 q 271 479 268 475 q 284 492 278 486 q 296 506 290 499 q 309 521 303 513 q 322 539 315 529 q 329 547 325 543 q 339 551 333 550 q 349 555 344 554 q 360 556 354 556 q 371 553 365 556 q 382 549 376 551 q 392 542 388 546 q 399 532 396 538 q 401 528 400 531 q 401 524 401 526 q 401 522 401 522 q 403 519 401 521 q 403 517 403 518 q 403 515 403 517 q 403 513 403 514 q 403 510 403 511 q 401 506 401 507 q 401 503 401 504 q 399 497 400 500 q 397 490 399 493 q 392 480 396 485 q 386 471 389 475 q 383 467 385 469 q 381 463 382 464 q 378 458 379 460 q 375 453 376 456 q 367 442 371 447 q 360 433 363 438 q 355 425 357 429 q 350 417 353 421 q 342 400 346 408 q 333 383 338 392 q 325 367 329 375 q 318 350 321 358 q 316 347 317 349 q 315 342 315 344 q 313 338 314 340 q 311 333 313 336 q 309 330 310 332 q 308 325 308 328 q 306 322 307 324 q 304 317 306 319 l 304 317 l 304 317 m 649 401 q 652 393 651 397 q 654 385 653 389 q 656 377 656 381 q 657 371 657 374 q 654 356 657 363 q 647 342 651 349 q 635 328 642 335 q 621 315 629 322 q 609 308 615 311 q 596 301 603 304 q 584 297 590 299 q 571 296 578 296 q 560 298 565 296 q 550 301 556 300 q 540 307 544 304 q 531 315 535 310 q 514 357 522 336 q 496 397 506 378 q 474 436 486 417 q 450 474 463 456 q 447 480 449 476 q 442 488 444 483 q 439 494 440 490 q 436 501 438 497 q 436 502 436 501 q 436 504 436 503 q 435 506 435 506 q 435 508 435 507 q 435 510 435 510 q 435 513 435 511 q 435 513 435 513 q 435 515 435 514 q 436 526 435 521 q 440 536 438 531 q 449 544 443 540 q 460 551 454 549 q 463 552 461 551 q 465 554 464 553 q 467 555 465 554 q 469 556 468 556 q 472 556 471 556 q 475 557 474 556 q 476 557 475 557 q 479 557 478 557 q 494 554 486 557 q 507 544 501 551 q 519 533 514 539 q 531 519 525 526 q 536 511 533 515 q 542 504 539 507 q 544 501 543 503 q 547 497 546 499 q 549 494 547 496 q 551 492 550 493 q 569 472 560 482 q 589 453 579 463 q 609 435 599 443 q 629 418 619 426 q 634 415 632 417 q 638 410 636 413 q 643 406 640 408 q 649 401 646 404 l 649 401 l 649 401 m 118 617 q 102 626 108 621 q 92 638 96 632 q 86 652 88 644 q 85 668 85 660 q 85 674 85 671 q 85 679 85 676 q 85 685 85 682 q 88 690 86 688 q 88 693 88 692 q 88 696 88 694 q 88 699 88 697 q 90 701 89 700 q 100 722 94 713 q 113 740 106 732 q 129 753 119 749 q 150 757 139 757 q 153 757 151 757 q 156 757 154 757 q 158 757 157 757 q 160 757 158 757 q 160 756 160 756 q 163 756 161 756 q 171 750 167 753 q 181 744 175 747 q 189 739 185 742 q 197 733 193 736 q 214 724 206 728 q 231 715 222 719 q 249 706 240 710 q 268 697 258 701 q 288 689 278 693 q 310 681 299 685 q 315 678 313 679 q 322 675 318 676 q 328 672 325 674 q 336 669 332 671 q 348 663 343 667 q 357 651 353 658 q 363 640 361 646 q 365 626 365 633 q 365 624 365 625 q 365 621 365 622 q 364 618 364 619 q 364 615 364 617 q 363 613 364 614 q 363 611 363 611 q 360 608 361 610 q 360 606 360 607 q 353 595 357 600 q 343 588 349 590 q 333 585 338 586 q 322 583 328 583 q 319 583 321 583 q 318 583 318 583 q 315 583 317 583 q 313 583 314 583 q 308 584 310 583 q 303 586 306 585 q 298 587 300 586 q 293 589 296 588 q 290 589 292 589 q 289 590 289 589 q 286 591 288 590 q 283 592 285 592 q 281 592 282 592 q 279 593 279 592 q 276 594 278 593 q 274 594 275 594 q 269 595 271 594 q 264 597 267 596 q 252 600 258 599 q 240 603 246 601 q 228 605 233 604 q 215 607 222 606 q 203 609 210 608 q 192 610 197 610 q 179 612 185 611 q 167 613 174 613 q 155 613 161 613 q 142 615 149 614 q 136 615 139 615 q 131 617 133 615 q 124 617 126 617 q 118 617 121 617 l 118 617 l 118 617 m 674 754 q 676 754 675 754 q 678 754 676 754 q 678 754 678 754 q 679 756 678 754 q 680 756 679 756 q 682 756 681 756 q 683 756 682 756 q 685 756 683 756 q 687 756 686 756 q 689 756 688 756 q 709 751 700 756 q 725 740 718 747 q 737 722 732 732 q 746 701 742 713 q 748 691 747 696 q 750 682 749 686 q 752 674 751 678 q 753 667 753 669 q 751 651 753 658 q 744 638 749 644 q 734 626 740 632 q 718 615 728 619 q 674 612 696 614 q 629 607 651 610 q 585 599 607 604 q 543 588 564 594 q 541 587 542 588 q 540 586 540 586 q 538 585 539 585 q 536 585 538 585 q 533 585 535 585 q 531 585 532 585 q 527 583 529 583 q 522 583 525 583 q 519 583 521 583 q 517 583 518 583 q 503 585 510 583 q 492 590 497 586 q 481 599 486 593 q 474 614 476 606 q 472 619 472 617 q 471 622 471 621 q 471 627 471 625 q 471 631 471 629 q 475 647 471 640 q 488 660 479 654 q 503 668 494 664 q 521 676 511 672 q 526 677 524 676 q 532 679 529 678 q 538 681 535 681 q 543 683 540 682 q 576 699 560 690 q 610 717 593 707 q 642 735 626 725 q 674 754 658 744 l 674 754 l 674 754 m 346 888 q 353 913 347 903 q 369 928 360 922 q 392 938 381 935 q 418 940 404 940 q 444 938 432 940 q 467 928 457 935 q 484 913 478 922 q 492 888 490 903 q 481 848 486 868 q 472 807 476 828 q 466 766 468 786 q 464 726 464 746 q 464 724 464 725 q 464 722 464 722 q 464 719 464 721 q 464 717 464 718 q 464 712 464 714 q 464 707 464 710 q 460 688 463 697 q 454 672 458 679 q 444 660 450 664 q 426 654 438 656 q 424 654 425 654 q 424 654 424 654 q 422 654 422 654 q 421 654 421 654 q 419 653 419 653 q 418 653 418 653 q 416 653 417 653 q 415 653 415 653 q 394 658 403 653 q 382 672 386 663 q 376 691 378 681 q 374 713 374 701 q 374 715 374 714 q 374 718 374 717 q 372 719 372 718 q 372 722 372 721 q 372 728 372 725 q 372 733 372 731 q 372 734 372 733 q 372 736 372 735 q 372 739 372 738 q 372 742 372 740 q 372 754 372 749 q 371 767 372 760 q 370 778 371 772 q 368 790 369 785 q 365 803 367 797 q 364 815 364 808 q 361 827 363 821 q 358 839 360 833 q 356 844 357 842 q 356 851 356 847 q 353 857 354 854 q 351 863 353 860 q 349 876 350 869 q 346 888 347 882 l 346 888 l 346 888 z "},"+":{"ha":836,"x_min":72,"x_max":764,"o":"m 358 519 l 358 732 q 358 733 358 732 q 358 735 358 733 q 358 738 358 736 q 358 740 358 739 q 358 741 358 740 q 358 743 358 742 q 358 746 358 744 q 358 749 358 747 q 358 760 358 754 q 360 771 358 765 q 364 783 361 778 q 372 792 367 788 q 381 799 376 796 q 390 804 385 803 q 401 808 396 807 q 413 808 407 808 q 413 808 413 808 q 413 808 413 808 q 413 808 413 808 q 415 808 414 808 q 415 808 415 808 q 417 808 415 808 q 417 808 417 808 q 417 808 417 808 q 417 808 417 808 q 418 808 417 808 q 418 808 418 808 q 418 808 418 808 q 423 808 421 808 q 426 808 425 808 q 431 807 429 807 q 435 807 433 807 q 439 806 438 807 q 443 804 440 806 q 447 803 444 804 q 450 801 449 803 q 464 790 458 796 q 472 776 469 783 q 476 760 475 768 q 478 743 478 751 q 478 741 478 742 q 478 739 478 740 q 478 737 478 738 q 478 736 478 736 l 478 519 l 686 519 q 715 517 701 519 q 740 508 729 514 q 758 492 751 503 q 764 465 764 481 q 764 463 764 464 q 764 461 764 461 q 763 458 763 460 q 763 456 763 457 q 763 453 763 454 q 763 450 763 451 q 761 447 761 449 q 761 444 761 446 q 751 422 757 431 q 733 410 744 413 q 713 406 724 407 q 689 404 701 404 l 478 404 l 478 190 q 475 161 478 175 q 467 136 472 147 q 449 119 461 125 q 418 113 438 113 q 388 119 400 113 q 369 135 376 125 q 361 158 364 146 q 358 186 358 171 l 358 404 l 150 404 q 148 404 149 404 q 146 404 147 404 q 144 404 144 404 q 143 404 143 404 q 117 407 129 404 q 93 415 104 410 q 78 432 83 421 q 72 461 72 443 q 78 491 72 479 q 94 508 85 503 q 119 517 106 514 q 146 519 132 519 l 358 519 l 358 519 l 358 519 z "},",":{"ha":836,"x_min":271,"x_max":557,"o":"m 272 144 q 281 199 271 175 q 311 239 290 222 q 355 264 332 256 q 404 272 378 272 q 405 272 404 272 q 407 272 406 272 q 410 272 408 272 q 413 272 411 272 q 465 259 440 271 q 511 225 489 247 q 546 169 535 203 q 557 90 557 136 q 551 32 557 60 q 533 -22 544 4 q 508 -75 522 -50 q 474 -122 493 -100 q 468 -128 471 -125 q 463 -136 465 -132 q 456 -142 460 -139 q 450 -150 453 -146 q 426 -172 439 -161 q 400 -193 414 -183 q 372 -208 386 -203 q 342 -214 357 -212 q 342 -214 342 -214 q 342 -214 342 -214 q 340 -214 340 -214 q 340 -214 340 -214 q 340 -214 340 -214 q 340 -214 340 -214 q 340 -214 340 -214 q 340 -214 340 -214 q 339 -214 339 -214 q 339 -214 339 -214 q 339 -214 339 -214 q 339 -214 339 -214 q 322 -211 329 -214 q 310 -204 315 -208 q 301 -192 304 -199 q 299 -178 299 -186 q 299 -176 299 -176 q 299 -174 299 -175 q 299 -172 299 -172 q 299 -169 299 -171 q 301 -158 299 -164 q 310 -144 304 -151 q 322 -131 315 -137 q 333 -117 328 -124 q 334 -115 333 -115 q 336 -114 335 -114 q 337 -112 336 -112 q 339 -110 338 -111 q 342 -107 340 -108 q 344 -104 343 -106 q 356 -92 351 -99 q 367 -81 361 -86 q 376 -69 372 -75 q 385 -60 381 -64 q 394 -45 390 -51 q 400 -32 399 -39 q 403 -22 403 -26 q 404 -12 404 -17 q 401 -1 404 -6 q 393 10 399 4 q 387 15 390 13 q 381 19 383 17 q 374 24 378 21 q 367 28 371 26 q 363 30 365 29 q 360 32 361 31 q 356 33 357 32 q 353 35 354 33 q 349 37 351 36 q 346 39 347 38 q 342 42 343 40 q 338 44 340 43 q 315 60 325 51 q 293 81 304 69 q 278 108 283 92 q 272 144 272 124 l 272 144 l 272 144 z "},"-":{"ha":836,"x_min":143,"x_max":694,"o":"m 607 401 q 644 397 628 401 q 671 381 660 392 q 688 360 682 371 q 694 338 693 349 q 694 335 694 336 q 694 335 694 335 q 694 335 694 335 q 694 335 694 335 q 694 333 694 333 q 694 333 694 333 q 689 308 694 319 q 672 285 683 296 q 644 268 661 274 q 607 263 628 263 l 229 264 q 191 269 207 264 q 164 285 175 275 q 149 308 154 296 q 143 333 143 319 q 149 358 143 346 q 164 381 154 371 q 191 397 175 392 q 229 403 207 403 l 607 401 l 607 401 l 607 401 z "},".":{"ha":836,"x_min":283,"x_max":553,"o":"m 283 118 q 294 177 283 151 q 325 219 304 203 q 369 244 346 236 q 419 253 393 253 q 467 244 444 253 q 511 219 490 236 q 542 177 532 203 q 553 118 553 151 q 542 60 553 85 q 510 19 531 35 q 465 -3 489 4 q 417 -11 442 -11 q 369 -3 392 -11 q 325 19 346 4 q 294 60 304 36 q 283 118 283 85 l 283 118 l 283 118 z "},"/":{"ha":836,"x_min":219,"x_max":618,"o":"m 344 -65 q 342 -69 343 -67 q 340 -76 342 -72 q 340 -81 340 -79 q 339 -85 339 -82 q 338 -88 338 -86 q 338 -92 338 -90 q 328 -116 333 -104 q 315 -137 322 -128 q 299 -154 310 -149 q 276 -160 289 -160 q 276 -160 276 -160 q 276 -160 276 -160 q 275 -160 275 -160 q 275 -160 275 -160 q 275 -160 275 -160 q 275 -160 275 -160 q 275 -160 275 -160 q 275 -160 275 -160 q 274 -160 274 -160 q 274 -160 274 -160 q 274 -160 274 -160 q 274 -160 274 -160 q 272 -160 272 -160 q 271 -160 271 -160 q 269 -160 269 -160 q 267 -160 268 -160 q 265 -160 265 -160 q 264 -160 264 -160 q 262 -158 263 -158 q 261 -158 261 -158 q 242 -151 250 -156 q 229 -139 233 -146 q 222 -124 224 -132 q 219 -107 219 -115 q 219 -105 219 -106 q 219 -104 219 -104 q 219 -104 219 -104 q 219 -104 219 -104 q 219 -103 219 -103 q 219 -103 219 -103 q 219 -100 219 -101 q 219 -99 219 -99 q 219 -96 219 -97 q 219 -93 219 -94 q 219 -90 219 -92 q 221 -85 219 -87 q 222 -74 221 -79 q 224 -65 222 -69 q 226 -57 225 -61 q 228 -49 226 -53 l 492 982 q 492 983 492 982 q 493 985 492 983 q 493 987 493 986 q 493 989 493 988 q 493 991 493 990 q 494 993 493 992 q 494 994 494 993 q 494 996 494 994 q 494 997 494 996 q 494 999 494 997 q 494 999 494 999 q 496 1000 494 999 q 496 1001 496 1000 q 496 1001 496 1001 q 501 1020 499 1011 q 506 1038 503 1029 q 514 1053 508 1046 q 528 1067 519 1061 q 535 1072 531 1069 q 543 1075 539 1074 q 552 1077 547 1076 q 563 1078 557 1078 q 565 1078 564 1078 q 568 1078 567 1078 q 569 1078 568 1078 q 571 1078 569 1078 q 572 1076 571 1076 q 574 1076 572 1076 q 579 1076 576 1076 q 585 1074 582 1075 q 591 1072 588 1072 q 596 1069 594 1071 q 607 1060 603 1065 q 613 1050 611 1056 q 615 1044 614 1047 q 617 1039 615 1042 q 617 1032 617 1035 q 618 1026 618 1029 q 618 1023 618 1025 q 618 1018 618 1021 q 618 1016 618 1017 q 618 1015 618 1015 q 617 1013 617 1014 q 617 1011 617 1013 q 615 1003 615 1007 q 614 997 614 1000 q 612 991 613 994 q 611 985 611 988 q 609 981 610 983 q 608 976 608 979 q 608 974 608 975 q 608 974 608 974 q 607 972 607 972 q 607 969 607 971 l 344 -65 l 344 -65 l 344 -65 z "},":":{"ha":836,"x_min":290,"x_max":544,"o":"m 290 107 q 301 162 290 139 q 329 200 311 185 q 370 224 349 215 q 414 233 392 232 q 414 233 414 233 q 415 233 414 233 q 415 233 415 233 q 415 233 415 233 q 416 233 415 233 q 418 233 417 233 q 464 225 442 233 q 506 201 486 217 q 535 162 525 185 q 544 107 544 139 q 534 53 544 76 q 504 14 524 29 q 463 -8 485 0 q 417 -15 440 -15 q 415 -15 415 -15 q 414 -15 414 -15 q 414 -15 414 -15 q 414 -15 414 -15 q 413 -15 413 -15 q 413 -15 413 -15 q 369 -6 390 -14 q 328 15 347 1 q 300 53 310 31 q 290 107 290 76 l 290 107 l 290 107 m 290 518 q 301 573 290 550 q 329 611 311 596 q 370 635 349 626 q 414 644 392 643 q 414 644 414 644 q 415 644 414 644 q 415 644 415 644 q 415 644 415 644 q 416 644 415 644 q 418 644 417 644 q 464 636 442 644 q 506 613 486 628 q 535 573 525 596 q 544 518 544 550 q 534 463 544 488 q 504 424 524 439 q 463 401 485 408 q 417 393 440 393 q 415 393 415 393 q 414 393 414 393 q 414 393 414 393 q 414 393 414 393 q 413 393 413 393 q 413 393 413 393 q 369 401 390 393 q 328 425 347 410 q 300 464 310 440 q 290 518 290 488 l 290 518 l 290 518 z "},";":{"ha":836,"x_min":279,"x_max":549,"o":"m 279 132 q 279 132 279 132 q 279 133 279 132 q 279 133 279 133 q 279 133 279 133 q 279 134 279 133 q 279 136 279 135 q 289 186 279 164 q 318 224 299 208 q 359 247 338 239 q 404 254 381 254 q 405 254 404 254 q 407 254 406 254 q 410 254 408 254 q 413 254 411 254 q 460 242 438 253 q 506 210 483 231 q 538 157 526 189 q 549 82 549 125 q 540 22 547 51 q 521 -36 533 -8 q 492 -90 508 -64 q 454 -139 475 -117 q 451 -144 453 -142 q 446 -147 449 -146 q 444 -149 444 -149 q 443 -151 443 -150 q 441 -153 442 -153 q 439 -156 440 -154 q 417 -174 429 -165 q 393 -192 406 -183 q 368 -204 381 -200 q 342 -208 356 -208 q 327 -206 333 -208 q 315 -199 321 -203 q 307 -188 310 -194 q 304 -175 304 -182 q 304 -175 304 -175 q 304 -175 304 -175 q 304 -174 304 -174 q 304 -174 304 -174 q 304 -174 304 -174 q 304 -174 304 -174 q 304 -174 304 -174 q 304 -174 304 -174 q 304 -172 304 -172 q 304 -172 304 -172 q 304 -172 304 -172 q 304 -172 304 -172 q 304 -170 304 -171 q 304 -169 304 -169 q 304 -169 304 -169 q 304 -169 304 -169 q 304 -167 304 -168 q 304 -167 304 -167 q 304 -167 304 -167 q 304 -167 304 -167 q 304 -165 304 -165 q 304 -165 304 -165 q 305 -160 304 -162 q 307 -154 306 -157 q 310 -147 308 -150 q 314 -142 313 -144 q 324 -130 318 -136 q 335 -117 329 -124 q 335 -115 335 -115 q 338 -114 336 -114 q 338 -112 338 -112 q 340 -110 339 -111 q 345 -106 343 -108 q 349 -103 347 -104 q 359 -91 354 -97 q 369 -79 364 -85 q 379 -69 375 -74 q 386 -60 383 -64 q 394 -47 390 -53 q 400 -35 399 -40 q 403 -25 403 -29 q 404 -17 404 -21 q 401 -5 404 -10 q 394 4 399 0 q 383 13 389 8 q 369 21 376 17 q 366 23 368 22 q 363 25 364 24 q 358 26 360 25 q 356 28 357 26 q 348 33 351 31 q 342 36 344 35 q 319 52 329 43 q 299 71 308 61 q 284 97 289 82 q 279 132 279 111 l 279 132 l 279 132 m 290 521 q 300 576 290 553 q 331 615 310 600 q 372 639 350 631 q 418 647 394 647 q 463 639 442 647 q 504 615 485 631 q 533 576 524 600 q 543 521 543 553 q 533 466 543 490 q 504 426 524 442 q 463 403 485 411 q 417 396 440 396 q 371 403 393 396 q 329 426 349 411 q 300 466 310 442 q 290 521 290 490 l 290 521 l 290 521 z "},"<":{"ha":836,"x_min":47,"x_max":754,"o":"m 117 529 l 656 776 q 662 779 658 778 q 669 782 665 781 q 676 785 672 783 q 685 788 681 786 q 691 788 688 788 q 699 790 694 789 q 701 790 700 790 q 706 792 703 790 q 709 792 707 792 q 713 792 711 792 q 726 790 719 792 q 738 783 732 788 q 747 772 743 779 q 753 753 751 764 q 753 751 753 751 q 754 750 753 750 q 754 748 754 749 q 754 746 754 747 q 754 743 754 744 q 754 740 754 742 q 754 738 754 739 q 754 738 754 738 q 754 735 754 736 q 754 735 754 735 q 750 713 754 722 q 738 696 746 703 q 719 683 729 689 q 699 671 710 676 l 225 463 l 699 253 q 719 241 710 247 q 738 228 729 235 q 750 210 746 219 q 754 189 754 200 q 754 187 754 188 q 754 185 754 186 q 754 182 754 183 q 754 181 754 181 q 754 178 754 179 q 754 178 754 178 q 753 176 753 176 q 753 175 753 175 q 753 173 753 174 q 753 171 753 172 q 747 152 751 160 q 738 140 743 144 q 726 134 732 136 q 714 132 721 132 q 712 132 713 132 q 711 132 711 132 q 711 132 711 132 q 711 132 711 132 q 710 132 710 132 q 710 132 710 132 q 706 132 708 132 q 701 132 703 132 q 697 133 699 132 q 692 133 694 133 q 688 134 690 133 q 683 136 685 135 q 678 137 681 136 q 674 139 676 138 q 671 140 672 139 q 669 142 669 140 q 667 142 668 142 q 664 143 665 143 q 660 145 663 144 q 656 147 658 146 l 117 399 q 116 399 117 399 q 115 400 115 399 q 113 400 114 400 q 113 400 113 400 q 110 401 111 400 q 108 403 110 401 q 106 403 107 403 q 106 404 106 403 q 103 404 104 404 q 103 404 103 404 q 100 405 101 404 q 97 407 99 406 q 78 417 88 411 q 63 428 69 422 q 51 443 54 435 q 47 464 47 451 q 51 485 47 475 q 64 500 56 494 q 81 512 72 507 q 100 521 90 517 q 100 521 100 521 q 101 522 100 521 q 101 522 101 522 q 101 522 101 522 q 102 522 101 522 q 104 524 103 522 q 107 524 106 524 q 110 526 108 525 q 112 526 111 526 q 114 528 113 526 q 115 528 114 528 q 117 529 115 529 l 117 529 l 117 529 z "},"=":{"ha":836,"x_min":72,"x_max":764,"o":"m 150 289 q 121 291 135 289 q 96 299 107 293 q 78 315 83 303 q 72 347 72 328 q 78 378 72 367 q 94 394 85 389 q 118 401 106 399 q 146 404 131 404 l 686 404 q 686 404 686 404 q 688 404 686 404 q 688 404 688 404 q 688 404 688 404 q 688 404 688 404 q 690 404 689 404 q 690 404 690 404 q 692 404 690 404 q 692 404 692 404 q 693 404 692 404 q 693 404 693 404 q 693 404 693 404 q 701 404 697 404 q 711 403 706 404 q 719 402 715 403 q 728 400 724 401 q 742 393 736 399 q 754 378 749 388 q 756 373 756 376 q 758 367 757 369 q 760 361 760 364 q 761 356 761 358 q 761 353 761 354 q 763 353 761 353 q 763 351 763 351 q 763 350 763 350 q 763 347 763 349 q 763 344 763 346 q 763 342 763 343 q 763 340 763 342 q 763 338 763 339 q 763 338 763 338 q 763 337 763 338 q 763 336 763 336 q 761 334 761 335 q 761 333 761 333 q 761 331 761 332 q 761 331 761 331 q 752 307 758 317 q 735 294 746 297 q 713 290 725 292 q 689 289 701 289 l 150 289 l 150 289 l 150 289 m 150 518 q 121 520 135 518 q 96 528 107 522 q 78 544 85 532 q 72 576 72 557 q 78 607 72 596 q 94 624 85 618 q 118 631 106 628 q 146 633 131 633 l 686 633 q 715 631 701 633 q 740 622 729 628 q 758 606 751 617 q 764 579 764 594 q 764 576 764 578 q 764 575 764 575 q 763 572 763 574 q 763 569 763 571 q 763 567 763 568 q 763 564 763 565 q 761 561 761 563 q 761 558 761 560 q 752 535 758 544 q 735 524 746 526 q 713 519 725 521 q 689 518 701 518 l 150 518 l 150 518 l 150 518 z "},">":{"ha":836,"x_min":46,"x_max":753,"o":"m 683 529 q 686 527 685 528 q 689 526 688 526 q 691 526 690 526 q 693 525 692 525 q 694 524 693 524 q 696 524 694 524 q 696 523 696 524 q 697 522 696 522 q 697 522 697 522 q 697 522 697 522 q 697 522 697 522 q 699 522 697 522 q 699 521 699 521 q 700 521 700 521 q 719 512 710 517 q 736 500 728 507 q 749 485 744 494 q 753 464 753 475 q 749 442 753 451 q 736 426 744 433 q 719 415 728 421 q 700 406 710 410 q 698 406 699 406 q 697 406 697 406 q 695 404 696 404 q 694 404 694 404 q 692 403 693 403 q 692 403 692 403 q 689 401 690 401 q 686 400 688 400 q 685 400 686 400 q 685 400 685 400 q 683 399 683 399 q 683 399 683 399 l 144 147 q 139 144 142 146 q 133 142 136 143 q 131 141 132 142 q 129 140 129 140 q 126 139 128 139 q 124 139 125 139 q 115 135 119 138 q 107 133 111 133 q 99 132 103 132 q 93 132 96 132 q 91 132 92 132 q 90 132 90 132 q 90 132 90 132 q 90 132 90 132 q 89 132 89 132 q 89 132 89 132 q 76 134 82 132 q 63 140 69 136 q 53 152 57 144 q 47 171 50 160 q 46 176 46 174 q 46 179 46 178 q 46 184 46 182 q 46 188 46 186 q 49 210 46 200 q 61 228 53 219 q 80 241 69 235 q 103 253 90 247 l 575 463 l 103 671 q 81 683 92 676 q 63 696 71 689 q 50 712 54 703 q 46 733 46 721 q 46 733 46 733 q 46 733 46 733 q 46 733 46 733 q 46 735 46 733 q 46 735 46 735 q 46 735 46 735 q 46 735 46 735 q 46 735 46 735 q 46 735 46 735 q 46 736 46 735 q 46 736 46 736 q 46 736 46 736 q 46 741 46 739 q 46 744 46 743 q 46 749 46 747 q 47 753 46 751 q 53 772 50 764 q 63 783 57 779 q 76 790 69 788 q 89 792 82 792 q 92 792 90 792 q 96 792 94 792 q 101 790 99 790 q 104 790 103 790 q 109 790 107 790 q 114 788 111 789 q 118 787 115 788 q 122 785 121 786 q 128 783 125 783 q 133 781 131 782 q 139 778 136 779 q 144 776 142 778 l 683 529 l 683 529 l 683 529 z "},"?":{"ha":836,"x_min":186,"x_max":656,"o":"m 282 82 q 290 132 282 110 q 317 168 299 154 q 354 190 335 183 q 396 199 374 197 q 396 199 396 199 q 397 199 396 199 q 397 199 397 199 q 397 199 397 199 q 398 199 397 199 q 400 199 399 199 q 442 192 422 199 q 479 169 461 185 q 506 133 497 156 q 515 83 515 111 q 506 33 515 54 q 478 0 497 13 q 440 -22 460 -15 q 397 -29 419 -29 q 395 -29 396 -29 q 394 -29 394 -29 q 394 -29 394 -29 q 394 -29 394 -29 q 393 -29 393 -29 q 393 -29 393 -29 q 353 -20 372 -28 q 317 0 333 -12 q 290 33 299 13 q 282 82 282 54 l 282 82 l 282 82 m 393 260 q 393 260 393 260 q 393 260 393 260 q 392 260 392 260 q 392 260 392 260 q 392 260 392 260 q 392 260 392 260 q 392 260 392 260 q 392 260 392 260 q 390 260 390 260 q 390 260 390 260 q 390 260 390 260 q 390 260 390 260 q 368 263 378 260 q 351 274 358 267 q 338 290 343 281 q 331 311 333 300 q 328 317 329 314 q 328 325 328 321 q 327 329 328 328 q 326 333 326 331 q 326 337 326 335 q 326 340 326 339 q 326 340 326 340 q 326 342 326 340 q 326 342 326 342 q 326 342 326 342 q 326 342 326 342 q 326 344 326 343 q 326 344 326 344 q 326 344 326 344 q 326 345 326 344 q 326 347 326 346 q 330 383 326 365 q 342 418 333 400 q 358 452 349 436 q 376 482 367 468 q 390 500 383 490 q 404 519 396 510 q 421 540 413 529 q 438 561 429 550 q 467 603 453 581 q 496 647 482 625 q 517 694 510 671 q 524 739 524 717 q 522 758 524 749 q 517 778 519 768 q 513 788 515 783 q 508 799 511 793 q 503 808 506 803 q 497 818 500 813 q 484 833 492 826 q 467 844 476 839 q 456 849 461 847 q 447 851 451 850 q 437 854 442 853 q 426 856 432 856 q 424 856 425 856 q 424 857 424 856 q 422 857 422 857 q 419 857 421 857 q 417 857 418 857 q 414 857 415 857 q 412 857 413 857 q 411 857 411 857 q 411 857 411 857 q 411 857 411 857 q 410 857 410 857 q 410 857 410 857 q 381 853 396 857 q 354 843 367 850 q 333 825 342 836 q 321 799 325 814 q 319 796 319 797 q 318 793 318 794 q 318 790 318 792 q 318 788 318 789 q 318 784 318 786 q 318 781 318 782 q 318 778 318 779 q 318 775 318 776 q 318 769 318 772 q 318 764 318 767 q 318 761 318 763 q 319 758 318 760 q 319 756 319 757 q 319 753 319 754 q 319 751 319 751 q 321 750 319 750 q 321 748 321 749 q 321 747 321 747 q 321 744 321 746 q 322 742 321 743 q 322 733 322 738 q 324 725 322 729 q 324 722 324 724 q 325 717 324 719 q 325 713 325 715 q 325 708 325 711 q 323 692 325 700 q 317 678 321 685 q 304 665 313 671 q 283 656 296 660 q 273 652 278 654 q 264 650 268 650 q 254 649 258 649 q 246 649 250 649 q 218 655 229 649 q 200 674 207 661 q 190 701 193 686 q 186 732 186 715 q 186 738 186 735 q 186 746 186 742 q 186 750 186 749 q 188 754 186 751 q 188 758 188 756 q 188 761 188 760 q 192 783 190 772 q 197 803 194 793 q 204 822 200 814 q 214 839 208 831 q 251 885 229 865 q 301 918 274 904 q 359 938 329 931 q 419 944 389 944 q 420 944 419 944 q 422 944 421 944 q 422 944 422 944 q 424 944 422 944 q 424 944 424 944 q 424 944 424 944 q 501 932 464 943 q 572 897 538 921 q 627 842 607 875 q 653 767 647 810 q 653 762 653 764 q 654 757 653 760 q 654 753 654 756 q 654 749 654 751 q 654 745 654 747 q 656 740 654 743 q 656 737 656 739 q 656 732 656 735 q 647 669 656 697 q 621 618 638 642 q 585 574 604 596 q 547 533 567 553 q 542 528 544 531 q 536 524 539 526 q 534 521 535 522 q 532 519 533 519 q 530 517 531 518 q 528 514 529 515 q 503 489 515 501 q 481 464 492 476 q 463 438 471 451 q 449 410 454 425 q 444 393 446 401 q 442 376 442 385 q 440 358 440 367 q 440 339 440 349 q 437 310 439 324 q 432 285 435 296 q 418 266 428 272 q 393 260 408 260 l 393 260 l 393 260 z "},"@":{"ha":836,"x_min":99,"x_max":765,"o":"m 611 651 q 611 658 611 654 q 611 665 611 661 q 611 669 611 668 q 611 674 611 671 q 611 677 611 675 q 611 681 611 679 q 611 683 611 682 q 611 685 611 683 q 611 685 611 685 q 611 688 611 686 q 611 690 611 689 q 611 692 611 690 q 611 692 611 692 q 611 694 611 693 q 607 740 610 718 q 600 783 604 761 q 583 825 594 806 q 556 861 572 844 q 532 881 544 872 q 504 894 519 889 q 490 899 497 897 q 476 903 483 901 q 461 905 468 904 q 447 906 454 906 q 419 903 433 906 q 393 896 406 900 q 367 883 379 890 q 343 867 354 876 q 281 791 308 836 q 235 685 254 746 q 207 559 217 624 q 199 428 197 494 q 210 283 199 353 q 246 146 222 213 q 307 35 269 79 q 396 -32 344 -8 q 423 -44 410 -39 q 450 -51 436 -49 q 463 -53 457 -53 q 476 -56 469 -54 q 489 -56 482 -56 q 501 -57 496 -57 q 530 -56 517 -57 q 557 -51 543 -54 q 582 -46 569 -49 q 607 -40 594 -43 q 631 -35 619 -37 q 651 -29 642 -32 q 671 -25 663 -26 q 688 -24 679 -24 q 703 -26 696 -24 q 714 -33 710 -28 q 721 -46 718 -37 q 724 -67 724 -54 q 724 -67 724 -67 q 724 -67 724 -67 q 724 -67 724 -67 q 724 -68 724 -67 q 724 -68 724 -68 q 724 -68 724 -68 q 724 -68 724 -68 q 724 -68 724 -68 q 717 -94 724 -83 q 700 -110 711 -104 q 676 -122 689 -117 q 650 -131 664 -126 q 636 -133 643 -132 q 622 -135 629 -133 q 610 -137 617 -136 q 600 -139 604 -137 q 580 -141 590 -140 q 558 -143 569 -142 q 538 -145 549 -144 q 517 -146 528 -146 q 467 -143 492 -146 q 419 -135 443 -140 q 373 -120 396 -129 q 329 -100 350 -111 q 231 -16 274 -68 q 158 111 188 36 q 115 264 129 185 q 99 426 100 343 q 99 429 99 428 q 99 432 99 431 q 99 434 99 433 q 99 436 99 435 q 99 437 99 436 q 99 439 99 438 q 113 603 99 524 q 157 757 128 682 q 231 882 186 831 q 335 963 275 933 q 365 975 350 969 q 394 983 379 981 q 426 988 410 986 q 457 990 442 990 q 520 983 489 990 q 581 960 551 975 q 633 922 610 944 q 675 868 657 899 q 692 831 686 850 q 703 792 699 813 q 709 750 707 771 q 711 708 711 729 q 711 703 711 706 q 711 697 711 700 q 710 690 710 693 q 710 685 710 688 q 710 679 710 682 q 710 674 710 676 q 710 667 710 669 q 710 661 710 664 q 707 638 708 650 q 704 615 706 626 q 701 592 703 603 q 699 569 700 581 q 696 553 697 561 q 693 536 694 544 q 691 519 692 528 q 690 504 690 511 q 690 501 690 503 q 690 500 690 500 q 689 497 689 499 q 689 494 689 496 q 689 492 689 493 q 689 490 689 490 q 688 488 688 489 q 688 485 688 486 q 685 474 686 479 q 685 465 685 469 q 683 455 683 460 q 682 444 682 450 q 681 434 682 439 q 681 425 681 429 q 681 415 681 419 q 681 404 681 410 q 681 392 681 399 q 682 379 681 386 q 683 367 682 374 q 686 356 685 361 q 691 339 688 346 q 700 325 694 332 q 713 314 707 319 q 725 304 719 308 q 728 301 726 303 q 732 299 731 300 q 734 298 733 299 q 736 297 735 297 q 737 295 736 296 q 739 294 738 294 q 744 291 742 293 q 747 288 746 289 q 752 283 750 285 q 756 279 754 282 q 760 271 758 275 q 764 263 763 267 q 764 260 764 261 q 765 260 764 260 q 765 258 765 258 q 765 256 765 257 q 765 253 765 254 q 765 250 765 251 q 763 236 765 242 q 756 228 760 231 q 744 222 750 224 q 731 221 738 221 q 726 221 729 221 q 722 221 724 221 q 717 222 719 221 q 713 224 715 222 q 702 226 707 225 q 693 229 697 228 q 676 235 685 232 q 661 243 668 239 q 648 252 654 247 q 638 263 642 257 q 613 233 625 246 q 586 211 600 221 q 558 194 572 201 q 532 185 544 188 q 522 182 526 183 q 513 181 517 181 q 508 180 511 181 q 504 179 506 179 q 499 179 501 179 q 494 179 497 179 q 492 179 493 179 q 492 179 492 179 q 492 179 492 179 q 492 179 492 179 q 490 179 490 179 q 490 179 490 179 q 427 194 457 179 q 371 238 397 208 q 331 307 344 267 q 315 399 318 347 q 315 399 315 399 q 315 399 315 399 q 315 399 315 399 q 315 401 315 400 q 315 401 315 401 q 315 403 315 401 q 315 403 315 403 q 315 403 315 403 q 315 403 315 403 q 315 404 315 403 q 315 404 315 404 q 315 404 315 404 q 315 418 315 411 q 317 432 315 425 q 318 447 317 439 q 321 463 319 454 q 345 540 328 503 q 389 613 363 578 q 449 664 417 647 q 519 681 481 681 q 542 678 531 681 q 564 674 553 676 q 587 664 575 669 q 611 651 599 658 l 611 651 l 611 651 m 606 557 q 587 570 596 564 q 567 582 578 576 q 556 586 561 585 q 546 589 550 588 q 535 591 540 590 q 524 592 529 592 q 522 592 522 592 q 521 592 521 592 q 521 592 521 592 q 521 592 521 592 q 519 592 519 592 q 519 592 519 592 q 503 590 511 592 q 486 585 494 588 q 469 577 478 582 q 454 565 461 572 q 434 540 443 556 q 418 506 425 525 q 408 466 413 486 q 403 425 404 446 q 403 419 403 422 q 403 414 403 417 q 403 411 403 413 q 403 410 403 410 q 403 407 403 408 q 403 404 403 406 q 404 369 403 386 q 410 336 406 353 q 420 307 414 319 q 436 285 426 294 q 449 272 443 278 q 464 264 456 267 q 481 260 472 261 q 497 258 489 258 q 498 258 497 258 q 500 258 499 258 q 502 258 501 258 q 504 258 503 258 q 515 260 510 258 q 526 264 521 261 q 536 268 531 265 q 547 275 542 271 q 566 291 558 282 q 579 311 574 300 q 587 328 583 319 q 592 347 590 338 q 594 365 593 356 q 594 383 594 374 q 594 390 594 386 q 594 396 594 393 q 594 402 594 399 q 594 408 594 406 q 593 415 593 411 q 593 421 593 418 q 593 427 593 424 q 593 435 593 431 q 593 435 593 435 q 593 438 593 436 q 593 438 593 438 q 593 440 593 439 q 593 441 593 440 q 593 443 593 442 q 593 444 593 443 q 593 446 593 444 q 593 460 593 453 q 593 474 593 467 q 594 488 593 481 q 597 501 596 494 q 598 515 597 508 q 600 529 599 522 q 603 543 601 536 q 606 557 604 550 l 606 557 l 606 557 z "},"A":{"ha":836,"x_min":-10,"x_max":843,"o":"m 226 286 l 181 140 q 178 137 179 139 q 178 132 178 135 q 178 128 178 131 q 178 124 178 126 q 182 106 178 114 q 196 94 186 99 q 216 88 206 90 q 239 86 226 86 q 242 86 240 86 q 246 86 243 86 q 249 85 247 85 q 253 85 251 85 q 259 85 256 85 q 267 85 263 85 q 269 85 268 85 q 272 85 271 85 q 274 85 272 85 q 276 85 275 85 q 279 85 278 85 q 282 85 281 85 q 283 85 282 85 q 286 85 285 85 q 310 81 300 83 q 326 71 321 78 q 337 58 333 65 q 340 43 340 50 q 340 43 340 43 q 340 43 340 43 q 340 42 340 42 q 340 42 340 42 q 340 42 340 42 q 340 42 340 42 q 340 42 340 42 q 340 42 340 42 q 340 40 340 40 q 340 40 340 40 q 340 40 340 40 q 340 40 340 40 q 338 26 340 32 q 329 13 335 19 q 316 3 324 7 q 299 0 308 0 l 32 0 q 15 3 22 0 q 3 11 8 6 q -5 24 -1 18 q -10 38 -8 31 q -10 38 -10 38 q -10 40 -10 39 q -10 42 -10 42 q -10 44 -10 43 q -9 54 -10 50 q -6 63 -8 58 q -1 70 -4 67 q 7 76 1 74 q 11 78 10 78 q 14 81 13 79 q 18 81 17 81 q 21 83 19 82 q 27 88 24 86 q 35 92 31 90 q 51 102 43 96 q 64 115 58 108 q 74 133 69 122 q 85 157 79 143 l 329 888 q 340 912 333 901 q 356 929 347 922 q 373 940 364 936 q 392 943 382 943 q 392 943 392 943 q 393 943 392 943 q 394 942 393 942 q 394 942 394 942 q 397 942 396 942 q 400 942 399 942 q 406 939 403 940 q 414 936 410 938 q 420 932 417 935 q 426 926 424 929 q 438 913 433 921 q 447 893 443 904 l 731 133 q 741 113 735 121 q 754 100 747 104 q 768 93 761 96 q 782 89 775 90 q 784 88 783 89 q 786 88 785 88 q 787 86 786 86 q 789 86 788 86 q 792 86 790 86 q 794 86 793 86 q 806 84 801 85 q 817 81 811 83 q 827 76 822 79 q 836 67 832 72 q 838 64 838 65 q 839 61 839 63 q 840 58 839 60 q 842 56 840 57 q 842 53 842 54 q 843 51 842 53 q 843 49 843 50 q 843 49 843 49 q 843 46 843 47 q 843 43 843 44 q 840 27 843 35 q 832 13 838 19 q 819 3 826 7 q 801 0 811 0 l 504 0 q 487 3 494 0 q 474 13 479 7 q 465 26 468 19 q 463 42 463 33 q 463 42 463 42 q 463 43 463 42 q 463 43 463 43 q 463 43 463 43 q 463 44 463 43 q 463 46 463 44 q 467 60 463 53 q 479 74 471 68 q 500 84 488 81 q 529 88 513 88 q 529 88 529 88 q 531 88 529 88 q 531 88 531 88 q 531 88 531 88 q 531 88 531 88 q 533 88 532 88 q 533 88 533 88 q 533 88 533 88 q 534 88 533 88 q 536 88 535 88 q 536 88 536 88 q 538 88 536 88 q 538 88 538 88 q 538 88 538 88 q 538 88 538 88 q 539 88 538 88 q 539 88 539 88 q 539 88 539 88 q 544 88 542 88 q 551 88 547 88 q 558 88 554 88 q 567 90 563 89 q 583 94 575 92 q 596 100 590 96 q 606 108 603 103 q 610 121 610 114 q 610 121 610 121 q 610 121 610 121 q 610 121 610 121 q 610 122 610 121 q 610 122 610 122 q 610 122 610 122 q 610 122 610 122 q 610 122 610 122 q 610 123 610 122 q 610 125 610 124 q 610 126 610 125 q 610 128 610 126 q 610 128 610 128 q 610 129 610 128 q 608 130 608 129 q 608 131 608 131 q 608 131 608 131 q 608 133 608 132 l 553 286 l 226 286 l 226 286 l 226 286 m 257 376 l 518 376 l 379 744 l 257 376 l 257 376 l 257 376 z "},"B":{"ha":836,"x_min":58,"x_max":747,"o":"m 113 0 q 92 3 101 0 q 74 14 82 7 q 62 29 65 21 q 58 47 58 38 q 58 49 58 49 q 58 51 58 50 q 58 54 58 53 q 60 57 58 56 q 60 59 60 58 q 60 61 60 60 q 60 64 60 63 q 63 67 61 65 q 72 83 65 76 q 89 92 79 89 q 109 96 99 94 q 131 97 119 97 q 133 97 132 97 q 138 97 135 97 q 141 96 139 96 q 144 96 143 96 q 149 96 147 96 q 153 96 150 96 q 156 96 154 96 q 160 96 158 96 q 163 96 161 96 q 165 96 164 96 q 168 94 167 94 q 171 94 169 94 q 177 94 174 94 q 183 94 181 94 l 183 828 q 181 828 182 828 q 181 828 181 828 q 181 828 181 828 q 181 828 181 828 q 178 828 179 828 q 178 828 178 828 q 178 828 178 828 q 178 828 178 828 q 176 828 176 828 q 176 828 176 828 q 168 828 172 828 q 160 828 164 828 q 156 828 158 828 q 151 828 153 828 q 147 828 149 828 q 142 828 144 828 q 139 828 140 828 q 136 828 138 828 q 134 828 135 828 q 132 828 133 828 q 110 829 121 828 q 89 833 100 831 q 72 842 79 836 q 63 857 65 847 q 62 860 63 858 q 61 863 61 861 q 60 864 60 863 q 60 867 60 865 q 59 869 60 868 q 58 872 58 871 q 58 874 58 872 q 58 876 58 875 q 63 894 58 886 q 75 907 67 901 q 93 917 83 914 q 113 919 103 919 l 304 919 q 316 919 310 919 q 328 919 322 919 q 341 919 335 919 q 353 919 347 919 q 369 919 361 919 q 388 919 378 919 q 396 919 392 919 q 406 919 400 919 q 414 919 410 919 q 422 919 418 919 q 503 910 464 918 q 578 890 542 903 q 638 847 614 876 q 676 771 663 817 q 680 756 679 764 q 682 742 681 749 q 682 734 682 738 q 683 728 682 731 q 683 720 683 724 q 683 714 683 717 q 681 688 683 700 q 676 663 679 675 q 669 638 674 650 q 658 615 665 626 q 633 578 647 594 q 601 550 618 561 q 564 529 583 539 q 524 511 544 519 q 585 495 556 506 q 640 469 614 485 q 686 433 665 456 q 722 378 707 410 q 733 350 729 364 q 740 321 738 336 q 743 306 742 314 q 746 292 744 299 q 747 276 746 283 q 747 261 747 268 q 743 215 747 238 q 731 168 739 192 q 710 125 722 146 q 683 86 699 104 q 628 40 658 58 q 565 15 599 22 q 498 3 532 7 q 428 0 464 0 q 408 0 418 0 q 386 0 397 0 q 366 0 376 0 q 344 0 356 0 q 306 0 325 0 q 267 0 286 0 q 228 0 247 0 q 189 0 208 0 q 169 0 179 0 q 150 0 160 0 q 131 0 140 0 q 113 0 122 0 l 113 0 l 113 0 m 364 451 l 304 451 l 304 94 q 313 94 308 94 q 324 94 318 94 q 335 94 329 94 q 346 94 340 94 q 361 94 353 94 q 378 94 369 94 q 394 94 386 94 q 411 96 403 94 q 476 107 444 99 q 536 129 507 115 q 583 168 565 143 q 610 229 601 193 q 610 234 610 232 q 611 239 611 236 q 613 243 613 240 q 613 247 613 246 q 613 252 613 250 q 614 257 613 254 q 614 261 614 258 q 614 267 614 264 q 614 269 614 268 q 614 271 614 269 q 614 272 614 271 q 614 274 614 272 q 614 276 614 275 q 614 278 614 276 q 614 278 614 278 q 614 281 614 279 q 609 308 613 294 q 600 335 606 321 q 587 361 594 349 q 569 383 579 374 q 538 410 556 399 q 500 429 519 422 q 458 442 479 436 q 417 449 438 447 q 410 449 414 449 q 404 450 407 449 q 397 450 400 450 q 390 450 393 450 q 383 450 386 450 q 376 451 379 450 q 370 451 374 451 q 364 451 367 451 l 364 451 l 364 451 m 304 828 l 304 549 q 307 549 306 549 q 310 549 308 549 q 312 549 311 549 q 314 549 313 549 q 315 549 314 549 q 317 549 315 549 q 319 549 318 549 q 321 549 319 549 q 322 549 321 549 q 324 549 322 549 q 326 549 325 549 q 328 549 326 549 q 328 549 328 549 q 331 549 329 549 q 369 550 350 549 q 408 553 389 551 q 446 563 428 556 q 482 579 464 569 q 510 601 497 589 q 531 631 522 614 q 544 664 539 646 q 549 700 549 682 q 549 702 549 701 q 549 703 549 703 q 549 703 549 703 q 549 706 549 704 q 536 771 549 746 q 499 808 524 796 q 446 826 474 819 q 388 832 418 832 q 376 832 382 832 q 365 832 371 832 q 355 831 360 831 q 344 831 350 831 q 324 830 335 831 q 304 828 314 829 l 304 828 l 304 828 z "},"C":{"ha":836,"x_min":75,"x_max":743,"o":"m 740 138 q 734 106 740 121 q 715 81 728 92 q 690 60 703 69 q 663 43 678 50 q 651 38 657 40 q 640 32 646 35 q 630 27 635 29 q 621 22 625 25 q 576 4 599 11 q 531 -8 554 -3 q 484 -15 508 -12 q 436 -18 460 -18 q 427 -18 432 -18 q 418 -18 422 -18 q 410 -17 414 -17 q 401 -17 406 -17 q 385 -15 393 -15 q 368 -12 376 -14 q 243 33 296 -3 q 156 131 190 68 q 101 260 121 193 q 76 400 82 328 q 76 408 76 404 q 76 415 76 411 q 75 422 75 418 q 75 431 75 426 q 75 445 75 438 q 75 461 75 453 q 77 524 75 493 q 85 585 79 554 q 96 641 89 614 q 113 693 103 668 q 158 781 131 740 q 221 857 185 822 q 301 912 257 892 q 397 938 346 932 q 403 938 400 938 q 408 939 406 938 q 415 939 411 939 q 421 939 418 939 q 427 939 424 939 q 433 940 431 939 q 440 940 436 940 q 446 940 443 940 q 452 940 449 940 q 460 940 456 940 q 466 939 463 939 q 472 939 469 939 q 486 938 479 939 q 500 936 493 938 q 506 935 503 936 q 514 933 510 935 q 520 933 517 933 q 526 931 524 932 q 533 928 529 929 q 540 926 536 928 q 547 924 543 925 q 553 922 550 924 q 566 919 560 921 q 578 914 572 917 q 592 911 585 913 q 606 908 599 910 q 606 908 606 908 q 607 908 606 908 q 607 908 607 908 q 607 908 607 908 q 608 908 607 908 q 610 908 608 908 q 613 908 611 908 q 615 908 614 908 q 617 908 615 908 q 619 908 618 908 q 622 908 621 908 q 625 910 624 908 q 626 910 625 910 q 629 910 628 910 q 632 910 631 910 q 635 911 633 910 q 636 912 635 911 q 639 913 638 913 q 644 913 642 913 q 650 915 647 914 q 659 916 654 915 q 669 918 664 917 q 674 919 672 918 q 679 919 676 919 q 683 921 681 921 q 688 921 686 921 q 706 917 697 921 q 719 904 714 913 q 729 880 726 896 q 733 839 732 864 l 739 696 q 739 694 739 694 q 739 693 739 693 q 739 693 739 693 q 739 693 739 693 q 735 670 739 681 q 725 649 732 660 q 709 634 719 639 q 685 629 699 629 q 661 635 671 629 q 647 654 651 642 q 639 681 642 667 q 633 708 636 694 q 632 711 632 710 q 632 714 632 713 q 632 717 632 715 q 632 719 632 718 q 629 735 631 728 q 626 750 628 743 q 623 763 625 757 q 618 774 621 768 q 590 808 607 793 q 553 831 574 822 q 510 844 532 839 q 465 849 489 849 q 438 847 451 849 q 413 843 425 846 q 388 836 400 840 q 365 826 376 832 q 301 781 328 808 q 257 718 274 754 q 230 644 240 682 q 214 567 219 607 q 211 539 213 553 q 210 511 210 525 q 208 483 208 497 q 208 457 208 469 q 208 430 208 443 q 210 403 208 417 q 210 389 210 396 q 211 375 211 382 q 213 360 213 367 q 215 346 214 353 q 229 272 219 308 q 254 201 239 236 q 294 140 269 167 q 353 93 318 113 q 373 83 363 88 q 394 75 383 78 q 417 71 406 72 q 440 69 429 69 q 442 69 442 69 q 444 69 443 69 q 447 69 446 69 q 449 69 447 69 q 484 73 467 69 q 519 83 501 76 q 551 100 536 90 q 581 124 567 110 q 593 140 588 131 q 604 158 599 149 q 615 180 610 169 q 624 200 619 190 q 626 206 625 203 q 629 213 628 210 q 631 219 629 215 q 633 225 632 222 q 638 238 636 232 q 642 250 640 244 q 650 269 646 261 q 658 285 654 278 q 667 297 663 292 q 678 304 672 303 q 684 306 681 306 q 689 307 688 307 q 692 307 690 307 q 694 308 693 307 q 696 308 694 308 q 699 308 697 308 q 722 301 713 308 q 735 279 731 294 q 741 249 739 265 q 743 217 743 233 q 743 215 743 215 q 743 214 743 214 q 743 214 743 214 q 743 214 743 214 q 743 213 743 213 q 743 213 743 213 q 743 206 743 210 q 743 200 743 203 q 742 194 742 197 q 742 189 742 192 q 742 178 742 183 q 742 168 742 172 q 742 163 742 165 q 742 158 742 161 q 740 155 740 157 q 740 150 740 153 q 740 143 740 146 q 740 138 740 140 l 740 138 l 740 138 z "},"D":{"ha":836,"x_min":26,"x_max":767,"o":"m 136 86 l 136 836 q 133 836 135 836 q 132 836 132 836 q 129 836 131 836 q 126 836 128 836 q 121 836 124 836 q 115 836 118 836 q 108 835 111 835 q 103 835 106 835 q 97 835 100 835 q 90 835 93 835 q 72 836 81 835 q 54 839 63 838 q 40 847 46 842 q 31 861 33 853 q 28 863 29 863 q 28 865 28 864 q 28 868 28 867 q 28 871 28 869 q 26 872 26 871 q 26 875 26 874 q 26 877 26 876 q 26 879 26 878 q 31 895 26 888 q 43 908 35 903 q 59 918 50 915 q 78 921 68 921 l 257 921 q 274 921 265 921 q 293 921 283 921 q 301 921 297 921 q 311 921 306 921 q 320 919 315 919 q 329 919 325 919 q 412 913 371 918 q 493 899 453 908 q 570 869 533 889 q 639 821 607 850 q 688 764 667 794 q 722 697 708 733 q 747 626 738 663 q 761 551 756 589 q 763 529 763 540 q 765 507 764 518 q 765 496 765 501 q 767 485 765 490 q 767 474 767 479 q 767 463 767 468 q 767 451 767 457 q 767 442 767 446 q 765 431 765 436 q 765 419 765 425 q 763 397 764 408 q 761 375 763 386 q 748 299 757 336 q 724 226 739 263 q 688 159 710 190 q 639 101 667 128 q 564 47 604 68 q 479 18 524 26 q 391 5 436 10 q 301 0 346 0 q 290 0 296 0 q 279 0 285 0 q 268 0 274 0 q 257 0 263 0 l 78 0 q 58 3 68 0 q 42 13 49 7 q 30 26 33 19 q 26 43 26 33 q 26 48 26 46 q 28 51 26 50 q 28 56 28 54 q 31 60 29 58 q 40 74 35 68 q 54 82 46 79 q 69 86 61 85 q 86 88 78 88 q 88 88 88 88 q 90 88 89 88 q 91 88 90 88 q 93 88 92 88 q 99 88 96 88 q 106 88 103 88 q 111 88 108 88 q 117 88 114 88 q 119 87 118 88 q 122 86 121 86 q 124 86 122 86 q 126 86 125 86 q 129 86 128 86 q 132 86 131 86 q 133 86 132 86 q 136 86 135 86 l 136 86 l 136 86 m 257 836 l 257 86 q 263 86 260 86 q 268 86 265 86 q 274 86 271 86 q 279 86 276 86 q 281 86 281 86 q 283 86 282 86 q 284 86 283 86 q 286 86 285 86 q 291 86 289 86 q 294 86 293 86 q 317 86 306 86 q 342 88 329 86 q 365 88 353 88 q 388 90 376 89 q 433 99 411 93 q 478 117 456 106 q 540 163 514 136 q 582 224 565 189 q 610 295 599 258 q 626 371 621 332 q 628 393 628 382 q 631 415 629 404 q 631 426 631 421 q 632 438 631 432 q 632 449 632 443 q 632 460 632 454 q 632 471 632 465 q 632 483 632 476 q 631 495 631 489 q 631 507 631 501 q 628 531 629 518 q 626 556 628 543 q 613 624 622 590 q 589 689 604 657 q 553 747 575 721 q 501 792 531 772 q 447 818 475 808 q 390 831 419 828 q 331 835 361 833 q 271 836 301 836 q 267 836 269 836 q 263 836 265 836 q 260 836 261 836 q 257 836 258 836 l 257 836 l 257 836 z "},"E":{"ha":836,"x_min":51,"x_max":744,"o":"m 169 833 q 167 833 168 833 q 165 833 165 833 q 163 833 164 833 q 160 833 161 833 q 153 833 157 833 q 147 833 150 833 q 144 832 146 832 q 139 832 142 832 q 137 832 138 832 q 136 832 136 832 q 134 832 135 832 q 132 832 133 832 q 129 832 131 832 q 126 832 128 832 q 124 832 125 832 q 122 832 124 832 q 101 833 111 832 q 81 836 90 835 q 65 844 71 839 q 56 860 58 850 q 53 862 54 861 q 53 864 53 863 q 53 867 53 865 q 53 869 53 868 q 51 872 51 871 q 51 874 51 872 q 51 876 51 875 q 51 879 51 878 q 56 897 51 889 q 68 910 60 904 q 86 918 76 915 q 107 921 96 921 l 471 921 q 485 921 478 921 q 500 921 493 921 q 515 922 507 921 q 531 924 522 922 q 535 924 533 924 q 539 924 538 924 q 542 924 540 924 q 544 924 543 924 q 546 924 544 924 q 549 924 547 924 q 574 924 561 924 q 599 926 586 925 q 612 926 606 926 q 625 928 618 926 q 638 928 631 928 q 650 928 644 928 q 652 928 651 928 q 654 928 653 928 q 657 928 656 928 q 660 928 658 928 q 662 928 661 928 q 664 928 663 928 q 667 928 665 928 q 669 928 668 928 q 701 922 689 926 q 717 910 713 918 q 724 891 721 901 q 726 867 726 881 q 726 860 726 864 q 726 854 726 857 q 726 847 726 850 q 726 840 726 843 l 719 699 q 715 677 718 686 q 706 661 713 668 q 693 652 700 656 q 679 649 686 649 q 663 652 671 649 q 649 664 656 656 q 638 684 642 672 q 635 711 635 696 q 622 784 633 757 q 588 819 611 811 q 536 830 565 826 q 471 833 507 833 q 463 833 467 833 q 457 833 460 833 q 451 833 454 833 q 444 833 447 833 l 289 833 l 289 533 q 294 533 292 533 q 301 533 297 533 q 310 533 306 533 q 318 533 314 533 q 326 532 322 532 q 335 532 331 532 q 344 532 339 532 q 354 532 349 532 q 355 532 354 532 q 357 532 356 532 q 359 532 358 532 q 361 532 360 532 q 385 533 374 532 q 408 535 397 533 q 428 541 419 538 q 442 550 436 544 q 449 561 446 556 q 453 572 451 567 q 455 585 454 579 q 457 597 456 592 q 457 599 457 599 q 457 601 457 600 q 457 604 457 603 q 457 607 457 606 q 461 631 457 621 q 471 649 465 642 q 485 659 478 656 q 500 664 492 663 q 500 664 500 664 q 501 664 500 664 q 501 664 501 664 q 501 664 501 664 q 502 664 501 664 q 504 664 503 664 q 519 661 511 664 q 532 651 526 658 q 542 638 539 646 q 544 621 544 631 l 544 336 q 541 319 544 326 q 531 306 538 311 q 515 297 524 300 q 499 294 507 294 q 492 294 496 294 q 486 296 489 294 q 481 297 483 296 q 475 300 478 299 q 465 312 469 304 q 458 329 461 319 q 456 352 457 340 q 454 376 454 364 q 454 377 454 376 q 454 379 454 378 q 454 380 454 379 q 454 382 454 381 q 454 392 454 388 q 454 403 454 397 q 454 408 454 406 q 456 414 454 411 q 456 418 456 415 q 456 424 456 421 q 456 432 456 428 q 456 440 456 436 q 456 444 456 443 q 457 447 456 446 q 457 451 457 450 q 457 454 457 453 l 289 454 l 289 85 l 463 85 q 542 90 507 85 q 603 107 578 96 q 642 149 628 118 q 660 231 657 181 q 664 256 660 246 q 674 274 668 267 q 687 285 681 281 q 701 292 693 290 q 701 292 701 292 q 703 292 701 292 q 703 292 703 292 q 703 292 703 292 q 703 292 703 292 q 706 292 704 292 q 719 288 713 292 q 732 276 726 283 q 742 259 739 269 q 744 235 744 249 l 744 38 q 740 13 744 22 q 725 0 735 3 q 705 -6 715 -4 q 683 -8 694 -8 q 681 -8 682 -8 q 679 -8 679 -8 q 676 -8 678 -8 q 674 -8 675 -8 q 671 -8 672 -8 q 669 -8 669 -8 q 667 -8 668 -8 q 664 -8 665 -8 q 656 -6 660 -7 q 650 -6 653 -6 q 642 -6 646 -6 q 636 -6 639 -6 q 541 -1 589 -1 q 444 0 493 0 q 397 0 421 0 q 350 0 374 0 q 301 0 325 0 q 254 0 278 0 q 249 0 251 0 q 243 0 246 0 q 236 0 239 0 q 231 0 233 0 q 225 0 228 0 q 219 0 222 0 q 213 0 215 0 q 207 0 210 0 q 203 0 206 0 q 200 0 201 0 q 196 0 197 0 q 192 0 194 0 q 183 0 188 0 q 175 0 179 0 q 171 0 174 0 q 167 0 168 0 q 162 0 164 0 q 157 0 160 0 q 153 0 156 0 q 149 0 150 0 q 144 0 146 0 q 139 0 142 0 q 109 1 124 0 q 82 4 94 1 q 63 15 69 7 q 53 33 56 22 q 53 34 53 33 q 53 36 53 35 q 53 37 53 36 q 53 39 53 38 q 51 40 51 39 q 51 42 51 40 q 51 42 51 42 q 51 44 51 43 q 58 65 51 57 q 74 78 64 74 q 95 84 85 82 q 118 88 106 86 q 121 88 119 88 q 124 88 122 88 q 126 88 125 88 q 129 88 128 88 q 135 88 132 88 q 140 88 138 88 q 146 88 143 88 q 151 88 149 88 q 156 86 154 86 q 160 86 158 86 q 163 86 161 86 q 165 86 164 86 q 167 86 165 86 q 169 86 168 86 l 169 833 l 169 833 l 169 833 z "},"F":{"ha":836,"x_min":54,"x_max":765,"o":"m 207 833 q 204 833 206 833 q 201 833 203 833 q 197 832 199 832 q 194 832 196 832 q 187 832 190 832 q 181 832 183 832 q 176 832 179 832 q 172 832 174 832 q 167 831 169 831 q 163 831 165 831 q 158 831 161 831 q 154 831 156 831 q 149 831 151 831 q 144 831 147 831 q 142 831 143 831 q 142 831 142 831 q 140 831 140 831 q 139 831 139 831 q 113 832 125 831 q 89 836 100 833 q 69 845 76 839 q 58 860 61 851 q 56 862 57 861 q 56 864 56 863 q 56 867 56 865 q 56 869 56 868 q 54 871 54 869 q 54 874 54 872 q 54 876 54 875 q 54 878 54 876 q 58 895 54 888 q 71 908 63 903 q 87 918 78 915 q 106 921 96 921 l 510 921 q 525 921 517 921 q 543 922 533 921 q 565 923 554 922 q 588 925 575 924 q 594 925 590 925 q 603 925 599 925 q 611 925 607 925 q 619 926 615 925 q 634 926 626 926 q 650 926 642 926 q 658 926 654 926 q 665 928 663 926 q 673 928 669 928 q 681 928 676 928 q 689 928 685 928 q 697 928 693 928 q 705 926 701 926 q 713 926 708 926 q 725 926 719 926 q 736 924 731 925 q 752 917 746 922 q 760 906 758 913 q 764 891 763 899 q 765 875 765 883 q 765 872 765 874 q 765 871 765 871 q 765 868 765 869 q 765 865 765 867 q 765 862 765 864 q 765 857 765 860 q 764 853 764 856 q 764 849 764 851 q 764 845 764 847 q 764 840 764 843 l 757 681 q 753 661 756 669 q 744 646 750 653 q 739 640 742 643 q 733 636 736 638 q 726 632 729 633 q 721 631 724 631 q 719 629 719 629 q 717 629 718 629 q 715 629 715 629 q 714 629 714 629 q 701 632 707 629 q 689 640 694 635 q 680 652 683 644 q 675 669 676 660 q 674 674 675 672 q 674 679 674 676 q 672 683 672 681 q 672 688 672 686 q 672 692 672 690 q 672 697 672 694 q 671 701 671 699 q 671 707 671 704 q 668 731 669 719 q 664 754 667 743 q 654 776 661 765 q 636 796 647 786 q 615 810 626 804 q 590 819 603 815 q 563 826 576 824 q 536 831 550 829 q 528 831 532 831 q 522 832 525 831 q 515 832 518 832 q 508 832 511 832 q 501 832 504 832 q 494 833 497 832 q 488 833 492 833 q 482 833 485 833 l 328 833 l 328 529 q 333 529 331 529 q 340 529 336 529 q 347 529 343 529 q 356 529 351 529 q 364 528 360 528 q 372 528 368 528 q 381 528 376 528 q 390 528 385 528 q 391 528 390 528 q 393 528 392 528 q 395 528 394 528 q 397 528 396 528 q 410 528 404 528 q 422 529 415 528 q 434 530 428 529 q 446 532 440 531 q 466 538 457 535 q 481 547 475 542 q 488 558 485 553 q 492 569 490 564 q 494 581 493 575 q 496 593 494 588 q 496 595 496 594 q 496 597 496 596 q 496 600 496 599 q 496 603 496 601 q 501 628 497 618 q 511 646 506 639 q 524 656 518 653 q 539 660 531 660 q 539 660 539 660 q 539 660 539 660 q 539 660 539 660 q 540 660 539 660 q 540 660 540 660 q 540 660 540 660 q 540 660 540 660 q 540 660 540 660 q 540 660 540 660 q 542 660 540 660 q 542 660 542 660 q 542 660 542 660 q 556 657 549 660 q 569 647 564 654 q 579 634 576 642 q 582 617 582 626 l 582 332 q 578 315 582 322 q 568 301 575 308 q 553 293 561 296 q 538 290 546 290 q 531 290 535 290 q 525 292 528 290 q 519 294 522 293 q 514 297 517 296 q 503 310 507 301 q 496 332 499 319 q 494 358 494 344 q 493 385 493 371 q 493 394 493 389 q 493 404 493 399 q 493 409 493 407 q 493 414 493 411 q 494 418 493 415 q 494 422 494 421 q 494 426 494 425 q 494 431 494 428 q 494 434 494 432 q 494 438 494 436 q 494 445 494 442 q 494 450 494 449 l 328 450 l 328 86 l 483 86 q 501 83 494 86 q 514 72 508 79 q 522 58 519 65 q 525 42 525 50 q 521 26 524 33 q 514 13 518 19 q 501 3 508 7 q 483 0 494 0 l 128 0 q 109 3 118 0 q 93 11 100 6 q 83 25 86 18 q 79 42 79 32 q 79 47 79 44 q 81 50 79 49 q 81 55 81 53 q 83 60 82 57 q 93 74 86 68 q 110 82 100 79 q 131 86 121 85 q 153 88 142 88 q 153 88 153 88 q 156 88 154 88 q 156 88 156 88 q 158 88 157 88 q 165 88 161 88 q 172 88 168 88 q 178 88 175 88 q 186 88 182 88 q 192 86 189 86 q 197 86 194 86 q 200 86 199 86 q 203 86 201 86 q 204 86 203 86 q 207 86 206 86 l 207 833 l 207 833 l 207 833 z "},"G":{"ha":836,"x_min":56,"x_max":807,"o":"m 725 125 q 725 123 725 124 q 725 121 725 122 q 725 119 725 119 q 725 117 725 118 q 723 83 725 96 q 717 64 721 71 q 708 55 713 58 q 699 51 704 51 q 696 51 697 51 q 694 51 694 51 q 692 52 693 51 q 689 53 690 53 q 685 53 688 53 q 681 56 683 54 q 678 56 679 56 q 676 56 678 56 q 674 56 675 56 q 674 57 674 56 q 672 57 672 57 q 671 57 671 57 q 669 57 669 57 q 667 57 668 57 q 665 57 665 57 q 664 58 664 57 q 662 58 663 58 q 661 58 661 58 q 659 58 660 58 q 658 58 658 58 q 656 57 657 57 q 654 57 656 57 q 652 57 653 57 q 651 57 651 57 q 649 56 650 56 q 649 56 649 56 q 640 52 644 54 q 632 47 636 50 q 624 44 628 46 q 615 39 619 42 q 613 37 614 38 q 611 36 613 36 q 608 34 610 35 q 606 33 607 33 q 592 25 599 29 q 578 18 585 21 q 563 11 571 14 q 549 6 556 8 q 513 -2 531 1 q 478 -10 496 -6 q 442 -15 460 -12 q 406 -17 424 -17 q 302 -1 350 -17 q 214 47 254 14 q 143 123 172 81 q 94 217 114 165 q 78 271 85 243 q 65 328 71 299 q 58 388 60 357 q 56 450 56 419 q 56 456 56 453 q 56 464 56 460 q 56 468 56 467 q 56 472 56 469 q 56 476 56 474 q 56 479 56 478 q 64 558 58 519 q 79 633 69 596 q 103 704 89 671 q 135 768 117 738 q 191 840 158 808 q 265 894 224 872 q 349 929 306 918 q 439 940 393 940 q 458 940 449 940 q 478 938 468 939 q 497 935 488 936 q 517 931 507 933 q 523 928 519 929 q 531 926 526 928 q 535 924 533 925 q 539 924 536 924 q 542 922 540 922 q 546 921 544 921 q 554 918 550 919 q 563 915 558 917 q 567 913 565 914 q 572 913 569 913 q 576 911 574 911 q 581 911 579 911 q 586 909 583 910 q 592 908 589 908 q 597 908 594 908 q 603 908 600 908 q 603 908 603 908 q 604 908 603 908 q 604 908 604 908 q 604 908 604 908 q 605 908 604 908 q 607 908 606 908 q 612 908 610 908 q 615 908 614 908 q 620 908 618 908 q 624 910 622 908 q 624 910 624 910 q 626 911 625 910 q 627 911 626 911 q 629 911 628 911 q 634 912 632 911 q 638 914 636 913 q 639 914 638 914 q 642 915 640 914 q 642 915 642 915 q 644 917 643 915 q 645 917 644 917 q 647 917 646 917 q 653 917 650 917 q 658 919 656 918 q 661 919 660 919 q 665 921 663 919 q 668 921 667 921 q 671 921 669 921 q 671 921 671 921 q 672 921 671 921 q 672 921 672 921 q 672 921 672 921 q 673 921 672 921 q 675 921 674 921 q 677 921 676 921 q 679 921 678 921 q 681 921 681 921 q 683 921 682 921 q 702 915 694 919 q 714 901 710 910 q 722 884 718 893 q 726 865 725 875 q 726 858 726 861 q 726 851 726 854 q 726 849 726 850 q 728 846 726 847 q 728 843 728 844 q 728 840 728 842 l 733 665 q 733 663 733 664 q 733 663 733 663 q 733 663 733 663 q 733 663 733 663 q 733 661 733 661 q 733 661 733 661 q 730 636 733 647 q 719 617 726 625 q 705 603 713 608 q 689 599 697 599 q 687 599 688 599 q 686 599 686 599 q 686 599 686 599 q 686 599 686 599 q 685 599 685 599 q 685 599 685 599 q 685 599 685 599 q 685 599 685 599 q 683 599 683 599 q 683 599 683 599 q 683 599 683 599 q 683 599 683 599 q 683 599 683 599 q 683 599 683 599 q 682 599 682 599 q 682 599 682 599 q 682 599 682 599 q 682 599 682 599 q 680 599 681 599 q 679 599 679 599 q 677 599 678 599 q 676 599 676 599 q 666 602 671 600 q 657 608 661 604 q 649 619 651 613 q 643 633 646 625 q 640 644 642 639 q 639 656 639 650 q 639 667 639 663 q 639 678 639 672 q 638 680 639 679 q 638 682 638 681 q 638 683 638 682 q 638 685 638 683 q 638 690 638 688 q 638 693 638 692 q 636 710 638 701 q 633 726 635 718 q 631 742 632 733 q 626 758 629 750 q 610 791 622 775 q 576 822 597 807 q 554 835 567 829 q 529 846 542 842 q 517 850 524 849 q 504 853 510 851 q 491 854 497 853 q 478 856 485 856 q 474 856 476 856 q 469 856 472 856 q 467 856 468 856 q 464 856 465 856 q 435 853 450 856 q 407 849 421 851 q 380 840 393 844 q 356 831 367 836 q 283 776 314 810 q 233 694 253 742 q 205 597 215 647 q 192 494 194 547 q 192 490 192 493 q 192 486 192 488 q 192 481 192 483 q 192 476 192 479 q 192 468 192 472 q 192 460 192 464 q 194 397 192 428 q 201 336 196 365 q 212 281 206 307 q 226 231 218 254 q 262 158 240 189 q 313 108 283 128 q 373 79 342 89 q 439 69 404 69 q 449 69 444 69 q 460 69 454 69 q 470 71 465 69 q 481 74 475 72 q 512 81 496 76 q 543 90 528 85 q 574 106 558 97 q 603 125 589 115 l 603 299 q 594 299 599 299 q 586 299 590 299 q 578 299 582 299 q 569 299 574 299 q 565 298 568 299 q 561 297 563 297 q 556 297 558 297 q 551 297 554 297 q 543 297 547 297 q 535 297 539 297 q 521 297 528 297 q 507 297 514 297 q 495 298 501 297 q 482 300 489 299 q 472 302 476 300 q 463 307 467 304 q 456 313 458 310 q 451 322 453 317 q 451 323 451 322 q 451 325 451 324 q 450 326 450 325 q 450 326 450 326 q 450 329 450 328 q 450 332 450 331 q 449 333 449 332 q 449 336 449 335 q 449 338 449 338 q 449 340 449 339 q 451 357 449 349 q 460 371 454 365 q 473 381 465 378 q 490 385 481 385 l 764 385 q 783 381 775 385 q 796 371 790 378 q 804 357 801 365 q 807 340 807 349 q 807 338 807 339 q 807 338 807 338 q 807 335 807 336 q 807 335 807 335 q 806 333 806 333 q 806 332 806 332 q 806 332 806 332 q 806 332 806 332 q 806 331 806 331 q 806 331 806 331 q 800 314 804 321 q 789 304 796 307 q 774 300 782 301 q 757 299 765 299 q 755 299 756 299 q 753 299 754 299 q 751 299 751 299 q 750 299 750 299 q 748 299 749 299 q 746 299 747 299 q 743 299 744 299 q 742 299 742 299 q 738 299 740 299 q 733 299 736 299 q 730 299 732 299 q 725 299 728 299 l 725 125 l 725 125 l 725 125 z "},"H":{"ha":836,"x_min":26,"x_max":810,"o":"m 136 85 l 136 836 q 133 836 135 836 q 132 836 132 836 q 129 836 131 836 q 126 836 128 836 q 121 836 124 836 q 115 836 118 836 q 108 835 111 835 q 103 835 106 835 q 97 835 100 835 q 90 835 93 835 q 72 836 81 835 q 54 839 63 838 q 40 847 46 842 q 31 861 33 853 q 28 863 29 863 q 28 865 28 864 q 28 868 28 867 q 28 871 28 869 q 26 872 26 871 q 26 875 26 874 q 26 877 26 876 q 26 879 26 878 q 31 897 26 889 q 43 910 35 904 q 60 918 50 915 q 79 921 69 921 l 332 921 q 350 918 342 921 q 367 908 358 915 q 379 895 375 903 q 383 878 383 888 q 383 876 383 876 q 383 874 383 875 q 382 872 382 872 q 382 869 382 871 q 381 866 382 868 q 379 861 381 864 q 369 847 375 853 q 354 839 363 842 q 335 835 344 836 q 315 833 326 833 q 307 833 311 833 q 299 833 303 833 q 295 833 297 833 q 290 835 293 833 q 287 835 289 835 q 283 835 285 835 q 276 835 279 835 q 269 835 272 835 q 266 835 268 835 q 263 836 264 835 q 260 836 261 836 q 257 836 258 836 l 257 531 l 579 531 l 579 836 q 576 836 578 836 q 574 836 575 836 q 569 835 571 835 q 567 835 568 835 q 560 835 564 835 q 553 835 557 835 q 550 835 551 835 q 549 835 549 835 q 546 833 547 833 q 543 833 544 833 q 537 833 540 833 q 531 833 533 833 q 528 833 529 833 q 526 833 528 833 q 524 833 525 833 q 522 833 524 833 q 502 835 513 833 q 482 838 492 836 q 466 846 472 840 q 457 861 460 851 q 456 864 457 863 q 456 867 456 865 q 454 868 454 867 q 454 871 454 869 q 453 876 453 874 q 453 879 453 878 q 457 897 453 889 q 469 910 461 904 q 488 918 478 915 q 507 921 497 921 l 756 921 q 756 921 756 921 q 757 921 756 921 q 757 921 757 921 q 757 921 757 921 q 758 921 757 921 q 760 921 758 921 q 776 917 768 919 q 793 907 785 914 q 806 894 801 901 q 810 879 810 886 q 810 879 810 879 q 810 879 810 879 q 810 878 810 878 q 810 878 810 878 q 810 878 810 878 q 810 878 810 878 q 810 878 810 878 q 810 878 810 878 q 810 876 810 876 q 810 876 810 876 q 810 876 810 876 q 810 876 810 876 q 810 874 810 875 q 810 872 810 874 q 808 870 808 871 q 808 868 808 869 q 808 866 808 867 q 808 865 808 865 q 807 863 807 864 q 807 863 807 863 q 805 860 806 861 q 804 860 804 860 q 802 858 803 858 q 801 856 801 857 q 801 853 801 854 q 799 853 800 853 q 798 851 799 851 q 796 849 797 850 q 785 842 790 844 q 772 838 779 839 q 758 835 765 836 q 743 835 750 835 q 740 835 742 835 q 738 835 739 835 q 735 835 736 835 q 732 835 733 835 q 730 835 731 835 q 729 835 729 835 q 727 835 728 835 q 725 835 726 835 q 722 835 724 835 q 719 836 721 835 q 714 836 717 836 q 708 836 711 836 q 703 836 706 836 q 699 836 701 836 l 699 85 q 703 85 701 85 q 707 85 706 85 q 713 85 710 85 q 718 86 715 85 q 724 86 721 86 q 729 86 726 86 q 735 86 732 86 q 740 86 738 86 q 740 86 740 86 q 742 86 740 86 q 742 86 742 86 q 742 86 742 86 q 742 86 742 86 q 744 86 743 86 q 767 84 756 86 q 788 78 778 82 q 803 65 799 74 q 808 43 808 56 q 804 24 808 32 q 792 10 800 15 q 774 2 783 4 q 756 0 765 0 l 507 0 q 488 3 497 0 q 469 11 478 6 q 457 25 461 18 q 453 42 453 32 q 453 44 453 43 q 453 46 453 44 q 453 49 453 47 q 454 51 453 50 q 454 53 454 51 q 454 56 454 54 q 455 58 454 57 q 457 60 456 58 q 466 74 460 68 q 482 82 472 79 q 501 86 490 85 q 521 88 511 88 q 526 88 524 88 q 529 88 528 88 q 534 86 532 86 q 538 86 536 86 q 542 86 540 86 q 546 86 543 86 q 549 86 547 86 q 553 86 551 86 q 557 86 556 86 q 560 86 558 86 q 564 85 563 85 q 567 85 565 85 q 573 85 569 85 q 579 85 576 85 l 579 432 l 257 432 l 257 85 q 263 85 260 85 q 268 85 265 85 q 272 85 269 85 q 275 86 274 85 q 280 86 278 86 q 283 86 282 86 q 288 86 286 86 q 293 86 290 86 q 296 86 294 86 q 299 88 297 86 q 302 88 300 88 q 306 88 304 88 q 306 88 306 88 q 308 88 307 88 q 311 88 310 88 q 314 88 313 88 q 334 86 325 88 q 353 82 343 85 q 369 74 363 81 q 379 60 375 68 q 379 59 379 60 q 381 58 379 58 q 381 56 381 57 q 381 56 381 56 q 381 53 381 54 q 382 53 381 53 q 382 51 382 51 q 382 51 382 51 q 382 49 382 50 q 383 49 382 49 q 383 47 383 47 q 383 46 383 46 q 383 44 383 44 q 383 42 383 43 q 378 25 382 32 q 367 11 374 18 q 350 3 358 6 q 332 0 342 0 l 79 0 q 60 3 69 0 q 42 13 50 7 q 30 26 33 19 q 26 43 26 33 q 26 48 26 46 q 28 51 26 50 q 28 56 28 54 q 31 60 29 58 q 40 74 33 68 q 54 81 46 79 q 72 85 63 83 q 90 86 81 86 q 97 86 93 86 q 103 86 100 86 q 108 86 106 86 q 115 86 111 86 q 121 85 118 85 q 126 85 124 85 q 129 85 128 85 q 132 85 131 85 q 133 85 132 85 q 136 85 135 85 l 136 85 l 136 85 z "},"I":{"ha":836,"x_min":103,"x_max":733,"o":"m 157 836 q 157 836 157 836 q 157 836 157 836 q 156 836 156 836 q 156 836 156 836 q 156 836 156 836 q 156 836 156 836 q 156 836 156 836 q 156 836 156 836 q 154 836 154 836 q 154 836 154 836 q 154 836 154 836 q 154 836 154 836 q 131 840 140 836 q 115 849 122 843 q 106 863 110 856 q 103 879 103 871 q 106 894 103 886 q 117 907 110 901 q 133 917 124 914 q 157 921 143 921 l 618 921 q 639 917 629 921 q 654 907 649 914 q 664 894 661 901 q 667 879 667 886 q 667 879 667 879 q 667 879 667 879 q 667 878 667 878 q 667 878 667 878 q 667 878 667 878 q 667 878 667 878 q 667 878 667 878 q 667 878 667 878 q 667 876 667 876 q 667 876 667 876 q 667 876 667 876 q 667 876 667 876 q 664 862 667 868 q 654 849 661 856 q 639 840 649 843 q 618 836 629 836 l 467 836 l 467 88 l 679 88 q 679 88 679 88 q 679 88 679 88 q 679 88 679 88 q 681 88 679 88 q 681 88 681 88 q 681 88 681 88 q 681 88 681 88 q 681 88 681 88 q 681 88 681 88 q 682 88 681 88 q 682 88 682 88 q 682 88 682 88 q 705 84 694 88 q 721 74 715 81 q 731 60 728 68 q 733 44 733 53 q 730 28 733 36 q 719 14 726 21 q 703 3 714 7 q 679 0 693 0 l 194 0 q 172 3 182 0 q 156 13 163 7 q 147 26 150 19 q 143 42 143 33 q 143 42 143 42 q 143 42 143 42 q 143 42 143 42 q 143 44 143 43 q 147 60 143 53 q 156 74 150 68 q 172 84 163 81 q 194 88 181 88 l 340 88 l 340 836 l 157 836 l 157 836 l 157 836 z "},"J":{"ha":836,"x_min":76,"x_max":788,"o":"m 643 251 q 643 244 643 247 q 643 238 643 240 q 643 232 643 235 q 643 226 643 229 q 638 169 642 197 q 625 114 633 142 q 600 65 617 88 q 558 26 583 43 q 521 7 540 14 q 481 -6 501 0 q 460 -10 471 -8 q 439 -14 449 -12 q 417 -17 428 -15 q 396 -18 407 -18 q 391 -18 393 -18 q 386 -18 389 -18 q 383 -18 385 -18 q 378 -18 381 -18 q 353 -17 365 -18 q 329 -15 340 -17 q 305 -13 317 -14 q 282 -10 293 -12 q 274 -8 278 -8 q 264 -7 269 -7 q 255 -5 260 -6 q 246 -3 250 -4 q 237 -1 242 -1 q 228 0 232 0 q 217 1 222 0 q 208 3 213 1 q 174 13 190 7 q 140 28 157 19 q 111 48 124 36 q 90 74 99 60 q 85 86 88 78 q 81 104 83 94 q 78 126 79 115 q 76 147 76 136 q 76 150 76 149 q 76 153 76 151 q 76 154 76 153 q 76 157 76 156 q 76 160 76 158 q 76 163 76 161 q 76 164 76 163 q 76 167 76 165 q 76 183 76 175 q 78 199 76 192 q 78 212 78 206 q 81 222 79 218 q 88 236 83 229 q 99 249 92 243 q 113 257 106 254 q 128 261 119 260 q 128 261 128 261 q 131 261 129 261 q 131 261 131 261 q 133 261 132 261 q 144 260 139 261 q 153 257 149 260 q 161 251 157 256 q 168 243 165 247 q 176 225 172 233 q 181 210 179 217 q 183 201 182 206 q 185 194 183 197 q 185 187 185 190 q 188 179 186 183 q 191 161 189 169 q 196 144 193 153 q 199 136 197 140 q 204 129 201 132 q 211 121 207 125 q 221 113 215 117 q 229 106 225 110 q 239 100 233 103 q 251 94 244 97 q 264 88 257 90 q 288 78 275 82 q 313 71 300 74 q 338 67 325 68 q 364 65 350 65 q 395 67 379 65 q 425 75 411 69 q 453 90 440 81 q 476 111 465 99 q 499 148 490 128 q 513 190 508 168 q 519 237 517 214 q 524 285 522 260 q 524 288 524 286 q 524 290 524 289 q 524 292 524 292 q 524 294 524 293 q 524 295 524 294 q 524 297 524 296 q 524 303 524 300 q 524 310 524 306 q 524 315 524 313 q 524 321 524 318 q 524 326 524 324 q 524 333 524 329 q 524 339 524 336 q 524 344 524 342 q 522 356 522 350 q 522 367 522 361 q 522 378 522 374 q 522 389 522 383 l 522 836 q 517 836 519 836 q 511 836 514 836 q 504 836 507 836 q 499 836 501 836 q 488 836 493 836 q 476 836 482 836 q 465 835 471 835 q 451 835 458 835 q 440 835 446 835 q 429 835 435 835 q 423 835 426 835 q 417 835 419 835 q 411 835 414 835 q 406 835 408 835 q 399 835 403 835 q 393 835 396 835 q 390 835 392 835 q 388 836 389 835 q 385 836 386 836 q 382 836 383 836 q 371 838 376 836 q 360 843 365 840 q 351 850 354 846 q 344 860 347 854 q 344 863 344 861 q 343 865 343 864 q 342 867 342 865 q 342 869 342 868 q 341 872 342 871 q 340 875 340 874 q 340 876 340 875 q 340 879 340 878 q 344 897 340 890 q 357 910 349 904 q 375 918 365 915 q 396 921 385 921 l 735 921 q 756 918 746 921 q 772 910 765 915 q 783 897 779 904 q 788 878 788 889 q 788 876 788 876 q 788 875 788 875 q 788 874 788 874 q 788 874 788 874 q 786 872 786 872 q 786 871 786 871 q 786 869 786 869 q 786 868 786 868 q 778 851 785 858 q 761 840 772 843 q 738 835 750 836 q 713 833 725 833 q 710 833 711 833 q 710 833 710 833 q 710 833 710 833 q 710 833 710 833 q 708 833 708 833 q 708 833 708 833 q 706 833 707 833 q 704 833 706 833 q 702 833 703 833 q 701 833 701 833 q 693 833 697 833 q 685 833 689 833 q 681 833 683 833 q 678 835 679 833 q 675 835 676 835 q 672 835 674 835 q 663 835 667 835 q 656 835 658 835 q 652 835 654 835 q 649 836 650 835 q 646 836 647 836 q 643 836 644 836 l 643 251 l 643 251 l 643 251 z "},"K":{"ha":836,"x_min":13,"x_max":846,"o":"m 128 836 q 125 836 126 836 q 122 836 124 836 q 119 835 121 835 q 117 835 118 835 q 110 835 114 835 q 104 835 107 835 q 101 835 103 835 q 99 835 100 835 q 94 833 96 833 q 92 833 93 833 q 84 833 88 833 q 78 833 81 833 q 58 835 68 833 q 40 839 49 836 q 26 847 32 842 q 17 861 19 853 q 16 864 17 863 q 15 867 15 865 q 14 868 14 867 q 14 871 14 869 q 13 876 13 874 q 13 879 13 878 q 16 897 13 889 q 28 910 19 904 q 45 918 36 915 q 64 921 54 921 l 297 921 q 298 921 297 921 q 300 921 299 921 q 302 921 301 921 q 304 921 303 921 q 321 916 313 919 q 338 906 329 913 q 349 893 344 900 q 353 879 353 886 q 353 879 353 879 q 353 879 353 879 q 353 878 353 878 q 353 878 353 878 q 353 878 353 878 q 353 878 353 878 q 353 878 353 878 q 353 878 353 878 q 353 876 353 876 q 353 876 353 876 q 353 876 353 876 q 353 876 353 876 q 353 874 353 875 q 353 872 353 874 q 351 870 351 871 q 351 868 351 869 q 351 866 351 867 q 351 865 351 865 q 350 863 350 864 q 350 863 350 863 q 348 860 349 861 q 347 860 347 860 q 345 858 346 858 q 344 856 344 857 q 344 853 344 854 q 342 853 343 853 q 341 851 342 851 q 339 849 340 850 q 328 842 333 844 q 315 838 322 839 q 302 835 310 836 q 288 835 294 835 q 282 835 285 835 q 276 835 279 835 q 274 835 275 835 q 272 835 272 835 q 269 835 271 835 q 267 836 268 836 q 264 836 265 836 q 263 836 263 836 q 260 836 261 836 q 257 836 258 836 q 253 836 256 836 q 249 836 251 836 l 249 479 q 287 508 268 493 q 324 536 306 522 q 357 569 340 551 q 388 606 374 586 l 529 794 q 531 797 531 796 q 532 800 532 799 q 534 801 533 800 q 535 804 535 803 q 535 807 535 806 q 536 810 536 808 q 538 811 538 810 q 538 814 538 813 q 533 824 536 819 q 522 829 529 828 q 508 833 515 832 q 492 835 500 833 q 483 835 488 835 q 475 835 479 835 q 468 835 471 835 q 463 835 465 835 q 460 835 461 835 q 457 835 458 835 q 454 835 456 835 q 453 836 453 835 q 450 836 451 836 q 449 836 449 836 q 447 836 447 836 q 446 836 446 836 q 431 842 438 839 q 419 850 424 844 q 413 862 415 856 q 411 874 411 868 q 411 874 411 874 q 411 874 411 874 q 411 874 411 874 q 411 876 411 875 q 415 892 411 885 q 424 907 418 900 q 440 917 431 914 q 464 921 450 921 l 703 921 q 724 917 714 921 q 743 907 735 914 q 756 894 751 901 q 760 878 760 886 q 760 878 760 878 q 760 878 760 878 q 760 878 760 878 q 760 878 760 878 q 760 876 760 876 q 760 876 760 876 q 760 876 760 876 q 760 876 760 876 q 759 868 760 872 q 756 860 758 864 q 750 852 754 856 q 740 846 746 849 q 725 838 732 840 q 711 832 718 835 q 700 828 706 831 q 690 825 694 826 q 688 823 689 824 q 685 822 686 822 q 683 822 683 822 q 682 822 682 822 q 680 821 681 821 q 679 821 679 821 q 666 815 674 819 q 651 803 658 810 q 633 785 643 797 q 610 756 622 772 l 479 583 q 460 560 469 571 q 440 538 451 549 q 420 515 431 526 q 399 493 410 504 l 671 157 q 677 147 674 151 q 685 139 681 143 q 691 131 688 135 q 699 125 694 128 q 719 109 708 115 q 739 99 729 103 q 763 92 750 94 q 793 88 776 89 q 812 83 803 86 q 829 76 821 81 q 842 63 838 71 q 846 43 846 54 q 841 21 846 29 q 826 8 836 13 q 806 2 817 4 q 783 0 794 0 q 781 0 782 0 q 779 0 781 0 q 777 0 778 0 q 776 0 776 0 q 771 0 774 0 q 765 0 768 0 q 763 0 764 0 q 761 0 761 0 q 758 0 760 0 q 756 0 757 0 q 752 0 754 0 q 747 0 750 0 q 744 0 746 0 q 739 0 742 0 q 732 0 735 0 q 726 0 729 0 q 721 0 724 0 q 715 0 718 0 q 693 0 703 0 q 675 0 683 0 q 660 3 667 0 q 646 10 653 6 q 638 16 642 13 q 629 24 633 19 q 620 33 625 28 q 610 46 615 39 l 317 424 q 300 413 308 418 q 283 401 292 407 q 275 396 279 399 q 267 390 271 393 q 257 385 261 388 q 249 381 253 383 l 249 86 q 255 86 251 86 q 263 86 258 86 q 269 86 265 86 q 278 88 274 86 q 286 88 282 88 q 294 88 290 88 q 303 88 299 88 q 314 88 308 88 q 323 88 318 88 q 332 88 328 88 q 342 86 338 86 q 350 86 346 86 q 365 84 358 85 q 378 82 372 83 q 388 78 383 81 q 396 71 392 75 q 401 62 399 67 q 404 51 403 57 q 404 49 404 50 q 406 49 404 49 q 406 47 406 47 q 406 44 406 46 q 406 42 406 43 q 406 39 406 40 q 401 21 406 29 q 389 8 397 13 q 372 2 381 4 q 353 0 364 0 l 90 0 q 72 3 81 0 q 54 13 63 7 q 42 26 46 19 q 39 43 39 33 q 39 48 39 46 q 40 51 39 50 q 41 56 40 54 q 43 60 42 58 q 51 72 46 67 q 64 79 57 78 q 78 83 71 82 q 93 86 85 85 q 94 86 93 86 q 97 86 96 86 q 100 86 99 86 q 103 86 101 86 q 109 86 106 86 q 115 86 113 86 q 122 86 118 86 q 128 86 125 86 l 128 836 l 128 836 l 128 836 z "},"L":{"ha":836,"x_min":22,"x_max":781,"o":"m 186 829 q 176 829 181 829 q 167 829 171 829 q 156 829 161 829 q 147 829 151 829 q 136 828 142 828 q 126 828 131 828 q 116 828 121 828 q 107 828 111 828 q 97 828 101 828 q 86 828 92 828 q 76 828 81 828 q 65 829 71 828 q 53 833 60 831 q 42 838 47 835 q 33 845 36 840 q 26 856 29 850 q 26 858 26 857 q 25 861 25 860 q 24 863 24 861 q 24 865 24 864 q 22 871 22 868 q 22 876 22 874 q 26 895 22 888 q 39 908 31 903 q 58 918 47 915 q 79 921 68 921 l 407 921 q 428 917 418 921 q 447 907 439 914 q 460 892 456 900 q 465 874 465 883 q 465 872 465 872 q 465 869 465 871 q 464 867 464 868 q 464 865 464 867 q 464 863 464 864 q 464 863 464 863 q 463 860 463 861 q 463 858 463 860 q 460 855 461 857 q 457 850 458 853 q 455 848 456 849 q 454 847 454 847 q 452 845 453 846 q 450 843 451 844 q 439 836 446 839 q 422 831 432 833 q 402 828 413 829 q 381 826 392 826 q 378 826 379 826 q 378 826 378 826 q 376 826 376 826 q 375 826 375 826 q 365 826 369 826 q 354 826 360 826 q 349 826 351 826 q 344 828 347 826 q 341 828 343 828 q 336 828 339 828 q 326 828 331 828 q 319 828 322 828 q 316 828 318 828 q 313 829 314 828 q 310 829 311 829 q 307 829 308 829 l 307 88 l 504 88 q 510 88 507 88 q 515 88 513 88 q 522 88 518 88 q 528 88 525 88 q 534 86 531 86 q 540 86 538 86 q 547 86 543 86 q 554 86 550 86 q 557 86 556 86 q 560 86 558 86 q 563 86 561 86 q 565 86 564 86 q 592 88 579 86 q 618 93 606 90 q 642 101 631 96 q 664 117 654 107 q 675 131 671 124 q 681 147 679 138 q 685 165 683 156 q 688 185 686 175 q 688 187 688 186 q 688 189 688 188 q 688 192 688 190 q 689 194 688 193 q 689 195 689 194 q 689 197 689 196 q 689 198 689 197 q 689 200 689 199 q 689 206 689 203 q 689 211 689 210 q 689 217 689 214 q 690 222 689 219 q 690 228 690 225 q 690 233 690 231 q 691 240 690 236 q 693 246 692 243 q 697 266 694 257 q 704 283 700 275 q 717 296 708 292 q 738 300 725 300 q 738 300 738 300 q 740 300 739 300 q 741 300 740 300 q 743 300 742 300 q 743 299 743 299 q 744 299 743 299 q 745 299 744 299 q 747 299 746 299 q 765 292 758 297 q 774 279 771 288 q 778 263 776 271 q 781 244 781 254 q 781 242 781 243 q 781 240 781 242 q 781 238 781 239 q 781 236 781 238 l 765 38 q 761 13 764 22 q 751 0 758 3 q 736 -5 746 -3 q 715 -7 726 -7 q 713 -7 714 -7 q 710 -7 711 -7 q 708 -7 708 -7 q 706 -7 707 -7 q 703 -7 704 -7 q 700 -7 701 -7 q 698 -7 699 -7 q 696 -7 697 -7 q 683 -6 690 -7 q 671 -6 676 -6 q 658 -4 664 -4 q 644 -4 651 -4 q 633 -4 639 -4 q 619 -4 626 -4 q 608 -3 614 -3 q 594 -3 601 -3 q 592 -3 593 -3 q 589 -3 590 -3 q 585 -1 586 -1 q 582 -1 583 -1 q 576 -1 579 -1 q 569 -1 572 -1 q 537 0 553 0 q 506 0 521 0 q 474 0 490 0 q 443 0 458 0 q 383 0 413 0 q 324 0 353 0 q 294 0 310 0 q 265 0 279 0 q 235 0 250 0 q 206 0 221 0 q 201 0 204 0 q 194 0 197 0 q 187 0 190 0 q 181 0 183 0 q 172 0 176 0 q 164 0 168 0 q 160 0 163 0 q 156 0 158 0 q 152 0 154 0 q 147 0 150 0 q 145 0 146 0 q 144 0 144 0 q 144 0 144 0 q 144 0 144 0 q 143 0 143 0 q 143 0 143 0 q 115 1 129 0 q 89 6 101 1 q 71 18 76 10 q 65 39 65 26 q 65 42 65 40 q 65 44 65 43 q 65 47 65 46 q 65 49 65 47 q 66 49 65 49 q 67 51 67 50 q 74 69 69 63 q 89 79 79 75 q 108 84 97 82 q 128 88 118 86 q 129 88 128 88 q 132 88 131 88 q 134 88 133 88 q 136 88 135 88 q 142 88 139 88 q 150 88 146 88 q 156 88 153 88 q 164 88 160 88 q 169 86 167 86 q 175 86 172 86 q 181 86 178 86 q 186 86 185 86 l 186 829 l 186 829 l 186 829 z "},"M":{"ha":836,"x_min":-15,"x_max":856,"o":"m 629 739 l 465 372 q 452 347 460 358 q 436 329 444 336 q 419 317 428 321 q 403 314 411 314 q 388 317 396 314 q 374 325 381 319 q 360 341 367 332 q 347 363 354 350 l 175 721 l 175 214 q 178 149 175 174 q 186 114 181 124 q 210 98 193 104 q 254 89 226 92 q 263 87 258 88 q 272 86 267 86 q 284 84 278 85 q 296 83 290 83 q 316 78 307 82 q 331 68 325 75 q 339 56 336 63 q 343 43 342 50 q 343 41 343 42 q 343 40 343 40 q 343 40 343 40 q 343 40 343 40 q 343 39 343 39 q 343 39 343 39 q 340 26 343 32 q 332 13 338 19 q 319 3 326 7 q 300 0 311 0 l 36 0 q 23 3 29 0 q 13 11 17 6 q 4 23 7 17 q 1 36 1 29 q 1 36 1 36 q 1 38 1 36 q 1 38 1 38 q 1 38 1 38 q 1 38 1 38 q 1 40 1 39 q 1 40 1 40 q 1 40 1 40 q 1 40 1 40 q 1 42 1 40 q 1 42 1 42 q 1 42 1 42 q 1 42 1 42 q 1 42 1 42 q 1 42 1 42 q 1 43 1 42 q 1 43 1 43 q 1 43 1 43 q 3 56 1 50 q 10 68 6 63 q 22 79 14 75 q 39 86 29 83 q 53 90 47 88 q 64 96 60 92 q 71 105 68 99 q 75 121 74 111 q 77 132 76 126 q 78 143 78 138 q 78 149 78 146 q 79 156 78 153 q 79 162 79 158 q 79 168 79 165 q 79 174 79 171 q 79 182 79 178 q 79 190 79 186 q 79 199 79 194 q 79 201 79 200 q 79 203 79 201 q 79 203 79 203 q 79 206 79 204 q 79 210 79 208 q 79 214 79 213 l 79 836 q 76 836 78 836 q 71 836 74 836 q 68 836 69 836 q 67 836 67 836 q 64 836 65 836 q 61 836 63 836 q 58 835 60 836 q 57 835 57 835 q 54 835 56 835 q 51 835 53 835 q 49 835 50 835 q 47 835 47 835 q 44 835 46 835 q 42 835 43 835 q 28 835 35 835 q 15 838 22 836 q 5 842 10 839 q -4 849 0 844 q -9 855 -7 851 q -12 863 -11 858 q -15 871 -14 867 q -15 879 -15 875 q -15 883 -15 882 q -14 888 -15 885 q -13 891 -14 889 q -12 894 -12 893 q -9 902 -11 899 q -4 908 -7 906 q 7 916 0 913 q 24 921 14 919 q 46 923 35 922 q 69 924 57 924 q 75 924 72 924 q 81 924 78 924 q 86 922 83 922 q 92 922 89 922 q 103 922 97 922 q 114 922 108 922 q 119 922 117 922 q 124 922 121 922 q 128 921 125 921 q 132 921 131 921 q 140 921 136 921 q 147 921 144 921 q 167 919 158 921 q 182 913 176 917 q 194 901 189 908 q 204 883 199 894 l 406 458 l 583 865 q 593 886 588 876 q 607 904 599 896 q 624 917 614 913 q 649 921 635 921 l 793 921 q 808 917 801 921 q 821 907 815 914 q 831 894 828 901 q 833 879 833 886 q 833 879 833 879 q 833 879 833 879 q 833 878 833 878 q 833 878 833 878 q 833 878 833 878 q 833 878 833 878 q 833 878 833 878 q 833 878 833 878 q 833 876 833 876 q 833 876 833 876 q 833 876 833 876 q 833 876 833 876 q 833 874 833 875 q 833 874 833 874 q 833 874 833 874 q 833 874 833 874 q 833 872 833 872 q 833 871 833 871 q 833 871 833 871 q 833 871 833 871 q 833 869 833 869 q 833 869 833 869 q 827 852 832 860 q 814 842 822 844 q 797 836 806 838 q 779 835 789 835 q 777 835 778 835 q 776 835 776 835 q 776 835 776 835 q 776 835 776 835 q 775 835 775 835 q 775 835 775 835 q 769 835 772 835 q 764 835 767 835 q 761 835 763 835 q 760 835 760 835 q 757 835 758 835 q 754 836 756 836 q 751 836 753 836 q 746 836 749 836 q 742 836 744 836 q 738 836 740 836 l 738 86 q 742 86 740 86 q 746 86 744 86 q 751 86 749 86 q 758 88 754 86 q 764 88 761 88 q 769 88 767 88 q 776 88 772 88 q 782 88 779 88 q 782 88 782 88 q 783 88 782 88 q 783 88 783 88 q 783 88 783 88 q 784 88 783 88 q 786 88 785 88 q 811 85 799 88 q 833 79 824 83 q 850 66 844 75 q 856 43 856 57 q 851 24 856 32 q 839 10 847 15 q 822 2 831 4 q 803 0 813 0 l 550 0 q 531 3 540 0 q 514 11 522 6 q 501 24 506 17 q 497 40 497 31 q 497 40 497 40 q 497 40 497 40 q 497 40 497 40 q 497 42 497 40 q 497 42 497 42 q 497 42 497 42 q 497 42 497 42 q 497 42 497 42 q 497 42 497 42 q 497 43 497 42 q 497 43 497 43 q 497 43 497 43 q 497 48 497 46 q 497 51 497 50 q 498 56 497 54 q 500 60 499 58 q 509 72 503 67 q 525 81 515 78 q 544 85 533 83 q 564 88 554 86 q 566 88 565 88 q 568 88 567 88 q 569 88 568 88 q 571 88 569 88 q 573 88 572 88 q 575 88 574 88 q 576 88 575 88 q 578 88 576 88 q 582 88 581 88 q 586 88 583 88 q 590 88 588 88 q 593 88 592 88 q 599 88 596 88 q 607 88 603 88 q 613 86 610 86 q 618 86 615 86 q 624 86 621 86 q 629 86 628 86 l 629 739 l 629 739 l 629 739 z "},"N":{"ha":836,"x_min":24,"x_max":796,"o":"m 238 721 l 246 221 q 246 215 246 218 q 246 208 246 211 q 246 203 246 206 q 246 199 246 201 q 249 146 246 167 q 258 115 253 125 q 287 99 265 106 q 346 89 308 93 q 366 84 357 88 q 381 74 375 81 q 390 60 388 68 q 394 46 393 53 q 394 44 394 44 q 394 43 394 43 q 394 43 394 43 q 394 43 394 43 q 394 42 394 42 q 394 42 394 42 q 392 26 394 33 q 383 13 389 19 q 370 3 378 7 q 351 0 363 0 l 108 0 q 92 3 99 0 q 78 14 85 7 q 69 29 72 21 q 67 47 67 38 q 67 47 67 47 q 67 47 67 47 q 67 48 67 47 q 67 50 67 49 q 68 60 67 56 q 71 71 69 65 q 78 79 74 75 q 88 86 82 83 q 99 91 94 89 q 108 94 104 93 q 117 97 113 96 q 124 99 121 97 q 135 105 131 101 q 140 114 139 108 q 144 134 143 119 q 146 174 144 149 l 146 829 q 143 829 144 829 q 140 829 142 829 q 136 828 138 828 q 133 828 135 828 q 128 828 131 828 q 122 828 125 828 q 119 828 121 828 q 115 828 117 828 q 111 826 113 826 q 107 826 110 826 q 99 826 103 826 q 93 826 96 826 q 72 828 82 826 q 51 832 61 829 q 35 840 42 835 q 26 856 29 846 q 24 860 25 858 q 24 864 24 863 q 24 869 24 867 q 24 874 24 871 q 26 890 24 882 q 35 906 29 899 q 48 917 40 913 q 65 921 56 921 l 225 921 q 242 919 235 921 q 254 914 249 917 q 259 910 257 913 q 264 907 261 908 q 268 902 265 904 q 272 897 271 900 q 274 894 274 896 q 276 889 275 892 q 279 885 278 888 q 282 881 281 883 l 625 242 l 615 700 q 615 701 615 700 q 615 703 615 701 q 615 703 615 703 q 615 706 615 704 q 615 706 615 706 q 615 707 615 706 q 615 708 615 707 q 615 710 615 708 q 615 715 615 713 q 615 718 615 717 q 615 721 615 719 q 615 724 615 722 q 615 725 615 724 q 615 728 615 726 q 613 766 615 749 q 607 797 611 783 q 585 819 601 811 q 540 829 568 828 q 505 835 519 831 q 482 846 490 839 q 470 860 474 853 q 467 875 467 867 q 470 892 467 883 q 481 907 474 900 q 495 917 488 914 q 511 921 503 921 l 754 921 q 772 917 765 921 q 785 906 779 913 q 793 890 790 899 q 796 874 796 882 q 794 860 796 867 q 789 847 792 854 q 779 838 785 842 q 767 832 774 835 q 762 830 764 831 q 757 829 760 829 q 753 828 756 828 q 749 828 751 828 q 743 825 746 826 q 738 824 740 824 q 733 821 735 822 q 729 818 731 819 q 724 809 726 815 q 721 794 722 803 q 719 783 719 789 q 718 774 718 778 q 717 763 717 768 q 717 751 717 757 q 717 740 717 746 q 717 731 717 735 q 717 719 717 725 q 717 708 717 714 q 717 705 717 707 q 717 700 717 703 q 717 697 717 699 q 717 692 717 694 l 717 50 q 713 24 717 35 q 703 6 710 13 q 689 -3 697 0 q 672 -6 681 -6 q 669 -6 671 -6 q 668 -6 668 -6 q 665 -4 667 -4 q 663 -4 664 -4 q 660 -3 661 -4 q 658 -3 658 -3 q 656 -1 657 -1 q 653 -1 654 -1 q 641 3 647 0 q 628 11 635 6 q 617 23 622 17 q 608 38 613 29 l 238 721 l 238 721 l 238 721 z "},"O":{"ha":836,"x_min":47,"x_max":788,"o":"m 49 461 q 76 671 47 581 q 161 821 104 761 q 282 912 218 882 q 414 943 346 942 q 414 943 414 943 q 415 943 414 943 q 415 943 415 943 q 415 943 415 943 q 416 943 415 943 q 418 943 417 943 q 551 913 488 943 q 672 822 614 883 q 758 672 729 763 q 788 461 788 581 q 758 250 788 340 q 672 99 729 160 q 551 10 614 39 q 418 -19 488 -19 q 285 10 349 -19 q 164 99 221 39 q 77 250 106 160 q 49 461 49 340 l 49 461 l 49 461 m 418 839 q 320 817 361 839 q 254 754 279 796 q 214 667 229 713 q 192 571 199 621 q 188 542 190 557 q 185 514 186 528 q 183 486 183 500 q 183 460 183 472 q 183 454 183 457 q 183 449 183 451 q 183 443 183 446 q 185 438 183 440 q 185 432 185 435 q 185 426 185 429 q 185 421 185 424 q 185 415 185 418 q 185 397 185 406 q 186 379 185 388 q 188 361 186 369 q 190 344 189 353 q 199 292 193 318 q 214 242 206 267 q 235 194 222 217 q 265 153 249 172 q 297 122 281 135 q 335 100 314 108 q 376 86 354 90 q 419 82 397 82 q 425 82 422 82 q 431 82 428 82 q 437 82 433 82 q 443 83 440 82 q 449 83 446 83 q 454 85 451 83 q 460 85 457 85 q 467 88 464 86 q 540 122 508 99 q 590 181 571 144 q 624 256 610 217 q 644 336 638 294 q 648 367 647 351 q 650 400 649 383 q 652 431 651 415 q 653 461 653 447 q 652 491 653 476 q 650 521 651 506 q 647 553 649 536 q 643 586 646 569 q 618 677 635 633 q 576 760 601 721 q 512 819 551 800 q 418 839 472 839 l 418 839 l 418 839 z "},"P":{"ha":836,"x_min":71,"x_max":779,"o":"m 215 829 q 213 829 214 829 q 210 829 211 829 q 206 828 207 828 q 203 828 204 828 q 195 828 199 828 q 189 828 192 828 q 186 828 188 828 q 183 828 185 828 q 179 826 181 826 q 176 826 178 826 q 170 826 174 826 q 164 826 167 826 q 162 826 163 826 q 160 826 161 826 q 158 826 158 826 q 156 826 157 826 q 153 826 154 826 q 153 826 153 826 q 151 826 151 826 q 150 826 150 826 q 126 828 138 826 q 103 832 114 829 q 85 841 93 835 q 75 857 78 847 q 73 863 74 860 q 72 868 72 867 q 71 874 71 871 q 71 879 71 876 q 75 896 71 889 q 88 908 79 903 q 105 915 96 913 q 124 919 114 918 q 126 919 125 919 q 128 921 126 919 q 128 921 128 921 q 131 921 129 921 q 135 921 133 921 q 139 921 138 921 l 460 921 q 465 921 463 921 q 472 921 468 921 q 478 921 475 921 q 483 921 481 921 q 489 921 486 921 q 496 921 492 921 q 501 921 499 921 q 507 921 504 921 q 569 915 539 919 q 628 901 599 910 q 681 876 657 893 q 725 832 706 858 q 747 797 738 815 q 763 758 757 778 q 768 738 765 749 q 774 718 771 728 q 776 697 775 707 q 779 676 778 688 q 779 674 779 675 q 779 672 779 672 q 779 669 779 671 q 779 667 779 668 q 779 663 779 665 q 779 658 779 661 q 778 642 779 650 q 776 625 778 633 q 774 608 775 617 q 772 592 774 600 q 728 492 758 532 q 653 428 699 451 q 557 394 607 406 q 454 382 507 382 q 424 383 439 382 q 393 385 408 383 q 365 390 379 388 q 336 394 350 392 l 336 86 q 343 86 339 86 q 351 86 347 86 q 361 87 356 86 q 372 89 367 88 q 381 89 376 89 q 392 89 386 89 q 397 89 394 89 q 401 90 399 89 q 406 90 403 90 q 411 90 408 90 q 413 90 413 90 q 415 90 414 90 q 417 90 417 90 q 419 90 418 90 q 456 88 439 90 q 486 81 472 85 q 509 67 501 76 q 518 43 517 58 q 514 25 518 33 q 503 11 510 17 q 486 3 494 6 q 469 0 478 0 q 467 0 468 0 q 465 0 467 0 q 463 0 464 0 q 463 0 463 0 l 139 0 q 137 0 138 0 q 135 0 136 0 q 133 0 133 0 q 132 0 132 0 q 113 3 122 0 q 96 11 104 6 q 84 24 88 17 q 81 42 81 32 q 81 47 81 44 q 82 50 81 49 q 83 55 82 53 q 85 60 83 57 q 94 74 88 68 q 111 82 101 79 q 133 86 122 85 q 154 88 143 88 q 155 88 154 88 q 157 88 156 88 q 158 88 157 88 q 160 88 158 88 q 164 88 163 88 q 168 88 165 88 q 172 88 169 88 q 175 88 174 88 q 179 88 178 88 q 183 88 181 88 q 187 88 185 88 q 190 88 189 88 q 197 86 193 86 q 203 86 200 86 q 209 86 206 86 q 215 86 213 86 l 215 829 l 215 829 l 215 829 m 336 489 q 363 482 349 485 q 390 476 376 479 q 418 474 404 475 q 446 472 432 472 q 500 478 474 472 q 551 494 526 485 q 594 525 575 506 q 626 572 613 544 q 633 588 629 579 q 638 606 636 596 q 642 624 640 614 q 644 643 643 633 q 644 648 644 646 q 644 651 644 650 q 644 654 644 653 q 644 657 644 656 q 644 658 644 657 q 644 661 644 660 q 644 666 644 664 q 644 669 644 668 q 644 674 644 672 q 644 678 644 676 q 642 694 643 686 q 639 711 642 703 q 635 727 638 719 q 631 742 633 735 q 605 782 621 765 q 568 808 589 799 q 523 823 546 818 q 476 829 500 828 l 336 829 l 336 489 l 336 489 l 336 489 z "},"Q":{"ha":836,"x_min":47,"x_max":833,"o":"m 619 -258 q 592 -210 606 -233 q 563 -167 578 -187 q 531 -124 547 -144 q 497 -85 514 -104 q 494 -82 496 -83 q 493 -79 493 -81 q 490 -76 492 -78 q 488 -74 489 -75 q 485 -71 486 -72 q 483 -69 485 -69 q 481 -67 482 -68 q 479 -64 481 -65 q 456 -44 468 -53 q 432 -31 444 -36 q 405 -22 419 -25 q 374 -18 390 -18 q 299 -3 335 -15 q 232 32 264 10 q 173 83 199 56 q 128 144 147 111 q 95 212 110 176 q 69 286 81 247 q 54 365 60 325 q 47 443 49 404 q 47 446 47 444 q 47 449 47 447 q 47 450 47 449 q 47 453 47 451 q 47 458 47 456 q 47 464 47 461 q 49 512 47 488 q 53 560 50 536 q 61 606 56 583 q 72 651 67 629 q 128 776 93 722 q 210 867 163 831 q 309 922 258 903 q 414 943 360 942 q 415 943 414 943 q 417 943 415 943 q 419 943 418 943 q 421 943 419 943 q 509 929 465 942 q 594 892 553 917 q 669 828 636 867 q 726 739 701 790 q 751 680 740 710 q 768 618 761 650 q 780 554 775 586 q 786 490 785 522 q 786 487 786 489 q 786 483 786 485 q 786 479 786 481 q 786 475 786 478 q 786 467 786 471 q 786 461 786 464 q 783 400 786 431 q 775 340 781 369 q 763 281 769 310 q 744 225 756 253 q 712 154 731 186 q 669 94 693 122 q 618 45 647 68 q 554 3 589 22 q 597 -31 576 -12 q 636 -71 618 -50 q 673 -114 656 -92 q 708 -160 690 -136 q 715 -169 711 -165 q 724 -175 719 -174 q 732 -179 728 -178 q 742 -181 736 -181 q 747 -180 744 -181 q 753 -178 750 -179 q 759 -176 756 -176 q 767 -172 763 -175 q 773 -169 769 -171 q 781 -167 776 -167 q 787 -165 783 -165 q 793 -165 790 -165 q 810 -169 803 -165 q 822 -179 817 -174 q 831 -193 828 -186 q 833 -208 833 -200 q 831 -219 832 -214 q 826 -228 829 -224 q 819 -236 824 -232 q 810 -243 815 -240 l 679 -308 q 677 -307 678 -307 q 676 -308 676 -307 q 674 -308 675 -308 q 672 -308 674 -308 q 669 -308 671 -308 q 667 -308 668 -308 q 656 -306 661 -308 q 646 -299 650 -303 q 638 -290 642 -294 q 632 -279 635 -285 q 628 -272 631 -275 q 625 -265 626 -268 q 622 -260 624 -262 q 619 -256 621 -258 l 619 -258 l 619 -258 m 418 839 q 322 817 363 839 q 256 754 281 796 q 215 667 231 713 q 192 571 199 621 q 188 542 190 557 q 185 513 186 528 q 183 485 183 499 q 183 458 183 471 q 183 453 183 456 q 183 447 183 450 q 183 442 183 444 q 185 436 183 439 q 185 431 185 433 q 185 425 185 428 q 185 422 185 424 q 185 421 185 421 q 185 418 185 419 q 185 415 185 417 q 185 404 185 410 q 186 394 185 399 q 187 383 186 389 q 188 372 188 378 q 188 361 188 367 q 190 351 189 356 q 192 340 192 346 q 194 329 193 335 q 218 240 201 282 q 261 157 235 197 q 324 99 286 118 q 411 81 361 79 q 425 81 418 81 q 439 82 432 81 q 453 85 446 83 q 467 88 460 86 q 540 122 508 99 q 590 181 571 144 q 624 256 610 217 q 644 336 638 294 q 648 367 647 351 q 650 400 649 383 q 652 431 651 415 q 653 461 653 447 q 652 491 653 476 q 650 521 651 506 q 647 553 649 536 q 643 586 646 569 q 618 677 635 633 q 576 760 601 721 q 512 819 551 800 q 418 839 472 839 l 418 839 l 418 839 z "},"R":{"ha":836,"x_min":24,"x_max":829,"o":"m 278 86 q 284 86 281 86 q 292 86 288 86 q 298 86 294 86 q 306 86 301 86 q 327 86 317 86 q 347 86 338 86 q 358 86 353 86 q 369 86 364 86 q 379 85 374 85 q 390 85 385 85 q 391 85 390 85 q 393 85 392 85 q 394 85 393 85 q 396 85 394 85 q 401 83 399 83 q 406 81 403 82 q 410 78 407 79 q 414 76 413 78 q 422 71 418 75 q 428 61 426 67 q 430 56 429 58 q 431 50 431 53 q 431 47 431 49 q 432 44 431 46 q 432 42 432 43 q 432 40 432 42 q 427 22 432 31 q 414 10 422 14 q 395 2 406 4 q 374 0 385 0 l 108 0 q 89 3 99 0 q 71 11 79 6 q 58 26 63 18 q 54 43 54 33 q 54 48 54 46 q 56 51 54 50 q 56 56 56 54 q 58 60 57 58 q 67 74 61 68 q 81 82 72 79 q 96 86 88 85 q 114 88 104 88 q 115 88 114 88 q 117 88 115 88 q 117 88 117 88 q 119 88 118 88 q 122 88 121 88 q 125 88 124 88 q 126 88 125 88 q 129 88 128 88 q 135 88 132 88 q 140 88 138 88 q 145 86 143 86 q 149 86 147 86 q 153 86 151 86 q 157 86 156 86 l 157 832 q 152 832 156 832 q 146 832 149 832 q 140 832 143 832 q 135 832 138 832 q 127 831 131 831 q 121 831 124 831 q 117 831 119 831 q 114 831 115 831 q 110 831 111 831 q 106 831 108 831 q 103 831 104 831 q 103 831 103 831 q 101 831 101 831 q 99 831 100 831 q 97 831 97 831 q 96 831 96 831 q 94 831 94 831 q 92 831 93 831 q 72 833 82 831 q 53 838 61 835 q 37 846 43 840 q 28 860 31 851 q 26 862 26 861 q 25 864 25 863 q 25 867 25 865 q 25 869 25 868 q 24 872 24 871 q 24 874 24 872 q 24 876 24 875 q 24 879 24 878 q 28 897 24 889 q 42 910 33 904 q 60 918 50 915 q 79 921 69 921 l 401 921 q 463 918 433 921 q 524 911 493 915 q 580 893 553 907 q 631 856 607 879 q 657 822 646 840 q 676 783 668 804 q 690 742 685 763 q 697 700 696 721 q 697 698 697 699 q 697 697 697 697 q 697 695 697 696 q 697 693 697 694 q 697 690 697 692 q 697 688 697 689 q 697 685 697 686 q 697 683 697 685 q 697 681 697 682 q 697 679 697 681 q 680 586 697 626 q 629 518 663 546 q 555 469 594 490 q 469 435 515 449 q 512 406 493 421 q 546 375 531 390 q 575 344 561 360 q 601 313 589 328 q 624 276 614 294 q 643 240 635 258 q 660 206 651 222 q 676 175 668 190 q 690 152 683 163 q 701 132 696 142 q 716 115 708 122 q 733 101 724 107 q 738 99 736 100 q 742 97 740 97 q 747 96 744 96 q 753 96 750 96 q 756 95 754 96 q 758 94 757 94 q 760 94 758 94 q 763 94 761 94 q 765 94 764 94 q 768 94 767 94 q 769 94 768 94 q 772 94 771 94 q 785 94 779 94 q 797 92 792 93 q 809 88 804 90 q 819 78 814 85 q 822 75 821 76 q 824 72 822 74 q 824 68 824 69 q 826 65 825 67 q 828 60 828 63 q 829 54 829 57 q 829 52 829 53 q 829 51 829 51 q 829 51 829 51 q 829 51 829 51 q 829 50 829 50 q 829 50 829 50 q 827 39 829 44 q 822 29 825 33 q 815 22 819 25 q 803 15 810 18 q 797 13 800 14 q 790 13 794 13 q 783 10 788 11 q 775 8 779 10 q 758 6 767 7 q 739 3 749 4 q 722 1 731 1 q 707 0 714 0 q 694 0 700 0 q 682 0 688 0 q 682 0 682 0 q 682 0 682 0 q 681 0 681 0 q 681 0 681 0 q 681 0 681 0 q 681 0 681 0 q 679 0 679 0 q 679 0 679 0 q 677 0 678 0 q 676 0 676 0 q 676 0 676 0 q 676 0 676 0 q 676 0 676 0 q 676 0 676 0 q 676 0 676 0 q 676 0 676 0 q 675 0 675 0 q 675 0 675 0 q 675 0 675 0 q 675 0 675 0 q 652 4 663 0 q 633 18 642 8 q 617 37 624 26 q 603 60 610 47 q 597 70 600 65 q 592 81 594 75 q 587 91 589 86 q 582 100 585 96 q 570 124 576 111 q 557 149 564 136 q 551 162 554 156 q 544 175 547 168 q 537 188 540 181 q 531 201 533 194 q 508 245 519 224 q 483 288 496 267 q 457 326 471 308 q 428 360 443 344 q 395 386 413 375 q 358 403 378 397 q 319 413 340 410 q 278 417 299 415 l 278 86 l 278 86 l 278 86 m 278 504 q 291 503 285 503 q 303 503 297 503 q 317 503 310 503 q 331 503 324 503 q 342 503 336 503 q 353 503 347 503 q 364 503 358 503 q 375 504 369 503 q 438 515 407 507 q 496 536 468 522 q 541 574 524 550 q 564 633 558 599 q 566 644 565 639 q 567 656 567 650 q 567 661 567 658 q 568 667 567 664 q 568 672 568 669 q 568 678 568 675 q 565 711 568 694 q 557 744 563 728 q 542 774 551 760 q 521 799 533 788 q 492 817 508 810 q 457 828 476 824 q 419 833 439 831 q 379 835 399 835 q 372 835 375 835 q 365 835 368 835 q 358 833 361 833 q 351 833 354 833 q 340 833 346 833 q 326 833 333 833 q 319 833 322 833 q 313 833 315 833 q 306 832 310 832 q 300 832 303 832 q 289 832 294 832 q 278 832 283 832 l 278 504 l 278 504 l 278 504 z "},"S":{"ha":836,"x_min":103,"x_max":724,"o":"m 119 67 l 118 222 q 118 228 118 225 q 118 233 118 231 q 118 236 118 235 q 119 239 118 238 q 119 240 119 239 q 119 243 119 242 q 126 265 122 254 q 135 286 129 276 q 150 301 142 296 q 169 306 158 306 q 176 305 172 306 q 182 303 179 304 q 188 301 185 301 q 196 299 192 300 q 204 293 200 297 q 210 282 208 289 q 215 269 213 276 q 218 254 217 263 q 220 246 219 250 q 222 238 221 242 q 224 228 224 232 q 226 219 225 224 q 232 201 229 210 q 239 182 235 192 q 247 163 242 172 q 258 144 253 153 q 274 126 265 135 q 292 111 282 118 q 318 94 304 101 q 347 81 332 86 q 378 73 363 75 q 408 71 393 71 q 408 71 408 71 q 408 71 408 71 q 409 71 408 71 q 411 71 410 71 q 411 71 411 71 q 413 71 411 71 q 413 71 413 71 q 413 71 413 71 q 413 71 413 71 q 414 71 413 71 q 414 71 414 71 q 414 71 414 71 q 475 80 446 71 q 531 107 504 89 q 574 153 558 126 q 596 214 590 179 q 596 216 596 215 q 596 218 596 217 q 596 219 596 218 q 597 221 596 219 q 597 222 597 221 q 597 222 597 222 q 597 227 597 225 q 597 231 597 229 q 597 235 597 233 q 597 239 597 238 q 584 299 597 272 q 544 347 571 326 q 490 383 518 368 q 431 407 463 397 q 428 407 429 407 q 428 407 428 407 q 428 407 428 407 q 428 408 428 407 q 426 408 426 408 q 426 408 426 408 q 416 411 421 410 q 407 414 411 413 q 397 417 401 415 q 386 419 392 418 q 367 426 376 422 q 347 433 357 429 q 259 468 301 449 q 179 514 217 488 q 122 582 140 540 q 103 681 103 624 q 124 783 103 738 q 189 864 146 829 q 280 919 232 900 q 382 940 328 938 q 384 940 383 940 q 386 940 385 940 q 387 940 386 940 q 389 940 388 940 q 394 940 392 940 q 397 942 396 940 q 400 942 399 942 q 403 942 401 942 q 408 942 406 942 q 411 942 410 942 q 435 941 424 942 q 456 939 446 940 q 466 937 461 938 q 476 936 471 936 q 485 934 481 935 q 496 932 490 933 q 504 929 500 931 q 514 928 508 928 q 523 925 518 926 q 532 922 528 924 q 551 919 540 921 q 571 914 561 917 q 573 913 572 914 q 575 913 574 913 q 576 911 575 911 q 578 911 576 911 q 580 911 579 911 q 582 911 581 911 q 584 910 583 910 q 586 910 585 910 q 586 910 586 910 q 588 910 586 910 q 588 910 588 910 q 588 910 588 910 q 588 910 588 910 q 590 910 589 910 q 590 910 590 910 q 590 910 590 910 q 591 910 590 910 q 593 910 592 910 q 596 910 594 910 q 599 910 597 910 q 601 910 600 910 q 603 911 601 910 q 605 911 604 911 q 607 911 606 911 q 610 912 608 911 q 613 914 611 913 q 615 914 614 914 q 617 915 615 914 q 617 916 617 915 q 619 917 618 917 q 626 919 622 918 q 633 921 629 919 q 640 923 636 922 q 647 924 643 924 q 658 923 653 924 q 668 919 663 922 q 676 914 672 918 q 683 906 681 910 q 684 903 683 904 q 686 901 685 901 q 687 899 686 900 q 688 896 688 897 q 688 893 688 894 q 689 890 688 892 q 689 888 689 889 q 689 885 689 886 q 689 883 689 883 q 689 882 689 882 q 689 880 689 881 q 689 878 689 879 q 689 875 689 876 q 689 872 689 874 q 688 869 688 871 q 688 867 688 868 q 688 864 688 865 q 688 861 688 863 l 679 683 q 674 667 678 674 q 664 654 671 660 q 651 646 658 649 q 636 643 643 643 q 636 643 636 643 q 636 643 636 643 q 635 643 635 643 q 635 643 635 643 q 635 643 635 643 q 635 643 635 643 q 633 643 633 643 q 633 643 633 643 q 623 644 628 643 q 613 647 618 646 q 603 653 607 650 q 596 661 599 656 q 589 673 592 667 q 585 688 586 679 q 582 704 583 696 q 581 721 581 713 q 578 726 579 724 q 578 733 578 729 q 578 740 578 736 q 578 746 578 743 q 570 775 576 761 q 556 803 564 789 q 528 827 546 817 q 482 844 510 838 q 474 845 478 844 q 468 847 471 846 q 462 848 465 847 q 456 850 458 849 q 448 850 451 850 q 442 850 444 850 q 439 850 440 850 q 436 851 438 850 q 432 851 433 851 q 429 851 431 851 q 427 851 428 851 q 424 851 426 851 q 421 851 422 851 q 418 851 419 851 q 341 840 375 851 q 279 804 307 828 q 239 754 253 781 q 226 699 225 728 q 234 660 226 679 q 256 622 242 642 q 295 588 271 604 q 354 561 319 572 q 368 556 361 558 q 383 550 375 553 q 398 547 390 549 q 414 542 406 544 q 425 538 419 540 q 436 533 431 536 q 442 531 439 532 q 449 531 446 531 q 455 528 451 529 q 461 526 458 528 q 546 494 506 513 q 625 453 586 476 q 686 394 663 431 q 719 307 710 357 q 722 295 721 301 q 722 282 722 289 q 722 276 722 279 q 724 269 722 272 q 724 264 724 267 q 724 258 724 261 q 707 165 724 208 q 658 85 690 122 q 584 24 625 47 q 494 -8 543 0 q 478 -10 486 -10 q 461 -12 469 -11 q 445 -15 453 -14 q 431 -15 438 -15 q 403 -15 417 -15 q 376 -11 389 -14 q 350 -8 363 -10 q 326 -3 338 -6 q 302 1 314 -1 q 279 4 290 3 q 259 8 269 7 q 240 8 249 8 q 235 8 238 8 q 231 8 233 8 q 228 8 229 8 q 226 8 228 8 q 224 7 225 7 q 222 7 224 7 q 222 7 222 7 q 221 7 221 7 q 219 6 219 6 q 218 6 218 6 q 216 4 217 4 q 214 4 215 4 q 211 2 213 3 q 208 1 210 1 q 206 1 207 1 q 206 1 206 1 q 203 0 204 0 q 203 0 203 0 q 195 0 199 0 q 189 -1 192 0 q 185 -1 188 -1 q 182 -3 183 -1 q 178 -3 179 -3 q 174 -3 176 -3 q 172 -3 172 -3 q 171 -3 171 -3 q 171 -3 171 -3 q 171 -3 171 -3 q 169 -3 169 -3 q 169 -3 169 -3 q 167 -3 168 -3 q 167 -3 167 -3 q 167 -3 167 -3 q 167 -3 167 -3 q 165 -3 165 -3 q 164 -3 164 -3 q 164 -3 164 -3 q 164 -3 164 -3 q 163 -3 163 -3 q 163 -3 163 -3 q 142 3 150 -1 q 129 18 133 8 q 122 37 125 26 q 119 58 119 47 q 119 60 119 58 q 119 63 119 61 q 119 65 119 64 q 119 67 119 65 l 119 67 l 119 67 z "},"T":{"ha":836,"x_min":57,"x_max":779,"o":"m 475 86 q 481 86 478 86 q 489 86 485 86 q 497 86 493 86 q 507 88 501 86 q 518 88 513 88 q 529 88 524 88 q 540 88 535 88 q 551 88 546 88 q 564 88 558 88 q 575 88 569 88 q 586 86 581 86 q 597 86 592 86 q 616 84 608 85 q 628 82 624 83 q 636 78 632 81 q 644 71 640 75 q 649 62 647 67 q 653 51 651 57 q 653 49 653 50 q 654 49 653 49 q 654 47 654 47 q 654 46 654 46 q 654 44 654 44 q 654 42 654 43 q 650 25 653 32 q 640 11 647 18 q 627 3 635 6 q 610 0 619 0 l 225 0 q 208 3 215 0 q 194 13 201 7 q 185 26 189 19 q 182 43 182 33 q 182 45 182 44 q 182 47 182 46 q 182 50 182 49 q 183 53 182 51 q 183 54 183 53 q 183 57 183 56 q 184 59 183 58 q 186 61 185 60 q 190 69 188 65 q 197 76 193 74 q 206 81 201 79 q 217 85 211 83 q 219 85 218 85 q 221 86 219 85 q 223 86 222 86 q 225 86 224 86 q 228 86 226 86 q 231 86 229 86 q 232 86 231 86 q 235 86 233 86 q 240 86 238 86 q 243 88 242 86 q 248 88 246 88 q 251 88 250 88 q 260 88 256 88 q 271 88 265 88 q 281 88 276 88 q 292 88 286 88 q 303 88 297 88 q 314 88 308 88 q 324 86 318 86 q 335 86 329 86 q 345 86 340 86 q 356 86 350 86 l 356 828 q 344 828 350 828 q 333 828 339 828 q 322 828 328 828 q 311 829 317 828 q 300 829 306 829 q 289 829 294 829 q 278 829 283 829 q 267 829 272 829 q 251 829 258 829 q 236 829 243 829 q 220 828 228 829 q 206 826 213 828 q 194 823 200 825 q 185 818 189 821 q 175 811 179 815 q 168 803 171 807 q 162 792 164 797 q 158 781 160 788 q 157 769 157 775 q 157 756 157 763 q 157 745 157 750 q 157 736 157 740 q 157 732 157 735 q 158 728 157 729 q 159 723 158 725 q 160 718 160 721 q 160 713 160 715 q 161 708 160 710 q 161 703 161 706 q 161 699 161 701 q 161 694 161 697 q 163 690 161 692 q 163 685 163 688 q 163 681 163 683 q 162 671 163 675 q 160 663 161 667 q 158 654 158 658 q 156 646 157 650 q 149 635 153 640 q 138 626 144 629 q 126 622 132 624 q 113 619 119 619 q 110 619 111 619 q 110 619 110 619 q 108 619 108 619 q 107 619 107 619 q 89 622 97 619 q 72 629 81 624 q 60 643 64 635 q 57 661 57 651 l 57 857 q 60 882 57 869 q 71 904 64 894 q 90 920 78 915 q 115 925 101 925 q 115 925 115 925 q 115 925 115 925 q 115 925 115 925 q 117 925 115 925 q 117 925 117 925 q 117 925 117 925 q 117 925 117 925 q 117 925 117 925 q 117 925 117 925 q 118 925 117 925 q 118 925 118 925 q 118 925 118 925 q 124 925 121 925 q 132 925 128 925 q 138 924 135 924 q 146 924 142 924 q 160 922 153 922 q 174 921 167 921 q 188 918 181 919 q 201 917 194 917 q 215 915 208 915 q 229 915 222 915 q 269 913 249 914 q 310 911 289 913 q 349 910 329 910 q 390 910 369 910 q 392 910 392 910 q 394 910 393 910 q 395 910 394 910 q 397 910 396 910 q 399 910 399 910 q 401 910 400 910 q 402 910 401 910 q 404 910 403 910 q 407 910 406 910 q 410 910 408 910 q 415 910 413 910 q 418 910 417 910 q 421 910 419 910 q 424 910 422 910 q 427 910 425 910 q 431 910 429 910 q 433 910 432 910 q 436 910 435 910 q 439 910 438 910 q 442 910 440 910 q 463 910 453 910 q 483 910 474 910 q 494 910 489 910 q 504 911 499 910 q 515 911 510 911 q 525 911 519 911 q 535 911 531 911 q 546 913 540 911 q 555 913 550 913 q 565 913 560 913 q 587 913 576 913 q 607 915 597 914 q 621 915 614 915 q 635 917 628 915 q 649 918 642 917 q 663 921 656 919 q 676 922 669 921 q 690 924 683 922 q 697 924 693 924 q 704 925 700 924 q 710 925 707 925 q 718 925 714 925 q 718 925 718 925 q 718 925 718 925 q 718 925 718 925 q 719 925 718 925 q 719 925 719 925 q 719 925 719 925 q 719 925 719 925 q 719 925 719 925 q 745 920 735 925 q 764 904 756 915 q 775 883 771 894 q 779 857 779 871 l 779 661 q 775 643 779 651 q 763 629 771 635 q 745 621 754 624 q 726 618 736 618 q 715 619 721 618 q 703 622 708 621 q 692 628 697 625 q 685 638 688 632 q 680 648 682 642 q 676 660 678 654 q 674 673 675 667 q 674 686 674 679 q 674 694 674 690 q 674 703 674 699 q 674 708 674 706 q 675 711 674 710 q 675 716 675 714 q 675 721 675 718 q 675 729 675 725 q 675 738 675 733 q 675 742 675 740 q 676 746 675 744 q 676 751 676 749 q 676 754 676 753 q 674 783 676 769 q 665 806 671 796 q 649 822 660 817 q 618 828 638 828 l 475 828 l 475 86 l 475 86 l 475 86 z "},"U":{"ha":836,"x_min":26,"x_max":810,"o":"m 136 831 q 133 831 135 831 q 132 831 132 831 q 129 831 131 831 q 126 831 128 831 q 124 831 125 831 q 122 831 122 831 q 119 831 121 831 q 117 831 118 831 q 111 829 114 829 q 106 829 108 829 q 100 829 103 829 q 94 829 97 829 q 92 829 93 829 q 92 829 92 829 q 90 829 90 829 q 89 829 89 829 q 71 831 79 829 q 54 835 63 832 q 40 843 46 838 q 31 858 33 849 q 30 861 31 860 q 29 864 29 863 q 28 865 28 864 q 28 868 28 867 q 27 871 28 869 q 26 874 26 872 q 26 875 26 874 q 26 878 26 876 q 31 895 26 888 q 43 908 35 903 q 61 918 51 915 q 81 921 71 921 l 303 921 q 324 918 314 921 q 342 908 333 915 q 355 895 350 903 q 360 876 360 888 q 360 874 360 875 q 360 872 360 874 q 358 870 358 871 q 358 868 358 869 q 358 865 358 867 q 357 864 358 864 q 356 861 357 863 q 356 858 356 860 q 346 844 351 850 q 333 835 340 838 q 317 831 325 832 q 300 829 308 829 q 298 829 299 829 q 297 829 297 829 q 295 829 296 829 q 294 829 294 829 q 289 829 292 829 q 283 829 286 829 q 280 829 282 829 q 275 831 278 829 q 270 831 272 831 q 265 831 268 831 q 262 831 264 831 q 257 831 260 831 l 257 292 q 257 288 257 290 q 257 283 257 286 q 257 281 257 282 q 257 278 257 279 q 258 238 257 257 q 261 201 260 219 q 273 166 264 183 q 296 133 282 149 q 321 113 307 121 q 350 99 335 104 q 382 91 365 93 q 415 89 399 89 q 422 89 418 89 q 429 89 425 89 q 435 90 432 89 q 442 90 439 90 q 455 92 449 90 q 467 94 461 93 q 543 126 515 106 q 579 179 571 147 q 592 248 588 211 q 596 325 596 285 q 596 326 596 325 q 596 328 596 326 q 596 330 596 329 q 596 332 596 331 l 596 831 q 593 831 594 831 q 592 831 592 831 q 589 831 590 831 q 586 831 588 831 q 583 831 585 831 q 582 831 582 831 q 579 831 581 831 q 576 831 578 831 q 571 829 574 829 q 565 829 568 829 q 559 829 563 829 q 553 829 556 829 q 550 829 551 829 q 547 829 549 829 q 545 829 546 829 q 543 829 544 829 q 526 831 535 829 q 510 836 518 833 q 497 844 501 839 q 489 857 492 849 q 487 859 488 858 q 486 861 486 860 q 486 864 486 863 q 486 867 486 865 q 486 869 486 868 q 486 871 486 869 q 486 874 486 872 q 486 876 486 875 q 490 894 486 886 q 500 908 493 903 q 516 918 507 915 q 536 921 525 921 l 756 921 q 776 918 767 921 q 794 908 786 915 q 806 895 801 903 q 810 876 810 888 q 810 874 810 875 q 810 874 810 874 q 810 872 810 872 q 810 871 810 871 q 808 869 808 869 q 808 868 808 868 q 808 868 808 868 q 808 868 808 868 q 808 867 808 867 q 808 867 808 867 q 801 848 807 856 q 786 836 796 840 q 767 831 776 832 q 746 829 757 829 q 744 829 744 829 q 743 829 743 829 q 743 829 743 829 q 743 829 743 829 q 742 829 742 829 q 742 829 742 829 q 739 829 740 829 q 738 829 738 829 q 735 829 736 829 q 732 829 733 829 q 728 829 731 829 q 724 831 726 829 q 720 831 722 831 q 715 831 718 831 q 712 831 714 831 q 707 831 710 831 l 707 351 q 707 345 707 349 q 707 339 707 342 q 707 333 707 336 q 707 326 707 329 q 707 318 707 322 q 707 310 707 314 q 707 300 707 304 q 707 292 707 296 q 707 273 707 282 q 707 256 707 264 q 702 206 706 231 q 692 157 699 181 q 675 110 686 132 q 647 69 664 89 q 606 33 629 49 q 557 8 583 18 q 504 -6 531 0 q 450 -14 478 -12 q 447 -14 449 -14 q 442 -15 444 -14 q 438 -15 440 -15 q 433 -15 436 -15 q 426 -15 429 -15 q 419 -15 422 -15 q 414 -15 417 -15 q 408 -15 411 -15 q 401 -14 404 -14 q 396 -14 399 -14 q 390 -14 393 -14 q 385 -14 388 -14 q 378 -12 381 -12 q 372 -12 375 -12 q 317 -1 344 -8 q 264 18 290 6 q 217 49 238 31 q 179 90 196 67 q 156 132 165 110 q 143 178 147 154 q 138 225 139 201 q 136 272 136 249 q 136 277 136 275 q 136 282 136 279 q 136 286 136 283 q 136 290 136 289 q 136 299 136 294 q 136 307 136 303 q 136 312 136 310 q 136 315 136 314 q 136 318 136 317 q 136 321 136 319 q 136 322 136 321 q 136 325 136 324 l 136 831 l 136 831 l 136 831 z "},"V":{"ha":836,"x_min":29,"x_max":807,"o":"m 101 836 q 98 836 100 836 q 93 836 96 836 q 90 836 92 836 q 85 836 88 836 q 68 837 76 836 q 53 839 60 838 q 40 847 46 842 q 32 860 35 851 q 30 862 31 861 q 29 864 29 863 q 29 867 29 865 q 29 869 29 868 q 29 871 29 869 q 29 874 29 872 q 29 876 29 875 q 29 878 29 876 q 32 894 29 886 q 40 908 35 903 q 55 918 47 915 q 72 921 63 921 l 331 921 q 348 918 340 921 q 361 908 356 915 q 371 896 368 903 q 374 881 374 889 q 374 881 374 881 q 374 881 374 881 q 374 879 374 879 q 374 879 374 879 q 374 879 374 879 q 374 879 374 879 q 374 878 374 878 q 374 878 374 878 q 374 876 374 876 q 374 874 374 875 q 374 872 374 872 q 374 869 374 871 q 369 857 372 863 q 363 847 367 851 q 352 840 357 843 q 340 836 347 838 q 330 835 335 835 q 321 835 325 835 q 317 835 319 835 q 313 835 314 835 q 308 835 310 835 q 303 835 306 835 q 292 835 297 835 q 283 835 288 835 q 274 835 278 835 q 265 836 269 835 q 255 836 260 836 q 246 836 250 836 q 235 836 240 836 q 226 836 231 836 l 439 179 l 622 836 q 619 836 621 836 q 617 836 618 836 q 614 835 615 835 q 611 835 613 835 q 603 835 607 835 q 597 835 600 835 q 594 835 596 835 q 590 835 592 835 q 586 833 588 833 q 582 833 585 833 q 574 833 578 833 q 565 833 569 833 q 544 835 554 833 q 524 838 533 836 q 508 845 514 840 q 499 858 501 850 q 498 861 499 860 q 497 864 497 863 q 496 865 496 864 q 496 868 496 867 q 495 871 496 869 q 494 874 494 872 q 494 875 494 874 q 494 878 494 876 q 497 894 494 886 q 506 908 500 903 q 519 918 511 915 q 538 921 528 921 l 764 921 q 781 918 774 921 q 794 908 789 915 q 804 895 801 903 q 807 879 807 888 q 807 877 807 878 q 807 876 807 876 q 807 874 807 875 q 807 874 807 874 q 807 873 807 874 q 807 872 807 872 q 806 871 806 871 q 806 871 806 871 q 806 869 806 869 q 806 868 806 868 q 799 851 804 858 q 788 842 794 844 q 773 838 781 839 q 757 836 765 836 q 755 836 756 836 q 754 836 754 836 q 754 836 754 836 q 754 836 754 836 q 753 836 753 836 q 753 836 753 836 q 747 836 750 836 q 742 836 744 836 q 739 836 740 836 q 738 836 738 836 q 735 836 736 836 q 732 836 733 836 l 503 42 q 492 17 499 28 q 478 -1 486 6 q 458 -16 469 -11 q 431 -21 446 -21 q 402 -16 414 -21 q 383 0 390 -11 q 369 19 375 8 q 360 44 364 31 l 101 836 l 101 836 l 101 836 z "},"W":{"ha":836,"x_min":-29,"x_max":869,"o":"m 267 165 l 378 525 q 378 525 378 525 q 378 526 378 525 q 378 526 378 526 q 378 526 378 526 q 378 526 378 526 q 379 528 378 526 q 379 528 379 528 q 379 529 379 529 q 386 549 382 540 q 396 567 390 558 q 410 580 401 575 q 433 586 419 585 q 455 582 446 586 q 469 569 464 578 q 479 552 475 561 q 486 532 483 543 q 486 532 486 532 q 488 532 486 532 q 488 531 488 531 q 488 531 488 531 q 488 529 488 529 q 488 529 488 529 q 488 527 488 528 q 488 526 488 526 q 488 526 488 526 q 489 526 488 526 q 489 525 489 525 q 489 525 489 525 l 606 165 l 676 831 q 668 831 672 831 q 660 831 664 831 q 656 831 658 831 q 653 831 654 831 q 649 831 650 831 q 644 831 647 831 q 636 829 640 829 q 628 829 632 829 q 619 829 624 829 q 611 829 615 829 q 599 829 606 829 q 586 829 593 829 q 574 830 581 829 q 563 832 568 831 q 552 835 557 833 q 543 839 547 838 q 536 845 539 842 q 532 854 533 849 q 530 860 531 857 q 529 865 529 864 q 528 871 528 868 q 528 876 528 874 q 532 894 528 886 q 543 908 536 903 q 559 918 550 915 q 581 921 568 921 l 817 921 q 838 918 828 921 q 854 908 847 915 q 865 894 861 903 q 869 875 869 886 q 869 873 869 874 q 869 872 869 872 q 869 872 869 872 q 869 872 869 872 q 869 871 869 871 q 869 871 869 871 q 868 869 868 869 q 868 868 868 868 q 868 866 868 867 q 868 865 868 865 q 862 848 867 856 q 849 838 857 840 q 832 833 840 835 q 815 831 824 831 q 813 831 814 831 q 811 831 811 831 q 808 831 810 831 q 806 831 807 831 q 802 831 804 831 q 797 831 800 831 q 795 831 796 831 q 794 831 794 831 q 792 831 793 831 q 792 831 792 831 l 685 18 q 678 -1 683 7 q 665 -15 674 -10 q 647 -26 657 -22 q 625 -29 636 -29 q 623 -29 624 -29 q 622 -29 622 -29 q 622 -29 622 -29 q 622 -29 622 -29 q 621 -29 621 -29 q 621 -29 621 -29 q 589 -22 603 -28 q 568 -6 575 -17 q 555 17 561 4 q 543 46 549 31 l 428 406 l 319 44 q 309 17 315 31 q 296 -6 303 4 q 276 -22 289 -17 q 247 -29 264 -28 q 245 -29 246 -29 q 244 -29 244 -29 q 244 -29 244 -29 q 244 -29 244 -29 q 243 -29 243 -29 q 243 -29 243 -29 q 213 -23 225 -29 q 193 -6 200 -17 q 182 18 186 4 q 175 46 178 32 l 57 831 q 55 831 56 831 q 54 831 54 831 q 52 831 53 831 q 50 831 51 831 q 48 831 49 831 q 47 831 47 831 q 45 831 46 831 q 43 831 44 831 q 40 829 42 829 q 35 829 38 829 q 31 829 33 829 q 26 829 29 829 q 24 829 25 829 q 24 829 24 829 q 22 829 22 829 q 21 829 21 829 q 6 831 13 829 q -6 835 0 832 q -17 842 -12 838 q -25 854 -22 847 q -27 860 -26 857 q -28 865 -28 864 q -28 868 -28 867 q -29 871 -28 869 q -29 874 -29 872 q -29 876 -29 875 q -25 896 -29 888 q -12 910 -21 904 q 5 918 -4 915 q 26 921 14 921 l 263 921 q 283 918 274 921 q 300 910 293 915 q 311 897 307 904 q 315 878 315 889 q 315 876 315 876 q 315 874 315 875 q 315 872 315 872 q 315 869 315 871 q 315 869 315 869 q 315 868 315 868 q 314 867 314 867 q 314 867 314 867 q 314 867 314 867 q 314 867 314 867 q 314 865 314 865 q 314 865 314 865 q 310 853 313 860 q 303 843 307 847 q 293 836 299 839 q 281 832 288 833 q 270 830 275 831 q 260 829 265 829 q 249 829 254 829 q 238 829 243 829 q 234 829 236 829 q 231 829 232 829 q 226 829 228 829 q 222 829 225 829 q 215 829 218 829 q 208 831 211 829 q 200 831 204 831 q 192 831 196 831 q 184 831 188 831 q 178 831 181 831 l 267 165 l 267 165 l 267 165 z "},"X":{"ha":836,"x_min":17,"x_max":818,"o":"m 142 782 q 131 799 136 792 q 121 811 125 806 q 113 819 117 815 q 106 825 108 824 q 100 828 103 828 q 94 831 97 829 q 90 831 93 831 q 83 833 86 832 q 75 835 79 835 q 65 838 71 836 q 53 841 60 839 q 39 846 46 843 q 29 851 33 849 q 22 857 25 853 q 18 865 19 861 q 17 875 17 869 q 17 875 17 875 q 17 876 17 875 q 17 876 17 876 q 17 876 17 876 q 17 877 17 876 q 17 879 17 878 q 22 894 18 886 q 32 907 26 901 q 48 917 39 914 q 68 921 57 921 l 325 921 q 346 918 338 921 q 358 911 354 915 q 365 902 363 907 q 369 892 368 897 q 369 890 369 890 q 369 890 369 890 q 369 890 369 890 q 369 890 369 890 q 369 888 369 889 q 371 888 369 888 q 371 885 371 886 q 371 885 371 885 q 372 882 371 883 q 374 879 372 881 q 367 856 374 865 q 350 843 361 847 q 325 837 338 839 q 299 835 313 835 q 288 835 293 835 q 279 835 283 835 q 276 835 278 835 q 271 836 274 835 q 267 836 269 836 q 264 836 265 836 q 256 836 260 836 q 249 836 251 836 q 245 836 247 836 q 242 838 243 836 q 239 838 240 838 q 236 838 238 838 l 421 560 l 571 838 q 566 838 569 838 q 560 838 563 838 q 553 838 557 838 q 547 838 550 838 q 541 836 544 836 q 533 836 538 836 q 526 836 529 836 q 519 836 522 836 q 517 836 518 836 q 517 836 517 836 q 515 836 515 836 q 514 836 514 836 q 494 838 504 836 q 474 842 483 839 q 457 849 464 844 q 447 863 450 854 q 445 865 446 864 q 444 867 444 865 q 444 869 444 868 q 444 872 444 871 q 443 874 443 872 q 443 876 443 875 q 443 878 443 878 q 443 881 443 879 q 447 897 443 889 q 458 910 450 904 q 476 918 467 915 q 494 921 485 921 l 733 921 q 751 918 743 921 q 765 908 760 915 q 776 895 772 903 q 779 879 779 888 q 779 877 779 878 q 779 876 779 876 q 778 874 778 875 q 778 874 778 874 q 778 871 778 872 q 778 868 778 869 q 776 865 776 867 q 775 863 775 864 q 773 860 774 861 q 771 857 772 858 q 763 848 767 851 q 753 842 758 844 q 747 840 750 840 q 742 838 744 839 q 735 835 738 836 q 729 835 732 835 q 722 833 725 833 q 717 832 719 832 q 710 830 714 831 q 704 828 707 829 q 692 823 699 826 q 679 815 686 819 q 667 804 674 811 q 657 789 661 797 l 474 482 l 706 133 q 713 123 708 128 q 721 114 717 118 q 729 107 725 110 q 738 101 733 104 q 747 97 742 99 q 757 93 751 94 q 762 91 760 92 q 767 90 764 90 q 771 88 768 89 q 775 88 774 88 q 781 85 778 86 q 785 85 783 85 q 790 83 788 83 q 794 81 793 82 q 803 75 799 79 q 811 67 807 71 q 813 64 813 65 q 814 61 814 63 q 815 58 814 60 q 817 56 815 57 q 817 53 817 54 q 818 51 817 53 q 818 49 818 50 q 818 49 818 49 q 818 46 818 47 q 818 43 818 44 q 814 26 818 33 q 803 13 810 19 q 788 3 796 7 q 769 0 779 0 l 540 0 q 522 3 531 0 q 506 13 514 7 q 494 26 497 19 q 490 43 490 33 q 490 48 490 46 q 492 51 490 50 q 492 56 492 54 q 494 60 493 58 q 505 74 499 68 q 519 82 511 81 q 538 86 528 85 q 557 88 547 88 q 563 88 560 88 q 568 88 565 88 q 574 88 571 88 q 579 88 576 88 q 585 86 582 86 q 590 86 588 86 q 593 86 592 86 q 596 86 594 86 q 597 86 596 86 q 600 86 599 86 l 404 379 l 246 86 q 251 86 249 86 q 257 86 254 86 q 263 86 260 86 q 271 88 267 86 q 276 88 274 88 q 283 88 279 88 q 288 88 286 88 q 292 88 289 88 q 295 88 293 88 q 299 88 297 88 q 323 86 311 88 q 344 82 335 85 q 361 72 356 79 q 368 53 367 64 q 368 51 368 51 q 368 49 368 50 q 368 47 368 47 q 368 44 368 46 q 365 27 368 35 q 357 13 363 19 q 344 3 351 7 q 325 0 336 0 l 64 0 q 47 3 54 0 q 33 11 40 6 q 24 24 28 18 q 19 38 21 31 q 19 38 19 38 q 19 40 19 39 q 19 42 19 42 q 19 44 19 43 q 21 55 19 50 q 25 64 22 60 q 32 72 28 68 q 42 79 36 76 q 58 85 50 82 q 72 89 67 88 q 84 92 79 92 q 94 94 89 93 q 100 95 97 94 q 106 97 103 96 q 108 97 107 97 q 111 99 110 97 q 113 99 111 99 q 115 101 114 100 q 125 110 119 104 q 136 121 131 115 q 149 139 142 128 q 167 165 157 150 l 350 461 l 142 782 l 142 782 l 142 782 z "},"Y":{"ha":836,"x_min":14,"x_max":789,"o":"m 633 89 q 658 86 647 89 q 676 76 668 83 q 683 70 681 74 q 688 64 686 67 q 692 56 690 60 q 693 50 693 53 q 693 48 693 49 q 693 47 693 47 q 693 47 693 47 q 693 47 693 47 q 693 46 693 46 q 693 46 693 46 q 689 30 693 38 q 678 15 685 22 q 660 6 671 10 q 633 3 649 3 l 274 3 q 252 5 263 3 q 233 13 242 7 q 219 26 224 18 q 215 46 215 35 q 215 48 215 47 q 215 50 215 49 q 215 53 215 51 q 217 56 215 54 q 217 58 217 57 q 217 60 217 58 q 217 63 217 61 q 219 65 218 64 q 231 78 222 72 q 251 85 239 83 q 278 89 264 88 q 306 92 292 90 q 311 92 308 92 q 317 92 314 92 q 321 90 318 90 q 326 90 324 90 q 331 90 329 90 q 336 90 333 90 q 340 90 338 90 q 344 90 343 90 q 349 90 347 90 q 353 90 351 90 q 358 89 356 89 q 361 89 360 89 q 367 89 364 89 q 374 89 371 89 l 374 396 l 111 799 q 97 819 103 811 q 85 829 90 826 q 74 833 79 832 q 65 835 69 835 q 63 835 64 835 q 63 835 63 835 q 60 835 61 835 q 60 835 60 835 q 58 835 58 835 q 57 835 57 835 q 55 835 56 835 q 54 835 54 835 q 48 835 51 835 q 42 836 44 835 q 35 840 39 838 q 29 844 32 842 q 24 849 26 847 q 19 854 22 851 q 17 860 18 857 q 15 868 15 864 q 14 869 14 868 q 14 872 14 871 q 14 874 14 874 q 14 876 14 875 q 17 892 14 885 q 29 907 21 900 q 48 917 36 914 q 74 921 60 921 l 321 921 q 342 918 332 921 q 360 910 351 915 q 373 896 368 904 q 378 876 378 888 q 378 874 378 875 q 378 871 378 874 q 378 869 378 869 q 378 868 378 868 q 376 866 376 867 q 376 865 376 865 q 372 851 375 857 q 361 840 368 844 q 349 834 356 836 q 335 831 342 832 q 332 831 333 831 q 329 831 331 831 q 325 829 326 829 q 322 829 324 829 q 317 829 319 829 q 311 829 314 829 q 305 828 308 828 q 299 828 301 828 q 293 828 296 828 q 288 828 290 828 q 279 828 283 828 q 271 828 275 828 q 263 828 267 828 q 254 829 258 828 q 246 829 250 829 q 238 829 242 829 q 229 829 233 829 q 221 829 225 829 l 431 481 l 519 663 q 533 691 526 678 q 547 718 540 704 q 562 746 554 732 q 578 774 569 760 q 581 779 579 776 q 583 785 582 782 q 585 788 585 786 q 588 790 586 789 q 588 793 588 792 q 590 796 589 794 q 595 804 593 800 q 599 813 597 808 q 601 817 600 815 q 604 821 603 819 q 606 826 604 824 q 608 829 607 828 q 603 829 607 829 q 597 829 600 829 q 591 829 594 829 q 585 829 588 829 q 577 828 581 828 q 571 828 574 828 q 567 828 569 828 q 564 828 565 828 q 560 828 561 828 q 556 828 558 828 q 553 828 554 828 q 550 828 551 828 q 548 828 549 828 q 546 828 547 828 q 522 829 533 828 q 499 833 510 831 q 482 841 489 836 q 472 854 475 846 q 472 857 472 856 q 471 860 471 858 q 469 861 469 860 q 469 864 469 863 q 468 869 468 867 q 468 875 468 872 q 472 894 468 886 q 483 908 475 903 q 501 918 492 915 q 524 921 511 921 l 722 921 q 723 921 722 921 q 725 921 724 921 q 727 921 726 921 q 729 921 728 921 q 750 916 740 919 q 769 906 760 913 q 784 892 779 900 q 789 875 789 883 q 788 869 789 872 q 786 863 788 865 q 783 855 785 858 q 778 849 781 851 q 772 842 775 844 q 767 839 769 840 q 761 836 764 838 q 756 835 758 835 q 753 835 754 835 q 753 835 753 835 q 751 835 751 835 q 750 835 750 835 q 738 831 744 833 q 724 824 731 828 q 705 803 715 818 q 682 765 694 789 l 493 406 l 493 89 l 633 89 l 633 89 l 633 89 z "},"Z":{"ha":836,"x_min":90,"x_max":740,"o":"m 511 94 q 574 102 549 94 q 608 125 599 110 q 628 158 619 140 q 642 194 636 175 q 642 194 642 194 q 643 196 642 194 q 643 197 643 196 q 643 197 643 197 q 643 198 643 197 q 643 200 643 199 q 648 213 646 207 q 651 225 650 219 q 653 231 653 228 q 656 238 654 233 q 659 243 657 240 q 663 249 661 246 q 669 257 665 253 q 676 263 672 261 q 685 267 681 265 q 693 268 689 268 q 693 268 693 268 q 694 268 693 268 q 694 268 694 268 q 694 268 694 268 q 695 268 694 268 q 697 268 696 268 q 713 265 706 268 q 726 254 721 261 q 737 239 733 247 q 740 219 740 231 q 740 217 740 218 q 740 217 740 217 q 740 217 740 217 q 740 217 740 217 q 740 215 740 215 q 740 215 740 215 l 724 33 q 717 11 722 19 q 704 0 713 3 q 685 -3 694 -1 q 665 -6 676 -6 q 660 -6 663 -6 q 654 -6 657 -6 q 649 -4 651 -4 q 643 -4 646 -4 q 638 -4 640 -4 q 632 -4 635 -4 q 627 -3 629 -3 q 622 -3 625 -3 q 595 -1 608 -1 q 568 0 582 0 q 541 0 554 0 q 515 0 528 0 q 488 0 501 0 q 461 0 474 0 q 434 0 447 0 q 407 0 421 0 l 211 0 q 209 0 210 0 q 208 0 208 0 q 206 0 207 0 q 206 0 206 0 q 202 0 204 0 q 199 0 200 0 q 196 0 197 0 q 193 0 194 0 q 158 2 175 0 q 126 10 142 4 q 103 29 111 15 q 92 65 94 43 q 92 66 92 65 q 92 68 92 67 q 92 70 92 69 q 92 72 92 71 q 90 73 90 72 q 90 75 90 74 q 90 77 90 76 q 90 79 90 78 q 94 108 90 94 q 104 135 99 121 q 119 161 111 149 q 135 186 126 174 q 138 191 136 189 q 140 194 139 193 q 142 197 142 196 q 144 200 143 199 q 145 201 144 200 q 147 204 146 203 l 561 829 l 342 829 q 283 822 307 829 q 247 801 260 815 q 226 773 235 788 q 214 743 218 758 q 211 736 213 739 q 210 731 210 733 q 208 725 208 728 q 207 719 207 722 q 203 703 206 711 q 199 689 201 696 q 193 678 197 683 q 185 668 189 672 q 181 665 183 667 q 176 661 179 663 q 174 660 175 661 q 174 660 174 660 q 172 658 172 658 q 169 657 171 657 q 166 655 168 656 q 161 654 164 654 q 159 654 160 654 q 158 654 158 654 q 156 654 157 654 q 154 654 156 654 q 139 658 146 654 q 125 668 132 661 q 116 684 119 675 q 113 703 113 693 q 113 705 113 704 q 113 706 113 706 q 113 706 113 706 q 113 708 113 707 l 129 889 q 134 910 129 901 q 147 924 139 919 q 165 930 156 928 q 185 932 175 932 q 185 932 185 932 q 186 932 185 932 q 186 932 186 932 q 186 932 186 932 q 187 932 186 932 q 189 932 188 932 q 192 932 190 932 q 194 932 193 932 q 197 932 196 932 q 199 932 197 932 q 199 932 199 932 q 201 932 200 932 q 204 931 203 931 q 207 931 206 931 q 209 931 208 931 q 211 931 210 931 q 212 931 211 931 q 214 931 213 931 q 223 931 218 931 q 233 931 228 931 q 242 929 238 929 q 253 929 247 929 q 272 928 263 928 q 292 928 282 928 q 301 926 296 926 q 311 926 306 926 q 316 926 314 926 q 321 926 318 926 q 325 925 322 925 q 331 925 328 925 q 359 923 344 924 q 388 922 374 922 q 417 922 403 922 q 446 922 432 922 l 622 922 q 660 919 644 922 q 686 910 676 917 q 701 894 696 904 q 706 874 706 885 q 703 858 706 867 q 699 842 701 850 q 690 824 694 833 q 679 806 686 815 l 206 94 l 511 94 l 511 94 l 511 94 z "},"[":{"ha":836,"x_min":318,"x_max":603,"o":"m 318 818 q 318 819 318 818 q 318 821 318 819 q 318 823 318 822 q 318 825 318 824 q 322 860 318 843 q 331 890 325 876 q 352 913 338 906 q 389 921 367 921 l 556 921 q 576 917 567 921 q 590 907 585 914 q 600 892 597 900 q 603 874 603 883 q 602 865 603 869 q 600 857 601 861 q 597 849 599 853 q 592 842 594 844 q 580 833 588 836 q 561 828 572 831 q 540 825 551 826 q 517 824 528 824 q 515 824 515 824 q 514 824 514 824 q 512 824 513 824 q 511 824 511 824 q 500 824 506 824 q 489 824 494 824 q 483 824 486 824 q 478 825 481 824 q 473 825 475 825 q 468 825 471 825 q 458 825 463 825 q 450 825 454 825 q 447 825 449 825 q 443 826 444 825 q 441 826 442 826 q 439 826 440 826 l 439 -97 q 445 -94 442 -94 q 453 -94 449 -94 q 461 -94 457 -94 q 469 -94 465 -94 q 478 -94 474 -94 q 486 -94 482 -94 q 494 -94 490 -94 q 503 -94 499 -94 q 523 -93 514 -93 q 542 -93 532 -93 q 559 -94 551 -93 q 572 -97 567 -96 q 582 -101 578 -99 q 590 -110 586 -104 q 597 -119 594 -114 q 600 -131 599 -125 q 600 -133 600 -132 q 600 -135 600 -133 q 600 -135 600 -135 q 601 -136 600 -135 q 601 -137 601 -136 q 601 -139 601 -137 q 601 -140 601 -139 q 601 -142 601 -140 q 601 -144 601 -143 q 601 -146 601 -144 q 599 -163 601 -156 q 589 -176 596 -171 q 575 -186 583 -183 q 556 -189 567 -189 l 389 -192 q 352 -181 367 -189 q 331 -158 338 -174 q 322 -128 325 -144 q 318 -93 318 -111 q 318 -91 318 -92 q 318 -89 318 -90 q 318 -87 318 -87 q 318 -86 318 -86 l 318 818 l 318 818 l 318 818 z "},"\\":{"ha":836,"x_min":218,"x_max":617,"o":"m 490 -65 l 229 969 q 227 972 228 971 q 226 975 226 974 q 226 977 226 976 q 226 979 226 978 q 225 981 225 981 q 225 983 225 982 q 223 989 224 986 q 222 996 222 992 q 220 1002 221 999 q 219 1008 219 1006 q 219 1010 219 1010 q 218 1013 218 1011 q 218 1013 218 1013 q 218 1015 218 1014 q 218 1017 218 1017 q 218 1019 218 1018 q 218 1020 218 1019 q 218 1022 218 1021 q 218 1022 218 1022 q 218 1024 218 1022 q 218 1024 218 1024 q 218 1024 218 1024 q 218 1024 218 1024 q 218 1026 218 1025 q 218 1032 218 1029 q 219 1039 218 1035 q 220 1044 219 1042 q 222 1050 221 1047 q 230 1061 225 1057 q 240 1069 235 1065 q 247 1073 243 1072 q 256 1075 251 1074 q 264 1077 260 1076 q 272 1078 268 1078 q 283 1077 278 1078 q 294 1074 289 1076 q 305 1069 300 1072 q 314 1061 310 1065 q 325 1047 321 1054 q 332 1031 329 1039 q 337 1014 335 1022 q 340 997 339 1006 q 340 997 340 997 q 340 997 340 997 q 340 996 340 996 q 340 996 340 996 q 340 996 340 996 q 342 996 340 996 q 342 996 342 996 q 342 996 342 996 q 342 994 342 994 q 342 993 342 993 q 342 991 342 992 q 342 989 342 990 q 342 987 342 988 q 343 986 342 986 q 344 984 343 985 q 344 982 344 983 l 607 -51 q 607 -51 607 -50 q 607 -54 607 -53 q 608 -57 607 -56 q 610 -60 608 -58 q 610 -62 610 -61 q 611 -64 610 -62 q 611 -66 611 -65 q 611 -68 611 -67 q 612 -73 611 -71 q 614 -78 613 -75 q 614 -81 614 -79 q 615 -85 614 -82 q 615 -88 615 -86 q 615 -92 615 -90 q 615 -94 615 -93 q 617 -99 615 -96 q 617 -102 617 -100 q 617 -106 617 -104 q 614 -124 617 -115 q 607 -139 611 -132 q 594 -151 603 -146 q 575 -158 586 -156 q 573 -158 574 -158 q 571 -160 572 -158 q 569 -160 569 -160 q 567 -160 568 -160 q 564 -160 565 -160 q 561 -160 563 -160 q 537 -153 547 -158 q 519 -137 526 -149 q 507 -117 513 -128 q 499 -93 501 -106 q 496 -85 497 -89 q 493 -76 494 -81 q 491 -69 492 -72 q 490 -62 490 -65 l 490 -65 l 490 -65 z "},"]":{"ha":836,"x_min":233,"x_max":517,"o":"m 517 818 l 517 -89 q 517 -87 517 -87 q 517 -89 517 -87 q 517 -91 517 -90 q 517 -93 517 -92 q 514 -128 517 -111 q 504 -158 511 -144 q 485 -181 499 -174 q 447 -189 471 -189 l 281 -192 q 261 -185 269 -189 q 246 -175 253 -182 q 237 -161 240 -169 q 233 -143 233 -153 q 233 -140 233 -142 q 233 -135 233 -137 q 234 -131 233 -133 q 236 -126 235 -129 q 236 -124 236 -125 q 236 -122 236 -124 q 237 -120 236 -121 q 239 -118 238 -119 q 245 -108 242 -112 q 254 -101 249 -104 q 264 -97 258 -99 q 275 -96 269 -96 q 290 -94 282 -94 q 306 -94 297 -94 q 320 -94 313 -94 q 336 -94 328 -94 q 340 -94 339 -94 q 344 -94 342 -94 q 348 -94 346 -94 q 351 -94 350 -94 q 356 -94 354 -94 q 360 -94 357 -94 q 363 -94 361 -94 q 367 -94 365 -94 q 371 -94 369 -94 q 375 -94 372 -94 q 378 -94 376 -94 q 382 -94 381 -94 q 386 -94 385 -94 q 390 -94 388 -94 q 394 -94 392 -94 q 397 -94 396 -94 l 397 826 q 394 826 396 826 q 390 826 392 826 q 386 826 388 826 q 382 826 385 826 q 378 826 381 826 q 375 826 376 826 q 371 826 372 826 q 367 826 369 826 q 363 826 365 826 q 360 826 361 826 q 356 826 357 826 q 351 826 354 826 q 348 826 350 826 q 344 826 346 826 q 340 826 342 826 q 336 826 339 826 q 320 826 328 826 q 306 826 313 826 q 290 826 297 826 q 275 828 282 826 q 264 829 269 828 q 254 833 258 831 q 245 840 249 836 q 239 850 242 844 q 238 853 239 851 q 238 856 238 854 q 236 857 236 856 q 236 860 236 858 q 235 865 235 863 q 235 871 235 868 q 235 871 235 871 q 235 872 235 871 q 235 872 235 872 q 235 872 235 872 q 235 873 235 872 q 235 875 235 874 q 238 893 235 885 q 246 907 240 901 q 261 917 253 914 q 281 921 269 921 l 447 921 q 485 913 471 921 q 506 889 500 904 q 514 855 511 872 q 517 818 517 838 l 517 818 l 517 818 z "},"^":{"ha":836,"x_min":0,"x_max":0,"o":""},"_":{"ha":836,"x_min":-42,"x_max":881,"o":"m 836 -326 q 856 -327 847 -324 q 869 -339 864 -331 q 878 -356 875 -347 q 881 -375 881 -365 q 881 -375 881 -375 q 881 -376 881 -375 q 881 -376 881 -376 q 881 -376 881 -376 q 881 -377 881 -376 q 881 -379 881 -378 q 878 -399 881 -390 q 869 -417 875 -408 q 856 -429 864 -425 q 836 -433 847 -433 l 0 -436 q -16 -429 -8 -433 q -29 -417 -24 -425 q -37 -400 -35 -408 q -42 -383 -40 -392 q -42 -381 -42 -382 q -42 -381 -42 -381 q -42 -381 -42 -381 q -42 -381 -42 -381 q -42 -379 -42 -379 q -42 -379 -42 -379 q -39 -359 -42 -369 q -31 -340 -36 -349 q -17 -328 -25 -332 q 0 -324 -10 -324 l 836 -326 l 836 -326 l 836 -326 z "},"`":{"ha":836,"x_min":156,"x_max":551,"o":"m 535 792 q 540 788 538 790 q 543 783 542 786 q 547 780 546 782 q 549 775 547 778 q 549 774 549 775 q 550 774 549 774 q 550 772 550 772 q 550 771 550 771 q 550 770 550 771 q 551 769 550 769 q 551 767 551 768 q 551 767 551 767 q 551 767 551 767 q 551 767 551 767 q 551 765 551 765 q 551 765 551 765 q 551 765 551 765 q 551 765 551 765 q 551 765 551 765 q 551 765 551 765 q 551 764 551 764 q 551 764 551 764 q 551 764 551 764 q 551 764 551 764 q 551 759 551 761 q 547 754 550 757 q 542 751 546 753 q 532 750 538 750 q 530 750 531 750 q 529 750 529 750 q 529 750 529 750 q 529 750 529 750 q 527 750 528 750 q 526 750 526 750 q 526 750 526 750 q 526 750 526 750 q 525 750 525 750 q 525 750 525 750 q 519 750 522 750 q 514 751 517 750 q 508 752 511 751 q 503 754 506 753 q 500 754 501 754 q 499 756 499 754 q 496 756 497 756 q 493 757 494 757 q 490 758 492 757 q 485 760 488 758 q 481 760 483 760 q 476 763 479 761 q 474 763 475 763 q 474 764 474 763 q 472 765 472 764 q 469 765 471 765 l 236 854 q 230 856 233 854 q 224 858 226 857 q 218 861 221 860 q 213 864 215 863 q 191 874 201 868 q 172 889 181 881 q 160 907 164 897 q 156 926 156 917 q 156 926 156 926 q 156 926 156 926 q 156 926 156 926 q 156 928 156 926 q 156 928 156 928 q 156 928 156 928 q 156 928 156 928 q 156 928 156 928 q 157 936 156 932 q 160 944 158 940 q 165 953 163 949 q 172 963 168 957 q 184 974 178 969 q 196 979 190 978 q 210 983 203 982 q 224 985 217 985 q 228 985 226 985 q 232 985 231 985 q 237 983 235 983 q 240 983 239 983 q 249 981 244 982 q 258 979 253 981 q 273 973 265 976 q 289 965 281 969 q 297 961 293 964 q 306 957 301 958 q 313 952 308 954 q 321 947 317 950 q 325 944 324 946 q 329 942 326 943 q 333 939 331 940 q 336 936 335 938 q 342 931 339 933 q 350 926 346 929 l 535 792 l 535 792 l 535 792 z "},"a":{"ha":836,"x_min":92,"x_max":794,"o":"m 560 78 q 505 40 533 57 q 446 13 476 24 q 383 -5 415 1 q 318 -12 351 -11 q 316 -12 317 -12 q 314 -12 315 -12 q 312 -12 313 -12 q 310 -12 311 -12 q 306 -12 308 -12 q 301 -12 304 -12 q 298 -11 300 -11 q 293 -11 296 -11 q 285 -11 289 -11 q 276 -11 281 -11 q 218 1 246 -7 q 164 25 190 10 q 121 64 138 40 q 97 119 104 88 q 95 131 96 125 q 93 142 94 136 q 92 153 92 149 q 92 164 92 158 q 112 247 92 211 q 174 304 132 282 q 261 343 215 328 q 357 368 307 358 q 409 376 383 372 q 461 382 435 381 q 509 386 486 385 q 550 389 532 388 q 550 393 550 392 q 550 397 550 394 q 550 401 550 399 q 550 404 550 403 q 550 413 550 408 q 551 421 550 417 q 551 429 551 425 q 551 438 551 433 q 551 442 551 440 q 551 447 551 444 q 551 451 551 449 q 551 456 551 454 q 549 490 551 474 q 542 524 546 507 q 524 552 536 540 q 493 572 513 564 q 484 576 489 575 q 474 578 479 576 q 463 580 468 579 q 454 581 458 581 q 451 581 453 581 q 450 582 450 581 q 447 582 449 582 q 444 582 446 582 q 442 582 443 582 q 440 582 440 582 q 438 582 439 582 q 435 582 436 582 q 413 581 424 582 q 392 578 403 581 q 372 573 382 576 q 351 567 361 569 q 319 554 332 561 q 300 539 307 547 q 291 522 294 531 q 288 506 288 514 q 288 502 288 504 q 288 497 288 500 q 288 495 288 496 q 288 494 288 494 q 288 492 288 493 q 288 490 288 492 q 287 476 288 483 q 285 463 286 469 q 278 449 283 456 q 264 438 272 443 q 253 433 258 435 q 242 428 247 431 q 231 426 236 426 q 222 425 226 425 q 197 431 208 425 q 178 447 186 436 q 166 472 169 458 q 163 501 163 486 q 163 501 163 501 q 163 503 163 501 q 163 503 163 503 q 163 503 163 503 q 163 503 163 503 q 163 506 163 504 q 163 508 163 507 q 163 510 163 508 q 163 510 163 510 q 163 513 163 511 q 163 515 163 514 q 163 517 163 515 q 163 517 163 517 q 164 519 164 518 q 165 531 164 525 q 168 542 167 536 q 172 551 169 546 q 178 563 175 557 q 192 583 183 574 q 210 597 200 592 q 244 615 225 607 q 285 632 263 624 q 330 645 307 639 q 375 657 353 651 q 397 660 386 660 q 419 663 408 661 q 442 665 431 664 q 464 665 454 665 q 472 665 468 665 q 479 665 475 665 q 485 664 482 664 q 493 664 489 664 q 499 663 496 664 q 507 663 503 663 q 513 660 510 661 q 519 660 517 660 q 554 649 538 656 q 588 633 571 643 q 616 610 603 624 q 639 582 629 597 q 654 550 649 567 q 661 517 660 533 q 665 483 664 500 q 665 447 665 465 q 665 445 665 446 q 665 443 665 444 q 665 441 665 442 q 665 440 665 440 l 665 93 q 672 94 668 93 q 679 97 675 96 q 688 102 683 100 q 699 106 693 104 q 705 108 701 107 q 711 110 708 108 q 717 112 714 111 q 725 114 721 113 q 732 116 728 115 q 740 118 736 117 q 744 118 743 118 q 749 119 746 118 q 752 119 750 119 q 756 119 754 119 q 768 117 763 119 q 779 113 774 115 q 788 104 783 110 q 793 92 792 99 q 793 90 793 90 q 793 89 793 89 q 793 88 793 89 q 794 88 793 88 q 794 88 794 88 q 794 88 794 88 q 794 85 794 86 q 794 85 794 85 q 794 83 794 83 q 794 82 794 82 q 794 80 794 81 q 794 79 794 79 q 794 79 794 79 q 794 79 794 79 q 794 78 794 78 q 794 78 794 78 q 791 61 794 68 q 781 49 788 54 q 765 40 774 43 q 747 35 757 36 q 742 33 744 33 q 736 31 739 32 q 730 28 733 29 q 724 26 726 28 q 721 26 722 26 q 719 25 719 25 q 717 24 718 24 q 714 24 715 24 q 711 23 713 24 q 710 22 710 22 q 707 20 708 21 q 704 19 706 19 q 681 11 692 15 q 658 4 669 7 q 637 0 647 1 q 618 -1 626 -1 q 596 2 606 -1 q 578 14 586 6 q 565 38 569 22 q 560 78 561 54 l 560 78 l 560 78 m 550 299 q 523 297 536 297 q 496 296 510 296 q 469 294 482 294 q 443 292 456 293 q 429 290 436 290 q 417 289 422 289 q 403 287 410 288 q 389 285 396 286 q 362 280 375 283 q 336 274 349 276 q 333 273 335 274 q 329 272 331 272 q 325 270 326 271 q 321 269 324 269 q 317 267 319 268 q 314 267 315 267 q 310 265 311 265 q 306 264 308 264 q 274 247 289 257 q 243 225 258 238 q 222 197 229 213 q 215 165 215 182 q 217 155 215 160 q 219 143 218 150 q 222 138 221 140 q 224 132 222 135 q 227 125 225 128 q 231 119 229 122 q 248 98 238 107 q 272 83 258 89 q 299 76 285 78 q 329 74 314 74 q 344 74 336 74 q 360 75 351 74 q 376 78 368 76 q 393 82 385 81 q 434 95 414 88 q 474 113 454 103 q 510 134 493 124 q 539 156 526 144 q 542 158 540 157 q 544 161 543 160 q 547 164 546 163 q 550 167 549 165 l 550 299 l 550 299 l 550 299 z "},"b":{"ha":836,"x_min":18,"x_max":738,"o":"m 150 874 q 144 872 147 872 q 138 871 140 871 q 129 869 133 869 q 121 868 125 868 q 117 867 119 868 q 113 867 114 867 q 108 865 110 865 q 103 864 106 864 q 94 863 99 863 q 86 863 90 863 q 81 861 83 861 q 76 861 79 861 q 73 861 75 861 q 68 861 71 861 q 53 863 60 861 q 40 865 47 864 q 30 873 35 868 q 22 883 25 878 q 22 886 22 885 q 21 889 21 888 q 19 890 19 889 q 19 893 19 892 q 19 896 19 894 q 18 899 18 897 q 18 900 18 899 q 18 903 18 901 q 22 919 18 911 q 31 933 25 928 q 44 944 38 940 q 61 951 51 949 q 71 953 64 951 q 88 958 78 956 q 110 965 99 961 q 135 971 122 968 q 135 971 135 971 q 138 972 136 971 q 138 972 138 972 q 139 972 139 972 q 141 972 140 972 q 143 974 142 972 q 172 980 158 976 q 197 986 185 983 q 217 990 210 989 q 226 992 225 992 q 247 986 239 990 q 258 974 256 982 q 263 956 261 965 q 265 936 265 947 l 265 578 q 317 610 292 597 q 368 632 343 624 q 417 644 393 640 q 465 649 442 649 q 571 626 522 649 q 658 560 619 604 q 718 460 699 515 q 738 338 738 404 q 738 325 738 332 q 736 313 738 318 q 735 299 736 306 q 733 286 735 293 q 729 259 732 272 q 724 232 726 246 q 679 128 708 172 q 606 53 650 83 q 515 8 563 22 q 414 -6 467 -6 q 408 -6 411 -6 q 403 -6 406 -6 q 397 -4 400 -4 q 392 -4 394 -4 q 386 -4 389 -4 q 382 -4 383 -4 q 376 -3 379 -3 q 371 -3 374 -3 q 338 1 354 -1 q 307 7 322 3 q 275 17 290 11 q 244 32 260 24 q 233 15 239 22 q 219 1 226 7 q 211 -2 215 0 q 204 -6 207 -4 q 196 -8 200 -7 q 188 -8 192 -8 q 188 -8 188 -8 q 188 -8 188 -8 q 186 -8 186 -8 q 186 -8 186 -8 q 186 -8 186 -8 q 186 -8 186 -8 q 185 -8 185 -8 q 185 -8 185 -8 q 174 -7 179 -8 q 163 -3 168 -6 q 151 2 157 -1 q 140 11 146 6 q 138 14 139 13 q 136 17 138 15 q 135 18 136 17 q 135 21 135 19 q 134 24 135 22 q 133 26 133 25 q 133 28 133 26 q 133 31 133 29 q 133 36 133 33 q 135 42 133 39 q 136 47 135 44 q 139 53 138 50 q 139 56 139 54 q 140 58 139 57 q 140 59 140 58 q 142 61 140 60 q 142 62 142 61 q 142 64 142 63 q 145 78 144 71 q 147 92 146 85 q 149 106 149 99 q 150 122 150 114 q 150 127 150 125 q 150 131 150 129 q 150 136 150 133 q 150 142 150 139 l 150 874 l 150 874 l 150 874 m 265 139 q 283 124 274 131 q 301 110 292 117 q 320 99 311 104 q 339 90 329 94 q 356 83 347 86 q 375 78 365 81 q 394 76 385 76 q 413 75 403 75 q 488 92 453 75 q 553 143 524 108 q 597 222 582 178 q 613 318 613 265 q 613 320 613 319 q 613 322 613 321 q 613 324 613 322 q 613 326 613 325 q 613 327 613 326 q 613 329 613 328 q 613 331 613 331 q 613 333 613 332 q 599 408 611 372 q 563 475 586 443 q 508 527 540 507 q 436 553 476 547 q 433 553 435 553 q 431 554 432 553 q 426 554 428 554 q 424 554 425 554 q 418 554 421 554 q 413 554 415 554 q 376 550 394 554 q 339 538 357 546 q 304 521 321 529 q 272 504 288 513 q 270 502 271 503 q 268 501 269 501 q 267 501 268 501 q 267 501 267 501 q 265 500 265 500 q 265 500 265 500 l 265 139 l 265 139 l 265 139 z "},"c":{"ha":836,"x_min":103,"x_max":760,"o":"m 551 510 q 542 541 550 528 q 519 563 533 554 q 490 575 506 571 q 457 579 475 579 q 451 579 454 579 q 444 579 447 579 q 438 578 442 578 q 432 578 435 578 q 420 576 426 576 q 407 572 414 575 q 376 562 392 568 q 346 547 361 556 q 319 528 332 539 q 296 507 307 518 q 269 469 281 489 q 249 425 257 449 q 237 379 240 403 q 233 332 233 356 q 247 244 233 286 q 286 165 260 203 q 352 106 314 126 q 440 82 390 85 q 442 82 442 82 q 444 82 443 82 q 446 82 444 82 q 449 82 447 82 q 449 82 449 82 q 451 82 450 82 q 453 82 453 82 q 456 82 454 82 q 494 85 475 82 q 533 93 514 88 q 571 105 553 99 q 607 117 589 111 q 640 130 624 124 q 669 142 656 136 q 697 150 685 147 q 719 153 710 153 q 730 152 725 153 q 739 149 735 151 q 747 144 743 147 q 753 136 750 140 q 753 133 753 135 q 756 131 754 132 q 756 128 756 129 q 758 125 757 126 q 758 122 758 124 q 758 119 758 121 q 758 117 758 118 q 760 117 758 117 q 760 115 760 115 q 760 114 760 114 q 751 90 760 101 q 726 67 743 78 q 692 47 710 57 q 656 31 675 38 q 624 18 639 24 q 594 8 610 13 q 571 2 581 4 q 557 0 561 0 q 526 -6 542 -3 q 493 -11 510 -10 q 460 -15 476 -14 q 429 -15 444 -15 q 385 -12 407 -15 q 343 -6 364 -10 q 301 6 322 -1 q 261 22 281 13 q 192 75 222 44 q 143 144 163 106 q 113 226 122 185 q 103 311 103 268 q 103 324 103 318 q 104 336 103 331 q 105 350 104 343 q 107 364 106 357 q 138 467 114 419 q 201 554 163 515 q 288 620 242 594 q 389 657 335 646 q 402 660 396 658 q 415 663 408 661 q 429 664 422 663 q 443 667 436 665 q 473 670 458 669 q 503 671 488 671 q 517 670 510 671 q 533 668 525 669 q 548 666 540 667 q 563 664 556 665 q 591 658 578 663 q 618 646 604 653 q 642 630 631 639 q 664 610 654 621 q 678 585 674 599 q 683 557 683 572 q 683 555 683 556 q 683 554 683 554 q 683 554 683 554 q 683 554 683 554 q 683 552 683 553 q 683 551 683 551 q 683 551 683 551 q 683 551 683 551 q 683 550 683 550 q 683 550 683 550 q 683 547 683 549 q 683 546 683 546 q 683 543 683 544 q 683 540 683 542 q 683 538 683 539 q 683 536 683 536 q 683 533 683 535 q 683 531 683 532 q 683 520 683 525 q 683 510 683 515 q 683 499 683 504 q 683 490 683 494 q 681 470 682 481 q 678 451 681 460 q 674 435 676 442 q 668 424 671 428 q 659 413 664 418 q 647 406 654 408 q 634 401 642 403 q 619 400 626 400 q 608 401 614 400 q 597 403 603 401 q 587 408 592 406 q 578 413 582 410 q 567 424 572 418 q 560 439 563 431 q 556 456 558 447 q 554 474 554 464 q 553 476 554 475 q 553 479 553 478 q 553 481 553 479 q 553 483 553 482 q 553 486 553 485 q 553 489 553 488 q 553 490 553 489 q 553 493 553 492 q 553 495 553 494 q 553 497 553 496 q 551 499 551 499 q 551 501 551 500 q 551 506 551 504 q 551 510 551 508 l 551 510 l 551 510 z "},"d":{"ha":836,"x_min":92,"x_max":779,"o":"m 553 33 q 537 24 544 28 q 522 15 529 19 q 506 8 514 11 q 492 1 499 4 q 467 -3 479 0 q 444 -8 456 -7 q 422 -12 433 -11 q 397 -14 410 -14 q 390 -14 393 -14 q 383 -14 386 -14 q 376 -12 379 -12 q 369 -12 372 -12 q 356 -10 364 -11 q 342 -8 349 -10 q 236 31 282 1 q 157 108 190 61 q 108 210 124 157 q 92 321 92 263 q 114 458 92 397 q 179 565 136 519 q 277 634 224 611 q 393 657 331 657 q 422 656 407 657 q 450 651 436 654 q 465 648 457 650 q 481 644 472 646 q 495 640 488 642 q 510 636 503 639 q 520 633 515 635 q 531 628 525 631 q 540 624 535 626 q 550 619 544 622 l 550 874 q 544 872 547 872 q 538 871 540 871 q 529 869 533 869 q 521 868 525 868 q 517 867 519 868 q 513 867 514 867 q 508 865 510 865 q 503 864 506 864 q 494 863 499 863 q 486 863 490 863 q 481 861 483 861 q 476 861 479 861 q 473 861 475 861 q 468 861 471 861 q 453 863 460 861 q 440 865 447 864 q 430 873 435 868 q 422 883 425 878 q 422 886 422 885 q 421 889 421 888 q 419 890 419 889 q 419 893 419 892 q 419 896 419 894 q 418 899 418 897 q 418 900 418 899 q 418 903 418 901 q 422 919 418 911 q 431 933 425 928 q 444 944 438 940 q 461 951 451 949 q 470 953 464 951 q 488 958 476 956 q 511 965 499 961 q 538 971 524 968 q 538 971 538 971 q 539 972 538 971 q 540 972 539 972 q 540 972 540 972 q 541 972 540 972 q 543 972 542 972 q 572 980 558 976 q 599 986 586 983 q 618 990 611 989 q 626 992 625 992 q 647 986 639 990 q 658 974 654 982 q 663 956 661 965 q 665 936 665 947 l 665 108 q 671 109 668 108 q 676 111 674 110 q 683 113 679 113 q 690 115 686 114 q 696 116 693 115 q 701 118 699 117 q 704 118 703 118 q 707 119 706 118 q 708 120 707 119 q 711 121 710 121 q 714 121 713 121 q 718 122 715 121 q 721 122 719 122 q 724 122 722 122 q 726 122 725 122 q 731 124 728 122 q 733 124 732 124 q 736 124 735 124 q 737 124 736 124 q 739 124 738 124 q 740 122 739 122 q 740 122 740 122 q 743 122 742 122 q 746 122 744 122 q 749 122 747 122 q 751 121 750 121 q 753 119 751 119 q 756 119 754 119 q 758 119 757 119 q 761 117 760 118 q 763 116 761 117 q 765 114 764 115 q 771 108 768 111 q 775 101 774 104 q 778 94 778 97 q 779 88 779 90 q 778 77 779 82 q 774 68 776 72 q 769 60 772 64 q 761 53 765 56 q 751 48 757 51 q 733 42 744 44 q 713 34 724 38 q 692 28 703 31 q 673 21 682 24 q 656 15 664 18 q 640 10 647 13 q 629 6 633 8 q 623 3 626 4 q 617 3 619 3 q 611 1 614 1 q 606 1 608 1 q 590 3 597 1 q 576 10 583 6 q 565 20 571 14 q 553 33 558 26 l 553 33 l 553 33 m 550 517 q 534 528 542 524 q 519 538 526 533 q 503 546 511 542 q 489 553 496 550 q 472 558 481 556 q 457 561 464 560 q 441 563 449 563 q 426 564 433 564 q 347 546 383 564 q 279 492 311 528 q 233 412 249 456 q 215 315 217 368 q 215 313 215 314 q 215 311 215 313 q 215 308 215 310 q 215 306 215 307 q 230 213 215 254 q 274 139 244 171 q 338 93 303 108 q 415 78 374 78 q 447 81 431 78 q 481 89 464 83 q 515 103 497 94 q 550 122 532 111 l 550 517 l 550 517 l 550 517 z "}}}
